<svg width="24" height="22" viewBox="0 0 24 22" fill="none" xmlns="http://www.w3.org/2000/svg">
<path d="M16.9997 1.76874C16.4367 1.76874 15.8891 1.83563 15.3642 1.96191C13.9333 0.849893 12.1624 0.233533 10.3361 0.219002C8.10674 0.201893 6.00571 1.05633 4.42279 2.62674C2.8378 4.19916 1.96494 6.29555 1.96494 8.52966C1.96494 9.08203 1.82825 9.63211 1.56964 10.1204L0.163535 12.7748C-0.0647459 13.2042 -0.053449 13.711 0.19377 14.1308C0.441082 14.5507 0.879129 14.8065 1.36555 14.815L1.96269 14.8151V16.9401C1.96269 18.2108 2.99554 19.2446 4.265 19.2446H5.76139V19.866C5.76139 20.9221 6.61982 21.7812 7.67493 21.7812H14.2514C15.3066 21.7812 16.165 20.9221 16.165 19.866V18.4898C16.165 17.5756 16.2586 16.6614 16.4438 15.7642C16.6273 15.7786 16.8126 15.786 16.9997 15.786C20.8597 15.786 24 12.642 24 8.77735C24 4.91283 20.8596 1.76874 16.9997 1.76874ZM14.7588 18.4899V19.866C14.7588 20.1466 14.5312 20.375 14.2514 20.375H7.67493C7.39518 20.375 7.1676 20.1466 7.1676 19.866V19.0726C7.1676 18.392 6.61429 17.8383 5.93408 17.8383H4.265C3.77089 17.8383 3.3689 17.4354 3.3689 16.9401V14.643C3.3689 13.9625 2.81558 13.4088 2.13538 13.4088H1.41899L2.81221 10.7785C3.17788 10.0883 3.37114 9.3106 3.37114 8.52956C3.37114 6.67317 4.09635 4.93139 5.41316 3.62499C6.72796 2.3206 8.47138 1.61171 10.3249 1.62511C11.5386 1.63477 12.7225 1.96402 13.7555 2.56777C11.5245 3.74086 9.99932 6.08414 9.99932 8.77735C9.99932 11.9685 12.1405 14.6683 15.0599 15.5124C14.86 16.4927 14.7588 17.4912 14.7588 18.4899ZM16.9997 14.3799C13.9151 14.3799 11.4056 11.8666 11.4056 8.77744C11.4056 5.68824 13.9151 3.17499 16.9997 3.17499C20.0843 3.17499 22.5938 5.68824 22.5938 8.77744C22.5938 11.8666 20.0843 14.3799 16.9997 14.3799Z" fill="#0B0B07"/>
<path d="M17.1331 4.49751C16.4031 4.46166 15.6886 4.73075 15.1729 5.23711C14.8983 5.5067 14.8983 5.94375 15.1729 6.21334C15.4475 6.48292 15.8927 6.48292 16.1672 6.21334C16.4057 5.97919 16.7239 5.85912 17.0619 5.87638C17.6447 5.90537 18.1331 6.3751 18.1739 6.94584C18.2105 7.45869 17.9082 7.92658 17.4217 8.11011C16.7487 8.36405 16.2965 9.01865 16.2965 9.73905C16.2965 10.1203 16.6113 10.4294 16.9996 10.4294C17.3879 10.4294 17.7028 10.1203 17.7028 9.73905C17.7028 9.58599 17.7925 9.44926 17.9262 9.39882C18.9936 8.99614 19.6568 7.97155 19.5766 6.84929C19.4856 5.57329 18.4351 4.56227 17.1331 4.49751Z" fill="#0B0B07"/>
<path d="M17 11.0432C16.6117 11.0432 16.2969 11.3523 16.2969 11.7335V12.4514C16.2969 12.8326 16.6117 13.1417 17 13.1417C17.3883 13.1417 17.7031 12.8326 17.7031 12.4514V11.7335C17.7031 11.3523 17.3883 11.0432 17 11.0432Z" fill="#0B0B07"/>
</svg>
