<svg width="20" height="20" viewBox="0 0 20 20" fill="none" xmlns="http://www.w3.org/2000/svg">
<path d="M18.4263 8.90313C17.3784 7.90601 16.74 6.55399 16.6357 5.11125L16.2507 0.287502C16.2444 0.209028 16.2087 0.135823 16.1508 0.0825216C16.0929 0.0292199 16.0169 -0.000250687 15.9382 1.60659e-06H14.6882C14.6127 5.51121e-05 14.5398 0.0274258 14.483 0.0770563C14.4261 0.126687 14.3891 0.195223 14.3788 0.270002L13.5963 5.96875C13.477 6.83763 13.0471 7.6339 12.3861 8.21032C11.7251 8.78675 10.8777 9.10432 10.0007 9.10432C9.12369 9.10432 8.27632 8.78675 7.61533 8.21032C6.95433 7.6339 6.52442 6.83763 6.40509 5.96875L6.05197 3.39656C6.04069 3.31443 5.99726 3.24014 5.93121 3.19003C5.86516 3.13992 5.78191 3.1181 5.69978 3.12938C5.61764 3.14065 5.54335 3.18409 5.49324 3.25013C5.44314 3.31618 5.42132 3.39943 5.43259 3.48156L5.78603 6.05344C5.92585 7.0719 6.42974 8.00529 7.20452 8.68096C7.9793 9.35664 8.97254 9.7289 10.0006 9.7289C11.0286 9.7289 12.0218 9.35664 12.7966 8.68096C13.5714 8.00529 14.0753 7.0719 14.2151 6.05344L14.9607 0.625002H15.6482L16.011 5.16156C16.1277 6.7589 16.8358 8.25533 17.997 9.35844C18.4834 9.81102 18.859 10.3697 19.0944 10.991C19.3298 11.6124 19.4187 12.2796 19.3543 12.9409C19.2899 13.6022 19.0738 14.2398 18.7229 14.804C18.372 15.3682 17.8957 15.8439 17.331 16.1941C17.2612 16.2387 17.2119 16.3092 17.194 16.3901C17.1761 16.471 17.1911 16.5558 17.2357 16.6256C17.2803 16.6955 17.3508 16.7448 17.4318 16.7627C17.5127 16.7805 17.5974 16.7655 17.6673 16.7209C18.3123 16.3197 18.8562 15.7753 19.2568 15.1299C19.6574 14.4845 19.904 13.7555 19.9774 12.9995C20.0508 12.2434 19.9491 11.4806 19.6801 10.7702C19.4111 10.0598 18.9821 9.42095 18.4263 8.90313Z" fill="#0B0B07"/>
<path d="M17.5004 17.5H2.81289V16.4575C2.81289 16.405 2.79967 16.3533 2.77443 16.3073C2.7492 16.2613 2.71277 16.2223 2.66852 16.1941C2.10385 15.8439 1.62755 15.3682 1.27664 14.804C0.925732 14.2398 0.709667 13.6022 0.645242 12.9409C0.580816 12.2796 0.669767 11.6124 0.905178 10.991C1.14059 10.3697 1.51612 9.81102 2.00258 9.35844C3.16357 8.25522 3.87164 6.75885 3.98852 5.16156L4.35133 0.625002H5.04039L5.25914 2.23C5.27191 2.31078 5.31584 2.38333 5.38149 2.43209C5.44714 2.48085 5.5293 2.50192 5.61032 2.4908C5.69133 2.47968 5.76476 2.43723 5.81485 2.37259C5.86493 2.30794 5.88768 2.22623 5.8782 2.145L5.62101 0.270002C5.61078 0.195436 5.57398 0.127069 5.51737 0.0774656C5.46076 0.0278626 5.38815 0.000356133 5.31289 1.60659e-06H4.06289C3.98416 -0.000250687 3.90825 0.0292199 3.85031 0.0825216C3.79237 0.135823 3.75669 0.209028 3.75039 0.287502L3.3657 5.11125C3.2611 6.55403 2.62244 7.906 1.57445 8.90313C1.02935 9.41076 0.606006 10.035 0.336059 10.7292C0.0661117 11.4235 -0.0434616 12.1697 0.0155262 12.9123C0.0745139 13.6548 0.300538 14.3744 0.676709 15.0173C1.05288 15.6602 1.56947 16.2098 2.18789 16.625V19.6875C2.18789 19.7704 2.22081 19.8499 2.27942 19.9085C2.33802 19.9671 2.41751 20 2.50039 20H3.75039C3.83327 20 3.91276 19.9671 3.97136 19.9085C4.02997 19.8499 4.06289 19.7704 4.06289 19.6875C4.06289 19.6046 4.02997 19.5251 3.97136 19.4665C3.91276 19.4079 3.83327 19.375 3.75039 19.375H2.81289V18.125H17.1879V19.375H5.00039C4.91751 19.375 4.83802 19.4079 4.77942 19.4665C4.72081 19.5251 4.68789 19.6046 4.68789 19.6875C4.68789 19.7704 4.72081 19.8499 4.77942 19.9085C4.83802 19.9671 4.91751 20 5.00039 20H17.5004C17.5833 20 17.6628 19.9671 17.7214 19.9085C17.78 19.8499 17.8129 19.7704 17.8129 19.6875V17.8125C17.8129 17.7296 17.78 17.6501 17.7214 17.5915C17.6628 17.5329 17.5833 17.5 17.5004 17.5Z" fill="#0B0B07"/>
<path d="M8.55397 16.8528C9.48203 16.479 10.5187 16.479 11.4468 16.8528C11.4836 16.8676 11.523 16.8751 11.5627 16.875C11.6354 16.875 11.7058 16.8497 11.7619 16.8035C11.818 16.7572 11.8562 16.6929 11.8699 16.6215C11.8836 16.5501 11.872 16.4762 11.8371 16.4124C11.8022 16.3486 11.7462 16.299 11.6787 16.2721C10.6014 15.8396 9.39874 15.8396 8.32147 16.2721C8.24448 16.303 8.18288 16.3631 8.15024 16.4394C8.1176 16.5156 8.11658 16.6017 8.14741 16.6787C8.17824 16.7557 8.2384 16.8173 8.31464 16.8499C8.39089 16.8826 8.47698 16.8836 8.55397 16.8528Z" fill="#0B0B07"/>
</svg>
