<svg width="16" height="16" viewBox="0 0 16 16" fill="none" xmlns="http://www.w3.org/2000/svg">
<g clip-path="url(#clip0_1487_9525)">
<path d="M8.0013 0.667969C6.55091 0.667969 5.13308 1.09806 3.92712 1.90386C2.72116 2.70966 1.78123 3.85497 1.22619 5.19496C0.671146 6.53495 0.525922 8.00944 0.80888 9.43196C1.09184 10.8545 1.79027 12.1612 2.81586 13.1868C3.84144 14.2123 5.14812 14.9108 6.57064 15.1937C7.99317 15.4767 9.46766 15.3315 10.8077 14.7764C12.1476 14.2214 13.293 13.2814 14.0987 12.0755C14.9045 10.8695 15.3346 9.4517 15.3346 8.0013C15.3323 6.05709 14.559 4.19316 13.1842 2.81839C11.8095 1.44362 9.94552 0.670262 8.0013 0.667969ZM10.4726 10.4726C10.3476 10.5976 10.1781 10.6678 10.0013 10.6678C9.82453 10.6678 9.65499 10.5976 9.52997 10.4726L7.52997 8.47264C7.40494 8.34764 7.33468 8.1781 7.33464 8.0013V4.0013C7.33464 3.82449 7.40488 3.65492 7.5299 3.5299C7.65492 3.40487 7.82449 3.33464 8.0013 3.33464C8.17812 3.33464 8.34768 3.40487 8.47271 3.5299C8.59773 3.65492 8.66797 3.82449 8.66797 4.0013V7.7253L10.4726 9.52997C10.5976 9.65499 10.6678 9.82453 10.6678 10.0013C10.6678 10.1781 10.5976 10.3476 10.4726 10.4726Z" fill="#F7F8F9"/>
</g>
<defs>
<clipPath id="clip0_1487_9525">
<rect width="16" height="16" fill="white"/>
</clipPath>
</defs>
</svg>
