<svg width="12" height="12" viewBox="0 0 12 12" fill="none" xmlns="http://www.w3.org/2000/svg">
<path d="M2.98694 2.22387C3.60104 2.22387 4.09887 1.72604 4.09887 1.11194C4.09887 0.49783 3.60104 0 2.98694 0C2.37283 0 1.875 0.49783 1.875 1.11194C1.875 1.72604 2.37283 2.22387 2.98694 2.22387Z" fill="white"/>
<path d="M9.97923 6.72755C9.80509 6.72755 9.66391 6.86873 9.66391 7.04287V8.46778H7.93125C7.75711 8.46778 7.61593 8.60896 7.61593 8.7831V10.2236H7.00235C7.10949 10.1038 7.16729 9.94067 7.14836 9.76831L6.87938 7.32116C6.85547 7.10349 6.71233 6.91724 6.50815 6.83809L5.3501 6.38926L5.25663 5.94515L5.06125 6.01004C4.74001 6.11671 4.39546 6.04906 4.14187 5.85082C4.07899 5.80165 4.1774 5.91552 2.77304 4.16643L4.43972 5.46977C4.43977 5.46983 4.43982 5.46985 4.43987 5.4699C4.57132 5.57261 4.74844 5.6043 4.90881 5.55104L5.86389 5.23387L6.81898 4.9167C7.08195 4.82941 7.22628 4.54484 7.13831 4.27983C7.05139 4.01827 6.76703 3.87245 6.50165 3.96042C6.50157 3.96044 6.5015 3.96047 6.50142 3.9605L4.84757 4.50968L3.33824 3.32939L4.84306 3.98073L4.65243 3.0751C4.56699 2.66915 4.16863 2.40933 3.76268 2.49477L2.45188 2.77068C2.38498 2.78477 2.18124 2.83294 2.04473 2.94788L0.412063 4.36152C0.148124 4.59014 0.191445 5.01273 0.497113 5.18268L2.41667 6.24993L2.6646 7.42785L2.53307 9.02435L1.278 11.1105C1.11093 11.3882 1.20062 11.7488 1.47833 11.9158C1.75609 12.0829 2.11664 11.9932 2.28368 11.7155L3.60951 9.5118C3.65604 9.43447 3.6841 9.34741 3.69151 9.25746L3.86268 7.17975L4.0437 7.14164L5.75175 7.80363L5.98178 9.89652C5.99568 10.0231 6.04923 10.1356 6.12822 10.2236H5.41794C5.24379 10.2236 5.10262 10.3648 5.10262 10.5389V11.9971H11.7628C11.7628 11.715 11.7628 7.01802 11.7628 6.72755H9.97923ZM1.61601 4.65195L2.00877 4.31191L2.14188 4.94435L1.61601 4.65195Z" fill="white"/>
</svg>
