<svg width="44" height="44" viewBox="0 0 44 44" fill="none" xmlns="http://www.w3.org/2000/svg">
<g clip-path="url(#clip0_1341_6917)">
<path d="M7.33301 12.8333C7.81924 12.8333 8.28555 13.0265 8.62937 13.3703C8.97319 13.7141 9.16634 14.1804 9.16634 14.6667V29.3333C9.16634 29.8196 8.97319 30.2859 8.62937 30.6297C8.28555 30.9735 7.81924 31.1667 7.33301 31.1667C6.84678 31.1667 6.38046 30.9735 6.03665 30.6297C5.69283 30.2859 5.49967 29.8196 5.49967 29.3333V23.8333H3.66634C3.18011 23.8333 2.7138 23.6402 2.36998 23.2964C2.02616 22.9525 1.83301 22.4862 1.83301 22C1.83301 21.5138 2.02616 21.0474 2.36998 20.7036C2.7138 20.3598 3.18011 20.1667 3.66634 20.1667H5.49967V14.6667C5.49967 14.1804 5.69283 13.7141 6.03665 13.3703C6.38046 13.0265 6.84678 12.8333 7.33301 12.8333Z" fill="black"/>
<path d="M36.6663 12.8333C37.1526 12.8333 37.6189 13.0265 37.9627 13.3703C38.3065 13.7141 38.4997 14.1804 38.4997 14.6667V20.1667H40.333C40.8192 20.1667 41.2856 20.3598 41.6294 20.7036C41.9732 21.0474 42.1663 21.5138 42.1663 22C42.1663 22.4862 41.9732 22.9525 41.6294 23.2964C41.2856 23.6402 40.8192 23.8333 40.333 23.8333H38.4997V29.3333C38.4997 29.8196 38.3065 30.2859 37.9627 30.6297C37.6189 30.9735 37.1526 31.1667 36.6663 31.1667C36.1801 31.1667 35.7138 30.9735 35.37 30.6297C35.0262 30.2859 34.833 29.8196 34.833 29.3333V14.6667C34.833 14.1804 35.0262 13.7141 35.37 13.3703C35.7138 13.0265 36.1801 12.8333 36.6663 12.8333Z" fill="black"/>
<path d="M29.3333 9.16667C30.3058 9.16667 31.2384 9.55298 31.9261 10.2406C32.6137 10.9282 33 11.8609 33 12.8333V31.1667C33 32.1391 32.6137 33.0718 31.9261 33.7594C31.2384 34.447 30.3058 34.8333 29.3333 34.8333C28.3609 34.8333 27.4282 34.447 26.7406 33.7594C26.053 33.0718 25.6667 32.1391 25.6667 31.1667V23.8333H18.3333V31.1667C18.3333 32.1391 17.947 33.0718 17.2594 33.7594C16.5718 34.447 15.6391 34.8333 14.6667 34.8333C13.6942 34.8333 12.7616 34.447 12.0739 33.7594C11.3863 33.0718 11 32.1391 11 31.1667V12.8333C11 11.8609 11.3863 10.9282 12.0739 10.2406C12.7616 9.55298 13.6942 9.16667 14.6667 9.16667C15.6391 9.16667 16.5718 9.55298 17.2594 10.2406C17.947 10.9282 18.3333 11.8609 18.3333 12.8333V20.1667H25.6667V12.8333C25.6667 11.8609 26.053 10.9282 26.7406 10.2406C27.4282 9.55298 28.3609 9.16667 29.3333 9.16667Z" fill="black"/>
</g>
<defs>
<clipPath id="clip0_1341_6917">
<rect width="44" height="44" fill="white"/>
</clipPath>
</defs>
</svg>
