<svg width="13" height="13" viewBox="0 0 13 13" fill="none" xmlns="http://www.w3.org/2000/svg">
<path d="M4.69067 9.74997C4.52308 9.75108 4.35777 9.71111 4.20914 9.63354C4.06051 9.55597 3.93307 9.44316 3.83792 9.30494C3.74278 9.16672 3.68282 9.00728 3.66327 8.84052C3.64372 8.67376 3.66517 8.50474 3.72576 8.34819L4.77268 5.64613C4.85054 5.44672 4.96874 5.26562 5.11986 5.11422C5.27097 4.96282 5.45173 4.84439 5.65075 4.76638L8.34768 3.72713C8.53376 3.65413 8.73705 3.63707 8.93265 3.67804C9.12826 3.71901 9.3077 3.81623 9.44901 3.95781C9.59032 4.09938 9.68736 4.27917 9.72825 4.47515C9.76914 4.67113 9.75212 4.87481 9.67925 5.06124L8.63232 7.75364C8.55447 7.95304 8.43627 8.13414 8.28515 8.28554C8.13404 8.43695 7.95328 8.55538 7.75426 8.63338L5.05733 9.67263C4.94091 9.72082 4.8166 9.74704 4.69067 9.74997ZM8.71917 4.67938L6.02224 5.73313C5.9553 5.75886 5.8945 5.79841 5.8438 5.84921C5.7931 5.90001 5.75363 5.96092 5.72794 6.02799L4.69067 8.73005L7.38277 7.66663C7.44971 7.6409 7.51051 7.60135 7.56121 7.55055C7.61191 7.49976 7.65138 7.43884 7.67706 7.37177L8.71917 4.67938Z" fill="#0B0B07"/>
<path d="M6.5 13C5.21442 13 3.95772 12.6188 2.8888 11.9046C1.81988 11.1903 0.986755 10.1752 0.494786 8.98744C0.00281638 7.79972 -0.125905 6.49279 0.124899 5.23191C0.375702 3.97104 0.994767 2.81285 1.90381 1.90381C2.81285 0.994767 3.97104 0.375702 5.23191 0.124899C6.49279 -0.125905 7.79972 0.00281638 8.98744 0.494786C10.1752 0.986755 11.1903 1.81988 11.9046 2.8888C12.6188 3.95772 13 5.21442 13 6.5C13 8.22391 12.3152 9.87721 11.0962 11.0962C9.87721 12.3152 8.22391 13 6.5 13ZM6.5 0.865315C5.38557 0.865315 4.29616 1.19578 3.36954 1.81493C2.44292 2.43408 1.72071 3.3141 1.29423 4.3437C0.867754 5.3733 0.756168 6.50625 0.973584 7.59927C1.191 8.6923 1.72765 9.6963 2.51568 10.4843C3.3037 11.2724 4.30771 11.809 5.40073 12.0264C6.49375 12.2438 7.6267 12.1322 8.6563 11.7058C9.68591 11.2793 10.5659 10.5571 11.1851 9.63047C11.8042 8.70385 12.1347 7.61444 12.1347 6.5C12.1336 5.00592 11.5396 3.57334 10.4831 2.51687C9.42666 1.46039 7.99408 0.866391 6.5 0.865315Z" fill="#0B0B07"/>
</svg>
