<svg width="114" height="105" viewBox="0 0 114 105" fill="none" xmlns="http://www.w3.org/2000/svg">
<path d="M38.5321 0L42.2817 15.2362C43.5759 20.4949 44.223 23.1242 45.5974 25.2447C46.8128 27.1197 48.4317 28.6995 50.3359 29.8687C52.4893 31.1909 55.1336 31.7736 60.4223 32.9388L77.0642 36.6055L60.4223 40.2722C55.1336 41.4375 52.4893 42.0201 50.3359 43.3423C48.4317 44.5115 46.8128 46.0913 45.5974 47.9663C44.223 50.0868 43.5759 52.7161 42.2817 57.9748L38.5321 73.211L34.7825 57.9748C33.4883 52.7161 32.8412 50.0868 31.4668 47.9663C30.2515 46.0913 28.6325 44.5115 26.7283 43.3423C24.5749 42.0201 21.9306 41.4375 16.6419 40.2722L0 36.6055L16.6419 32.9388C21.9306 31.7736 24.5749 31.1909 26.7283 29.8687C28.6325 28.6995 30.2515 27.1197 31.4668 25.2447C32.8412 23.1242 33.4883 20.4949 34.7825 15.2362L38.5321 0Z" fill="black"/>
<path d="M89.0022 57.7983L90.1367 62.4606C91.4175 67.7238 92.0578 70.3555 93.4271 72.4798C94.638 74.3583 96.2533 75.9425 98.155 77.1166C100.306 78.4443 102.949 79.0334 108.236 80.2115L113.566 81.3993L108.236 82.587C102.949 83.7651 100.306 84.3542 98.155 85.6819C96.2533 86.856 94.638 88.4402 93.4271 90.3187C92.0578 92.4431 91.4175 95.0747 90.1367 100.338L89.0022 105L87.8677 100.338C86.587 95.0747 85.9466 92.4431 84.5773 90.3187C83.3664 88.4402 81.7511 86.856 79.8494 85.6819C77.6988 84.3542 75.0553 83.7651 69.7681 82.587L64.438 81.3993L69.7681 80.2115C75.0553 79.0334 77.6988 78.4443 79.8494 77.1166C81.7511 75.9425 83.3664 74.3583 84.5773 72.4798C85.9466 70.3555 86.587 67.7238 87.8677 62.4606L89.0022 57.7983Z" fill="black"/>
</svg>
