<svg width="20" height="20" viewBox="0 0 20 20" fill="none" xmlns="http://www.w3.org/2000/svg">
<path d="M15.6777 9.21942L15.6768 9.2186L10.7813 4.32373C10.5726 4.11499 10.2952 4 10.0001 4C9.70497 4 9.42754 4.1149 9.21878 4.32364L4.32579 9.21603C4.32414 9.21768 4.32249 9.21942 4.32085 9.22107C3.89234 9.65201 3.89307 10.3512 4.32295 10.781C4.51935 10.9775 4.77875 11.0913 5.05609 11.1032C5.06735 11.1043 5.07871 11.1049 5.09015 11.1049H5.28527V14.7072C5.28527 15.42 5.86531 16 6.5784 16H8.4937C8.68781 16 8.84529 15.8426 8.84529 15.6484V12.8242C8.84529 12.4989 9.10991 12.2343 9.43523 12.2343H10.5649C10.8902 12.2343 11.1549 12.4989 11.1549 12.8242V15.6484C11.1549 15.8426 11.3123 16 11.5065 16H13.4218C14.1348 16 14.7149 15.42 14.7149 14.7072V11.1049H14.8958C15.1908 11.1049 15.4683 10.99 15.6771 10.7812C16.1074 10.3506 16.1076 9.65027 15.6777 9.21942Z" fill="#0B0B07"/>
</svg>
