<svg width="20" height="20" viewBox="0 0 20 20" fill="none" xmlns="http://www.w3.org/2000/svg">
<path d="M19.3688 3.96022H18.8369C18.8369 2.96534 18.8369 3.1803 18.8369 2.17917C18.8369 1.99499 18.6876 1.84569 18.5034 1.84569H17.5923C17.4082 1.84569 17.2589 1.99499 17.2589 2.17917C17.2589 3.18034 17.2589 2.96522 17.2589 3.96022H16.0944C16.1429 3.45014 15.7673 3.0035 15.2696 2.95088C14.7577 2.8969 14.3038 3.27108 14.2505 3.77506L14.2309 3.96018H12.6259C12.1525 4.98249 11.1305 5.64252 9.99855 5.64252C8.85098 5.64252 7.83773 4.96749 7.37117 3.96018H5.77203L5.75246 3.77506C5.69875 3.26733 5.24066 2.89717 4.73332 2.95084C4.23633 3.00346 3.85996 3.44959 3.90859 3.96026H2.74105C2.74105 2.96538 2.74105 3.18034 2.74105 2.1792C2.74105 1.99502 2.59176 1.84573 2.40758 1.84573H1.49652C1.31234 1.84573 1.16305 1.99502 1.16305 2.1792C1.16305 3.18038 1.16305 2.96526 1.16305 3.96026H0.631211C0.282578 3.96022 0 4.2428 0 4.59143C0 4.94002 0.282578 5.22264 0.631211 5.22264H1.16309C1.16309 6.21752 1.16309 6.00256 1.16309 7.0037C1.16309 7.18788 1.31242 7.33717 1.49656 7.33717H2.40762C2.5918 7.33717 2.74109 7.18784 2.74109 7.0037C2.74109 6.00253 2.74109 6.21764 2.74109 5.22264H4.04152C4.08148 5.60034 4.36391 8.27092 4.40562 8.66588C4.48941 9.45842 5.48785 9.7935 6.02523 9.17827L7.32781 7.6876V11.2339L3.95742 12.6032C3.56398 12.763 3.28375 13.1181 3.21969 13.538L2.54727 17.9462C2.44687 18.6042 2.89891 19.219 3.55687 19.3193C4.21484 19.4197 4.82961 18.9677 4.92996 18.3097L5.49918 14.5783L8.61707 13.3116H11.3848L14.5027 14.5783L15.0719 18.3097C15.1723 18.9678 15.787 19.4197 16.445 19.3193C17.103 19.2189 17.555 18.6042 17.4546 17.9462L16.7821 13.5379C16.7181 13.1181 16.4379 12.763 16.0444 12.6031L12.6473 11.2229V7.65581L13.9776 9.17823C14.5006 9.7769 15.511 9.48026 15.5972 8.66584C15.6389 8.27155 15.9215 5.59963 15.9614 5.2226H17.2589C17.2589 6.21749 17.2589 6.00252 17.2589 7.00366C17.2589 7.18784 17.4082 7.33713 17.5924 7.33713H18.5034C18.6876 7.33713 18.8369 7.1878 18.8369 7.00366C18.8369 6.00249 18.8369 6.2176 18.8369 5.2226H19.3688C19.7174 5.2226 20 4.94002 20 4.59139C20 4.2428 19.7174 3.96022 19.3688 3.96022ZM6.02582 6.36049C5.97586 5.88792 5.95492 5.69038 5.90547 5.2226H7.02008C6.61625 5.68483 6.43527 5.89194 6.02582 6.36049ZM13.977 6.36049C13.5163 5.83327 14.1081 6.51049 12.9827 5.2226H14.0973C14.0039 6.1062 14.0269 5.88854 13.977 6.36049Z" fill="#0B0B07"/>
<path d="M9.99855 4.82944C11.1481 4.82944 12.08 3.89756 12.08 2.74803C12.08 1.5985 11.1481 0.666626 9.99855 0.666626C8.84903 0.666626 7.91715 1.5985 7.91715 2.74803C7.91715 3.89756 8.84903 4.82944 9.99855 4.82944Z" fill="#0B0B07"/>
</svg>
