<svg width="24" height="24" viewBox="0 0 24 24" fill="none" xmlns="http://www.w3.org/2000/svg">
<path d="M17.6631 1.99969H12.3947C11.9469 1.99969 11.584 2.36259 11.584 2.81035C11.584 3.25782 11.9472 3.621 12.3944 3.62071H15.7061L12.5955 6.73133C10.8395 5.51711 8.40728 5.68977 6.84509 7.25196C5.08712 9.00994 5.08712 11.8701 6.84509 13.628C7.5179 14.3008 8.35256 14.7138 9.22467 14.8718V18.1147H7.4064C6.95893 18.1147 6.59575 18.4776 6.59575 18.9254C6.59575 19.3728 6.95864 19.736 7.4064 19.736H9.22467V21.1896C9.22467 21.6371 9.58756 22.0003 10.0353 22.0003C10.4831 22.0003 10.846 21.6374 10.846 21.1896V19.736H12.6642C13.1117 19.736 13.4749 19.3731 13.4749 18.9254C13.4749 18.4779 13.112 18.1147 12.6642 18.1147H10.846V14.8709C11.7166 14.7126 12.5495 14.2997 13.2214 13.628C14.7836 12.0658 14.9563 9.63388 13.7421 7.87766L16.8524 4.76703V8.07871C16.8524 8.3023 16.9431 8.50511 17.0898 8.65173C17.2364 8.79835 17.4392 8.88907 17.6628 8.88907C18.1105 8.88907 18.4734 8.52618 18.4734 8.07842V2.81005C18.4737 2.36288 18.1105 1.99969 17.6631 1.99969ZM12.0751 12.4817C10.9493 13.6075 9.11755 13.6075 7.99171 12.4817C6.86587 11.3559 6.86587 9.52413 7.99171 8.39829C9.11755 7.27245 10.9493 7.27245 12.0751 8.39829C13.201 9.52413 13.201 11.3559 12.0751 12.4817Z" fill="black"/>
</svg>
