<svg width="20" height="20" viewBox="0 0 20 20" fill="none" xmlns="http://www.w3.org/2000/svg">
<g clip-path="url(#clip0_1125_3809)">
<path d="M18.5777 10.5834L17.6727 11.4884L14.6852 8.50003C14.2089 8.04571 13.576 7.79225 12.9177 7.79225C12.2595 7.79225 11.6265 8.04571 11.1502 8.50003L11.0061 8.64419C10.8474 8.79589 10.6364 8.88055 10.4169 8.88055C10.1974 8.88055 9.98636 8.79589 9.82772 8.64419L5.60022 4.41169C5.52335 4.3321 5.43139 4.26862 5.32972 4.22494C5.22805 4.18127 5.1187 4.15828 5.00806 4.15732C4.89741 4.15636 4.78767 4.17744 4.68526 4.21934C4.58285 4.26124 4.4898 4.32312 4.41156 4.40137C4.33331 4.47961 4.27144 4.57265 4.22954 4.67507C4.18763 4.77748 4.16655 4.88721 4.16751 4.99786C4.16847 5.10851 4.19146 5.21786 4.23514 5.31953C4.27881 5.4212 4.3423 5.51316 4.42189 5.59003L8.64855 9.81753C9.12476 10.272 9.75776 10.5256 10.4161 10.5256C11.0743 10.5256 11.7073 10.272 12.1836 9.81753L12.3277 9.67336C12.4864 9.52167 12.6974 9.43701 12.9169 9.43701C13.1364 9.43701 13.3474 9.52167 13.5061 9.67336L16.4944 12.6667L15.5894 13.5717C15.4729 13.6882 15.3935 13.8367 15.3614 13.9983C15.3293 14.16 15.3458 14.3275 15.4088 14.4797C15.4719 14.632 15.5787 14.7621 15.7157 14.8537C15.8527 14.9453 16.0138 14.9942 16.1786 14.9942H18.7502C19.0817 14.9942 19.3997 14.8625 19.6341 14.6281C19.8685 14.3937 20.0002 14.0757 20.0002 13.7442V11.1667C19.999 11.0024 19.9493 10.8421 19.8573 10.706C19.7653 10.5699 19.6351 10.464 19.4831 10.4017C19.3311 10.3393 19.164 10.3233 19.0029 10.3556C18.8418 10.388 18.6939 10.4672 18.5777 10.5834Z" fill="#0B0B07"/>
<path d="M19.1667 18.3133H4.16667C3.50363 18.3133 2.86774 18.0499 2.3989 17.5811C1.93006 17.1123 1.66667 16.4764 1.66667 15.8133V0.833333C1.66667 0.61232 1.57887 0.400358 1.42259 0.244078C1.26631 0.0877974 1.05435 0 0.833333 0C0.61232 0 0.400358 0.0877974 0.244078 0.244078C0.0877974 0.400358 0 0.61232 0 0.833333L0 15.8133C0.00132321 16.918 0.440735 17.977 1.22185 18.7582C2.00296 19.5393 3.062 19.9787 4.16667 19.98H19.1667C19.3877 19.98 19.5996 19.8922 19.7559 19.7359C19.9122 19.5796 20 19.3677 20 19.1467C20 18.9257 19.9122 18.7137 19.7559 18.5574C19.5996 18.4011 19.3877 18.3133 19.1667 18.3133Z" fill="#0B0B07"/>
</g>
<defs>
<clipPath id="clip0_1125_3809">
<rect width="20" height="20" fill="white"/>
</clipPath>
</defs>
</svg>
