<svg width="24" height="24" viewBox="0 0 24 24" fill="none" xmlns="http://www.w3.org/2000/svg">
<path d="M19.4931 2H15.3428C14.8843 2 14.5127 2.37227 14.5127 2.83145C14.5127 3.29062 14.8843 3.66289 15.3428 3.66289H19.1495L13.4784 9.3434C10.4092 6.9184 5.95842 7.44477 3.53744 10.5191C1.11647 13.5934 1.64193 18.0514 4.71115 20.4764C7.78037 22.9014 12.2311 22.375 14.6521 19.3007C16.6798 16.7259 16.6798 13.094 14.6521 10.5191L20.3233 4.83859V8.65164C20.3233 9.11086 20.6949 9.48309 21.1533 9.48309C21.6118 9.48309 21.9834 9.11082 21.9834 8.65164V4.49437C21.9834 3.11676 20.8685 2 19.4931 2ZM9.11709 20.292C6.13721 20.292 3.72154 17.8723 3.72154 14.8875C3.72154 11.9027 6.13721 9.48309 9.11709 9.48309C12.097 9.48309 14.5126 11.9027 14.5126 14.8875C14.509 17.8708 12.0954 20.2883 9.11709 20.292Z" fill="#0B0B07"/>
</svg>
