<svg width="24" height="24" viewBox="0 0 24 24" fill="none" xmlns="http://www.w3.org/2000/svg">
<path d="M18.6648 8.67014C18.6658 7.38727 18.2966 6.13137 17.6014 5.05319C16.9062 3.97502 15.9146 3.12038 14.7457 2.59187C13.5767 2.06337 12.2801 1.88345 11.0114 2.07372C9.74271 2.26398 8.55589 2.81635 7.59341 3.66451C6.63092 4.51268 5.93367 5.62059 5.58535 6.85527C5.23702 8.08994 5.25242 9.39891 5.62971 10.625C6.00699 11.8512 6.73012 12.9424 7.7123 13.7677C8.69448 14.5929 9.89396 15.1172 11.1668 15.2776V17.8344H9.50054C9.27958 17.8344 9.06768 17.9222 8.91144 18.0784C8.7552 18.2347 8.66742 18.4466 8.66742 18.6675C8.66742 18.8885 8.7552 19.1004 8.91144 19.2566C9.06768 19.4129 9.27958 19.5007 9.50054 19.5007H11.1668V21.1669C11.1668 21.3878 11.2545 21.5997 11.4108 21.756C11.567 21.9122 11.7789 22 11.9999 22C12.2208 22 12.4327 21.9122 12.589 21.756C12.7452 21.5997 12.833 21.3878 12.833 21.1669V19.5007H14.4992C14.7202 19.5007 14.9321 19.4129 15.0883 19.2566C15.2446 19.1004 15.3324 18.8885 15.3324 18.6675C15.3324 18.4466 15.2446 18.2347 15.0883 18.0784C14.9321 17.9222 14.7202 17.8344 14.4992 17.8344H12.833V15.2776C14.4422 15.0734 15.9218 14.29 16.9952 13.0739C18.0686 11.8577 18.6621 10.2922 18.6648 8.67014ZM7.00119 8.67014C7.00119 7.68149 7.29436 6.71505 7.84362 5.89302C8.39289 5.07098 9.17358 4.43029 10.087 4.05195C11.0004 3.67361 12.0054 3.57462 12.9751 3.76749C13.9447 3.96037 14.8354 4.43645 15.5345 5.13553C16.2336 5.83461 16.7097 6.72529 16.9025 7.69495C17.0954 8.6646 16.9964 9.66967 16.6181 10.5831C16.2397 11.4965 15.599 12.2771 14.777 12.8264C13.955 13.3757 12.9885 13.6688 11.9999 13.6688C10.6746 13.6675 9.40389 13.1404 8.46674 12.2033C7.52959 11.2661 7.00251 9.99547 7.00119 8.67014Z" fill="#0B0B07"/>
</svg>
