<svg width="16" height="15" viewBox="0 0 16 15" fill="none" xmlns="http://www.w3.org/2000/svg">
<path d="M13.3759 7.93297L7.75493 13.5L2.13394 7.93297C1.76318 7.57219 1.47114 7.13855 1.27621 6.65935C1.08128 6.18016 0.987677 5.6658 1.0013 5.14865C1.01492 4.63151 1.13547 4.12279 1.35536 3.65452C1.57525 3.18626 1.88971 2.76859 2.27895 2.42783C2.66819 2.08707 3.12376 1.83059 3.61699 1.67454C4.11022 1.5185 4.63041 1.46627 5.14482 1.52114C5.65922 1.57602 6.1567 1.7368 6.60591 1.99338C7.05512 2.24996 7.44634 2.59677 7.75493 3.01198C8.06486 2.59979 8.45654 2.25601 8.90544 2.00215C9.35434 1.74829 9.85081 1.58983 10.3638 1.53667C10.8767 1.48351 11.3951 1.5368 11.8866 1.69321C12.378 1.84962 12.8318 2.10578 13.2197 2.44565C13.6076 2.78553 13.9211 3.20181 14.1407 3.66843C14.3603 4.13505 14.4812 4.64198 14.4959 5.15748C14.5105 5.67298 14.4186 6.18596 14.2259 6.66431C14.0332 7.14266 13.7438 7.57609 13.3759 7.93747" stroke="#1A1B10" stroke-width="1.5" stroke-linecap="round" stroke-linejoin="round"/>
</svg>
