<svg width="20" height="20" viewBox="0 0 20 20" fill="none" xmlns="http://www.w3.org/2000/svg">
<path d="M19.8852 4.18246L18.5631 2.86039C18.4899 2.78714 18.3905 2.74597 18.2869 2.74597C18.1833 2.74597 18.0839 2.78714 18.0107 2.86039L16.6886 4.18246C16.5361 4.335 16.5361 4.58234 16.6886 4.73488C16.7649 4.81117 16.8649 4.84929 16.9648 4.84929C17.0648 4.84929 17.1648 4.81113 17.241 4.73488L17.8962 4.07964V6.83042C17.8962 7.04617 18.0711 7.22105 18.2869 7.22105C18.5026 7.22105 18.6775 7.04617 18.6775 6.83042V4.07964L19.3327 4.73488C19.4853 4.88742 19.7326 4.88742 19.8852 4.73488C20.0377 4.58234 20.0377 4.335 19.8852 4.18246Z" fill="#0B0B07"/>
<path d="M3.31097 4.18246L1.98894 2.86039C1.91569 2.78714 1.81632 2.74597 1.71272 2.74597C1.60913 2.74597 1.50976 2.78714 1.43651 2.86039L0.114404 4.18246C-0.0381348 4.335 -0.0381348 4.58234 0.114404 4.73492C0.266943 4.88746 0.514287 4.88746 0.666865 4.73492L1.3221 4.07968V6.83046C1.3221 7.04621 1.49698 7.22109 1.71272 7.22109C1.92847 7.22109 2.10335 7.04621 2.10335 6.83046V4.07968L2.75854 4.73492C2.83483 4.81121 2.93479 4.84933 3.03476 4.84933C3.13472 4.84933 3.23472 4.81117 3.31097 4.73492C3.46351 4.58234 3.46354 4.33503 3.31097 4.18246Z" fill="#0B0B07"/>
<path d="M16.7192 8.14289C16.5088 7.5 16.201 6.89902 15.9032 6.31777C15.2449 5.03262 14.6231 3.81875 14.9085 2.09766L15.1808 0.454492C15.1996 0.341289 15.1676 0.225547 15.0934 0.137969C15.0192 0.0504688 14.9102 0 14.7955 0H5.18779C5.07302 0 4.96404 0.0504688 4.88986 0.138008C4.81564 0.225547 4.78369 0.341289 4.80244 0.454531L5.07482 2.0977C5.36013 3.81879 4.73833 5.03266 4.08005 6.31781C3.78232 6.89902 3.47447 7.50008 3.26415 8.14293C2.74974 9.71488 2.59876 11.6511 2.839 13.5949C3.12185 15.8834 3.93763 18.0409 5.19818 19.8341C5.2713 19.9381 5.39052 20 5.51775 20H14.4644C14.5916 20 14.7108 19.9382 14.784 19.8341C16.045 18.0409 16.8611 15.8835 17.1442 13.5949C17.3845 11.6512 17.2336 9.71496 16.7192 8.14289ZM5.84552 1.96992L5.64849 0.78125H14.3348L14.1378 1.96992C13.8243 3.86109 14.4621 5.21301 15.1199 6.50187C11.7166 5.63145 8.27427 5.63164 4.86314 6.5025C5.52103 5.21344 6.15908 3.86141 5.84552 1.96992ZM4.00665 8.38582C4.11216 8.06336 4.2454 7.75203 4.3931 7.44035C8.11404 6.36141 11.8793 6.36137 15.5901 7.44023C15.7378 7.75195 15.8711 8.06332 15.9767 8.38586C16.2139 9.1109 16.3758 9.96441 16.4394 10.8944C14.3849 10.7 12.5843 11.1699 10.9483 12.3256C10.2506 12.8183 9.73169 12.8182 9.03404 12.3257C7.39892 11.1698 5.59849 10.6998 3.54392 10.8943C3.60755 9.96434 3.76943 9.11086 4.00665 8.38582ZM3.51427 11.6825C5.4199 11.4818 7.08115 11.902 8.58326 12.9638C8.92345 13.204 9.2508 13.36 9.57423 13.4323C9.40119 14.6174 8.37869 15.5316 7.14986 15.5316C6.93412 15.5316 6.75923 15.7064 6.75923 15.9222C6.75923 16.1379 6.93412 16.3128 7.14986 16.3128C8.12802 16.3128 9.00693 15.8736 9.60048 15.1821V19.2188H5.72275C4.11615 16.848 3.49576 14.0754 3.51427 11.6825ZM14.2595 19.2188H10.3817V15.1808C10.9756 15.873 11.8551 16.3128 12.8335 16.3128C13.0492 16.3128 13.2241 16.1379 13.2241 15.9222C13.2241 15.7064 13.0492 15.5316 12.8335 15.5316C11.605 15.5316 10.5822 14.6173 10.4083 13.4322C10.7317 13.3598 11.059 13.2039 11.3991 12.9637C12.9019 11.902 14.5635 11.4817 16.469 11.6825C16.4874 14.0754 15.8667 16.8482 14.2595 19.2188Z" fill="#0B0B07"/>
</svg>
