<svg width="11" height="12" viewBox="0 0 11 12" fill="none" xmlns="http://www.w3.org/2000/svg">
<path d="M10.5417 10.5723H2.29167C1.92699 10.5723 1.57726 10.4275 1.31939 10.1696C1.06153 9.91174 0.916667 9.56201 0.916667 9.19733V0.958333C0.916667 0.836776 0.868378 0.720197 0.782424 0.634243C0.69647 0.548289 0.579891 0.5 0.458333 0.5C0.336776 0.5 0.220197 0.548289 0.134243 0.634243C0.0482886 0.720197 0 0.836776 0 0.958333L0 9.19733C0.000727768 9.8049 0.242404 10.3874 0.672017 10.817C1.10163 11.2466 1.6841 11.4883 2.29167 11.489H10.5417C10.6632 11.489 10.7798 11.4407 10.8658 11.3548C10.9517 11.2688 11 11.1522 11 11.0307C11 10.9091 10.9517 10.7925 10.8658 10.7066C10.7798 10.6206 10.6632 10.5723 10.5417 10.5723Z" fill="white"/>
</svg>
