<svg width="16" height="16" viewBox="0 0 16 16" fill="none" xmlns="http://www.w3.org/2000/svg">
<g clip-path="url(#clip0_1341_6796)">
<path d="M15.0625 9.75H0.9375C0.419719 9.75 0 10.1697 0 10.6875V15.0625C0 15.5803 0.419719 16 0.9375 16H15.0625C15.5803 16 16 15.5803 16 15.0625V10.6875C16 10.1697 15.5803 9.75 15.0625 9.75ZM4.44809 14.7086C4.37144 14.7881 4.26922 14.828 4.16694 14.828C4.06928 14.828 3.97156 14.7916 3.89575 14.7185L2.76562 13.6282V14.4374C2.76562 14.6531 2.59072 14.828 2.375 14.828C2.15928 14.828 1.98438 14.6531 1.98438 14.4374V11.3124C1.98438 11.0967 2.15928 10.9218 2.375 10.9218C2.59072 10.9218 2.76562 11.0967 2.76562 11.3124V12.0073L3.79169 11.0642C3.9505 10.9182 4.19759 10.9286 4.34363 11.0875C4.48962 11.2463 4.47922 11.4934 4.32037 11.6394L3.04475 12.8119L4.43816 14.1562C4.59344 14.306 4.59788 14.5534 4.44809 14.7086ZM7.88306 14.2472C7.8315 14.3088 7.7755 14.3665 7.71666 14.4189C7.41619 14.6865 7.02981 14.828 6.59937 14.828C5.52244 14.828 4.64628 13.9519 4.64628 12.8749C4.64628 11.7979 5.52244 10.9218 6.59937 10.9218C6.99075 10.9218 7.36847 11.0372 7.69166 11.2556C7.87044 11.3764 7.91744 11.6192 7.79663 11.7979C7.67588 11.9767 7.43306 12.0237 7.25428 11.9029C7.06075 11.7721 6.83428 11.703 6.59937 11.703C5.95322 11.703 5.42753 12.2287 5.42753 12.8749C5.42753 13.5211 5.95322 14.0468 6.59937 14.0468C6.83856 14.0468 7.03969 13.9757 7.19712 13.8354C7.22775 13.8082 7.25709 13.7779 7.28438 13.7453C7.42297 13.58 7.66934 13.5583 7.83466 13.6969C8 13.8356 8.02166 14.0819 7.88306 14.2472ZM11.3481 14.8029C11.3027 14.82 11.2561 14.8281 11.2102 14.8281C11.0524 14.8282 10.9038 14.7318 10.8447 14.5753L10.6505 14.0607H9.30444L9.10803 14.5764C9.03122 14.778 8.80553 14.8792 8.60394 14.8024C8.40234 14.7257 8.30116 14.5 8.37794 14.2983L9.55134 11.2173C9.55247 11.2144 9.55359 11.2115 9.55478 11.2086C9.62587 11.0346 9.79334 10.922 9.98131 10.9218H9.98194C10.1698 10.9218 10.3372 11.0339 10.4087 11.2076C10.4101 11.2111 10.4116 11.2147 10.4129 11.2184L11.5757 14.2995C11.6518 14.5013 11.5499 14.7267 11.3481 14.8029ZM13.6272 14.8254C13.2722 14.8274 13.0295 14.8282 12.8622 14.8282C12.5139 14.8282 12.4925 14.8246 12.4647 14.8198C12.2772 14.7876 12.1401 14.625 12.1401 14.4348V11.3124C12.1401 11.0967 12.315 10.9218 12.5307 10.9218C12.7464 10.9218 12.9213 11.0967 12.9213 11.3124V14.0468C13.1239 14.0465 13.3819 14.0455 13.6228 14.0442H13.625C13.8397 14.0442 14.0143 14.2176 14.0156 14.4326C14.0168 14.6483 13.8429 14.8242 13.6272 14.8254Z" fill="#7EA703"/>
<path d="M9.60156 13.2792H10.3553L9.98016 12.2852L9.60156 13.2792Z" fill="#7EA703"/>
<path d="M11.5938 0.46875C11.5938 0.209875 11.3839 0 11.125 0C10.8661 0 10.6562 0.209875 10.6562 0.46875V3.125H11.5938V0.46875Z" fill="#7EA703"/>
<path d="M13.4688 0.46875C13.4688 0.209875 13.2589 0 13 0C12.7411 0 12.5312 0.209875 12.5312 0.46875V3.125H13.4688V0.46875Z" fill="#7EA703"/>
<path d="M9.69312 6.3275C10.0027 6.53387 10.1875 6.87922 10.1875 7.25131V8.8125H12.0625V7.25131C12.0625 6.87925 12.2473 6.53391 12.5569 6.3275C13.1279 5.94687 13.4688 5.30994 13.4688 4.62369V4.0625H8.78125V4.62369C8.78125 5.30994 9.12212 5.94687 9.69312 6.3275Z" fill="#7EA703"/>
<path d="M9.71875 0.46875C9.71875 0.209875 9.50888 0 9.25 0C8.99112 0 8.78125 0.209875 8.78125 0.46875V3.125H9.71875V0.46875Z" fill="#7EA703"/>
<path d="M4.25 6.35531V8.8125H6.125V6.35531C6.49147 6.18625 6.82506 5.91678 7.10431 5.55775C7.58116 4.94469 7.84375 4.13619 7.84375 3.28125C7.84375 2.42631 7.58116 1.61781 7.10431 1.00472C6.60038 0.356813 5.91966 0 5.1875 0C4.45534 0 3.77463 0.356813 3.27069 1.00472C2.79384 1.61781 2.53125 2.42631 2.53125 3.28125C2.53125 4.13619 2.79384 4.94469 3.27069 5.55778C3.54994 5.91678 3.88353 6.18625 4.25 6.35531Z" fill="#7EA703"/>
</g>
<defs>
<clipPath id="clip0_1341_6796">
<rect width="16" height="16" fill="white"/>
</clipPath>
</defs>
</svg>
