<svg width="16" height="20" viewBox="0 0 16 20" fill="none" xmlns="http://www.w3.org/2000/svg">
<path d="M14.875 17.8438C14.7246 17.8437 14.5769 17.8045 14.4462 17.73L12.6875 16.7253C12.7036 14.9491 12.9592 13.1832 13.4475 11.4753L13.7288 10.4906C14.1116 9.15387 13.9625 7.72081 13.3125 6.49156V5.28375C13.3118 4.54087 13.4627 3.80566 13.7559 3.12313C14.0827 2.36283 14.2509 1.54381 14.25 0.71625V0.34375H13.625V0.71625C13.6257 1.45913 13.4748 2.19434 13.1816 2.87687C12.8548 3.63717 12.6866 4.45619 12.6875 5.28375V5.54688L12.6187 5.46094L12.1313 5.85156L12.2647 6.01875C12.7414 6.61451 13.0686 7.31574 13.2189 8.06383C13.3692 8.81191 13.3381 9.5851 13.1284 10.3187L12.8472 11.3034C12.3266 13.1255 12.0625 15.0113 12.0625 16.9062C12.0624 16.9612 12.0768 17.0152 12.1042 17.0629C12.1316 17.1105 12.1712 17.15 12.2188 17.1775L14.135 18.2712C14.3603 18.4004 14.6153 18.4685 14.875 18.4688C14.9579 18.4688 15.0374 18.5017 15.096 18.5603C15.1546 18.6189 15.1875 18.6984 15.1875 18.7812C15.1875 18.8641 15.1546 18.9436 15.096 19.0022C15.0374 19.0608 14.9579 19.0938 14.875 19.0938H10.1875C10.0714 19.0938 9.95765 19.0614 9.85892 19.0004C9.76018 18.9394 9.68039 18.8521 9.62848 18.7483C9.57658 18.6444 9.5546 18.5282 9.56502 18.4126C9.57545 18.297 9.61786 18.1866 9.6875 18.0938L9.875 17.8438C10.2794 17.3022 10.4986 16.6447 10.5 15.9688C10.5 15.9558 10.4991 15.9429 10.4975 15.93L10.1012 12.7597C10.3104 12.8577 10.5494 12.8706 10.7678 12.7955C10.9862 12.7204 11.1669 12.5634 11.2716 12.3575L12.0591 10.7972L11.5012 10.5159L10.7137 12.0766C10.692 12.1138 10.6618 12.1454 10.6255 12.1688C10.5893 12.1922 10.548 12.2066 10.5051 12.211C10.4622 12.2155 10.4188 12.2097 10.3786 12.1942C10.3383 12.1787 10.3023 12.1539 10.2734 12.1219C9.61491 11.3063 9.25491 10.2901 9.25312 9.24188V8.88281C9.25304 8.22828 9.35954 7.57811 9.56844 6.95781C9.63611 6.75983 9.76417 6.58807 9.93459 6.4667C10.105 6.34532 10.3092 6.28047 10.5184 6.28125V5.65625C10.1838 5.65616 9.85727 5.75905 9.58313 5.95094C9.57218 5.87626 9.5653 5.80105 9.5625 5.72563C9.56253 5.5063 9.59788 5.2884 9.66719 5.08031C9.8049 4.6675 9.87507 4.23517 9.875 3.8C9.87474 3.53373 9.81281 3.27114 9.69406 3.03281L9.46375 2.57188C9.11844 1.87984 8.93831 1.11715 8.9375 0.34375H8.3125C8.31393 1.21434 8.51717 2.07275 8.90625 2.85156L9.13656 3.3125C9.21155 3.46405 9.25038 3.63092 9.25 3.8C9.25013 4.16794 9.19083 4.53348 9.07437 4.8825C8.89381 5.42079 8.89184 6.003 9.06875 6.5425C9.03229 6.6121 9.00095 6.68427 8.975 6.75844C8.74425 7.44315 8.62666 8.16089 8.62688 8.88344V9.24188C8.62962 10.1772 8.88369 11.0946 9.3625 11.8981L9.875 15.9878C9.86966 16.522 9.69456 17.0406 9.375 17.4688L9.1875 17.7188C9.04822 17.9045 8.9634 18.1253 8.94255 18.3565C8.9217 18.5877 8.96565 18.8201 9.06947 19.0278C9.17328 19.2354 9.33287 19.41 9.53034 19.5321C9.72781 19.6541 9.95536 19.7188 10.1875 19.7188H14.875C15.1236 19.7188 15.3621 19.62 15.5379 19.4442C15.7137 19.2683 15.8125 19.0299 15.8125 18.7812C15.8125 18.5326 15.7137 18.2942 15.5379 18.1183C15.3621 17.9425 15.1236 17.8438 14.875 17.8438Z" fill="#0B0B07"/>
<path d="M10.8189 5.09375L11.4314 4.97125L11.2723 4.17469C11.0761 3.19378 11.0761 2.18372 11.2723 1.20281L11.4314 0.40625L10.8189 0.28125L10.6595 1.0775C10.4468 2.13988 10.4468 3.23387 10.6595 4.29625L10.8189 5.09375Z" fill="#0B0B07"/>
<path d="M7.09531 2.85156C7.48385 2.07262 7.68655 1.21422 7.6875 0.34375H7.0625C7.06169 1.11715 6.88156 1.87984 6.53625 2.57188L6.30594 3.03281C6.18719 3.27114 6.12526 3.53373 6.125 3.8C6.12483 4.23549 6.195 4.66814 6.33281 5.08125C6.40202 5.28904 6.43737 5.50661 6.4375 5.72563C6.4347 5.80105 6.42782 5.87626 6.41687 5.95094C6.14274 5.75905 5.81619 5.65616 5.48156 5.65625V6.28125C5.69079 6.28047 5.89498 6.34532 6.06541 6.4667C6.23583 6.58807 6.36389 6.75983 6.43156 6.95781C6.64046 7.57811 6.74696 8.22828 6.74687 8.88281V9.24125C6.74509 10.2895 6.38509 11.3057 5.72656 12.1213C5.69769 12.1533 5.66166 12.1781 5.62141 12.1936C5.58115 12.2091 5.53781 12.2148 5.4949 12.2104C5.45199 12.206 5.41073 12.1915 5.37447 12.1682C5.33822 12.1448 5.30799 12.1132 5.28625 12.0759L4.5 10.5153L3.94219 10.7966L4.72969 12.3569C4.83436 12.5627 5.01501 12.7198 5.23343 12.7949C5.45184 12.8699 5.69089 12.8571 5.9 12.7591L5.5025 15.93C5.50088 15.9429 5.50004 15.9558 5.5 15.9688C5.50141 16.6447 5.72057 17.3022 6.125 17.8438L6.3125 18.0938C6.38214 18.1866 6.42455 18.297 6.43497 18.4126C6.4454 18.5282 6.42343 18.6444 6.37152 18.7483C6.31961 18.8521 6.23982 18.9394 6.14108 19.0004C6.04235 19.0614 5.92857 19.0938 5.8125 19.0938H1.125C1.04212 19.0938 0.962634 19.0608 0.904029 19.0022C0.845424 18.9436 0.8125 18.8641 0.8125 18.7812C0.8125 18.6984 0.845424 18.6189 0.904029 18.5603C0.962634 18.5017 1.04212 18.4688 1.125 18.4688C1.38412 18.4687 1.63874 18.401 1.86375 18.2725L3.78 17.1788C3.82801 17.1513 3.86789 17.1116 3.89556 17.0638C3.92323 17.0159 3.9377 16.9615 3.9375 16.9062C3.93754 15.0113 3.67343 13.1255 3.15281 11.3034L2.87156 10.3187C2.662 9.58516 2.63103 8.81207 2.78123 8.06407C2.93144 7.31607 3.25847 6.61487 3.735 6.01906L3.86875 5.85156L3.38125 5.46094L3.3125 5.54656V5.28375C3.31328 4.4564 3.14516 3.6376 2.81844 2.8775C2.52509 2.19477 2.37419 1.45934 2.375 0.71625V0.34375H1.75V0.71625C1.74922 1.5436 1.91734 2.3624 2.24406 3.1225C2.53741 3.80523 2.68831 4.54066 2.6875 5.28375V6.49125C2.03702 7.72065 1.88752 9.15408 2.27031 10.4913L2.55156 11.4759C3.04009 13.1836 3.29605 14.9493 3.3125 16.7253L1.55469 17.73C1.42378 17.8046 1.27568 17.8438 1.125 17.8438C0.87636 17.8438 0.637903 17.9425 0.462087 18.1183C0.286272 18.2942 0.1875 18.5326 0.1875 18.7812C0.1875 19.0299 0.286272 19.2683 0.462087 19.4442C0.637903 19.62 0.87636 19.7188 1.125 19.7188H5.8125C6.04464 19.7188 6.27219 19.6541 6.46966 19.5321C6.66713 19.41 6.82672 19.2354 6.93053 19.0278C7.03435 18.8201 7.0783 18.5877 7.05745 18.3565C7.0366 18.1253 6.95178 17.9045 6.8125 17.7188L6.625 17.4688C6.30545 17.0406 6.13034 16.522 6.125 15.9878L6.63625 11.8978C7.11506 11.0943 7.36913 10.1769 7.37187 9.24156V8.88281C7.37209 8.16027 7.2545 7.44252 7.02375 6.75781C6.9978 6.68365 6.96646 6.61148 6.93 6.54187C7.10691 6.00248 7.10494 5.42037 6.92438 4.88219C6.80844 4.53318 6.74956 4.16776 6.75 3.8C6.75011 3.63079 6.78947 3.46392 6.865 3.3125L7.09531 2.85156Z" fill="#0B0B07"/>
<path d="M4.56836 4.96875L5.18086 5.09125L5.34023 4.295C5.446 3.7657 5.49938 3.22727 5.49961 2.6875C5.49946 2.14732 5.44608 1.60846 5.34023 1.07875L5.18086 0.28125L4.56836 0.40625L4.72742 1.20281C4.82522 1.69166 4.87452 2.18897 4.87461 2.6875C4.8746 3.18645 4.8253 3.68418 4.72742 4.17344L4.56836 4.96875Z" fill="#0B0B07"/>
</svg>
