<svg width="18" height="24" viewBox="0 0 18 24" fill="none" xmlns="http://www.w3.org/2000/svg">
<path d="M16.9946 7.56149L9.50393 0.206131C9.22378 -0.0687104 8.77572 -0.0687104 8.49557 0.206131L1.00508 7.56149C0.54677 8.01138 0.866106 8.79415 1.50917 8.79415H4.48025L4.13674 10.4084C2.83614 9.62472 1.24916 10.6096 1.24916 12.0708V13.9325C1.24916 15.4319 1.79134 16.5807 2.65798 17.3617L1.92592 20.802C1.57527 22.4505 2.83339 24 4.51522 24H13.4843C15.1696 24 16.4235 22.4471 16.0736 20.802L15.3397 17.3516C16.3312 16.4467 16.7503 15.2466 16.7503 13.9325V12.0708C16.7503 10.5965 15.1487 9.63131 13.8628 10.4084L13.5193 8.79415H16.4903C17.1323 8.79434 17.4535 8.01193 16.9946 7.56149ZM5.09237 18.9351C5.08834 18.9708 5.09603 18.7394 4.98781 22.561H4.51522C3.74636 22.561 3.17397 21.8523 3.33382 21.1012L3.94869 18.2104C4.22225 18.3365 4.5143 18.4449 4.82375 18.5346C4.99734 18.5854 5.11049 18.7538 5.09237 18.9351ZM13.4843 22.561H13.0113C12.9031 18.7342 12.9108 18.966 12.9068 18.9303C12.889 18.7494 13.0007 18.5815 13.173 18.5308C13.4828 18.4396 13.7754 18.3303 14.0493 18.203L14.6657 21.1012C14.8259 21.8534 14.252 22.561 13.4843 22.561ZM14.3707 13.9326C14.3707 13.2746 14.3707 12.7002 14.3707 12.0445C14.3707 11.7903 14.5774 11.5797 14.8316 11.5744C15.0947 11.5689 15.3113 11.8061 15.3113 12.071V13.9326C15.3113 15.6311 14.3886 16.6728 12.7658 17.1502C11.9402 17.3939 11.4 18.1878 11.4725 19.0455L11.5717 22.561H6.42776L6.52663 19.0503C6.59951 18.1891 6.05605 17.3944 5.22512 17.1531C3.54073 16.6626 2.68819 15.5806 2.68819 13.9326V12.071C2.68819 11.8035 2.90755 11.5689 3.16793 11.5744C3.42208 11.5797 3.62844 11.7903 3.62844 12.0445V13.9326C3.62844 15.2554 4.70492 16.3328 6.02914 16.3328H7.3334C7.64028 16.3328 7.91329 16.1382 8.01364 15.8483C8.11379 15.5583 8.01876 15.2367 7.77761 15.0474C7.34438 14.7072 7.09536 14.1969 7.09536 13.6476C7.09536 12.6187 7.96475 11.7978 9.01083 11.8747C9.89157 11.9399 10.6115 12.6835 10.6504 13.567C10.6758 14.1483 10.4277 14.688 9.97012 15.0474C9.72879 15.2367 9.63394 15.5586 9.7341 15.8483C9.83444 16.1382 10.1078 16.3328 10.4143 16.3328H11.9704C13.2939 16.3328 14.3707 15.2567 14.3707 13.9326ZM12.6308 7.35531C12.1725 7.35531 11.8319 7.77792 11.9268 8.22433L12.9317 12.9488V13.9326C12.9317 14.4626 12.5005 14.8938 11.9704 14.8938H11.838C12.0207 14.4598 12.109 13.9857 12.0879 13.5038C12.0165 11.8771 10.7395 10.56 9.11721 10.4395C7.19039 10.2967 5.65633 11.8328 5.65633 13.6476C5.65633 14.0802 5.74184 14.4995 5.90243 14.8857C5.43185 14.8233 5.06746 14.4193 5.06746 13.9326C5.06746 12.6624 4.91494 13.6677 6.07271 8.22433C6.16756 7.77792 5.8268 7.35531 5.36867 7.35531H3.269L8.99984 1.72811L14.7305 7.35531H12.6308Z" fill="#0B0B07"/>
</svg>
