<svg width="22" height="22" viewBox="0 0 22 22" fill="none" xmlns="http://www.w3.org/2000/svg">
<path d="M3.55287 12.8237C4.31984 9.09561 7.52603 6.44669 11.1326 6.44669C14.738 6.44669 17.9442 9.09561 18.7123 12.8237C18.7427 12.9716 18.8299 13.1013 18.9548 13.1841C19.0796 13.2669 19.2319 13.2962 19.378 13.2654C19.5242 13.2346 19.6523 13.1463 19.7341 13.0199C19.8159 12.8935 19.8448 12.7394 19.8144 12.5915C18.9406 8.35114 15.2857 5.30835 11.1326 5.30835C6.97949 5.30835 3.32458 8.35114 2.45078 12.5915C2.42036 12.7394 2.44924 12.8935 2.53107 13.0199C2.6129 13.1463 2.74097 13.2346 2.88712 13.2654C3.03327 13.2962 3.18551 13.2669 3.31036 13.1841C3.43522 13.1013 3.52245 12.9716 3.55287 12.8237ZM11.1213 8.72338C12.1652 8.72338 13.1664 9.14314 13.9045 9.89032C14.6427 10.6375 15.0574 11.6509 15.0574 12.7076C15.0574 13.7642 14.6427 14.7776 13.9045 15.5248C13.1664 16.272 12.1652 16.6918 11.1213 16.6918C10.0774 16.6918 9.07628 16.272 8.33813 15.5248C7.59998 14.7776 7.18529 13.7642 7.18529 12.7076C7.18529 11.6509 7.59998 10.6375 8.33813 9.89032C9.07628 9.14314 10.0774 8.72338 11.1213 8.72338Z" fill="#6A707C"/>
</svg>
