<svg width="20" height="24" viewBox="0 0 20 24" fill="none" xmlns="http://www.w3.org/2000/svg">
<path d="M10 10C8.07 10 6.5 11.57 6.5 13.5C6.5 15.43 8.07 17 10 17C11.93 17 13.5 15.43 13.5 13.5C13.5 11.57 11.93 10 10 10ZM10 15C9.173 15 8.5 14.327 8.5 13.5C8.5 12.673 9.173 12 10 12C10.827 12 11.5 12.673 11.5 13.5C11.5 14.327 10.827 15 10 15ZM17.949 5.536L14.465 2.05C13.142 0.728 11.384 0 9.515 0H5C2.243 0 0 2.243 0 5V19C0 21.757 2.243 24 5 24H15C17.757 24 20 21.757 20 19V10.485C20 8.614 19.271 6.858 17.949 5.536ZM16.535 6.951C16.853 7.268 17.122 7.621 17.34 8.001H12.999C12.447 8.001 11.999 7.552 11.999 7.001V2.659C12.379 2.877 12.732 3.146 13.05 3.464L16.534 6.95L16.535 6.951ZM7.172 22.001C7.585 20.837 8.696 20.001 10 20.001C11.304 20.001 12.415 20.837 12.828 22.001H7.172ZM18 19.001C18 20.655 16.654 22.001 15 22.001H14.899C14.434 19.722 12.414 18.001 10 18.001C7.586 18.001 5.565 19.722 5.101 22.001H5C3.346 22.001 2 20.655 2 19.001V5C2 3.346 3.346 2 5 2H9.515C9.678 2 9.84 2.008 10 2.023V7C10 8.654 11.346 10 13 10H17.977C17.992 10.16 18 10.322 18 10.485V19.001Z" fill="#1A1B10"/>
</svg>
