<svg width="20" height="20" viewBox="0 0 20 20" fill="none" xmlns="http://www.w3.org/2000/svg">
<path d="M19.3437 6.88531C18.9984 6.26371 18.2145 6.03973 17.5929 6.38508L15.5502 7.51996L14.2036 5.46059C14.1638 5.46199 14.124 5.46363 14.0839 5.46363C12.7276 5.46363 11.5595 4.6452 11.0456 3.4766C9.46668 3.47648 6.80211 3.47633 6.80211 3.47633C6.33281 3.47633 5.9007 3.73168 5.6743 4.14273L4.04344 7.10406C3.70043 7.72695 3.92727 8.50996 4.55012 8.85297C4.74707 8.96144 4.96004 9.01293 5.17008 9.01293C5.62418 9.01293 6.06449 8.77219 6.29902 8.34629L7.56289 6.05137H9.99453L6.28195 12.532H1.7807C1.06965 12.532 0.493164 13.1084 0.493164 13.8195C0.493164 14.5305 1.06961 15.107 1.7807 15.107H7.01668C7.47203 15.107 7.89352 14.8666 8.12516 14.4745L9.05004 12.9093L11.385 14.7491L9.98508 18.2319C9.71988 18.8917 10.0397 19.6415 10.6995 19.9067C10.857 19.97 11.0194 20 11.1793 20C11.6895 20 12.1724 19.6947 12.3743 19.1923L14.1339 14.8146C14.3471 14.2843 14.1852 13.6769 13.7362 13.3231L11.1471 11.2833L12.9372 8.22914L14.0505 9.93187C14.2964 10.3078 14.7075 10.515 15.1291 10.515C15.3411 10.515 15.5559 10.4625 15.7534 10.3528L18.8435 8.63605C19.4651 8.29078 19.6891 7.50691 19.3437 6.88531Z" fill="#0B0B07"/>
<path d="M14.0838 4.2918C15.269 4.2918 16.2297 3.33105 16.2297 2.1459C16.2297 0.960752 15.269 0 14.0838 0C12.8987 0 11.9379 0.960752 11.9379 2.1459C11.9379 3.33105 12.8987 4.2918 14.0838 4.2918Z" fill="#0B0B07"/>
</svg>
