<svg width="35" height="35" viewBox="0 0 35 35" fill="none" xmlns="http://www.w3.org/2000/svg">
<path fill-rule="evenodd" clip-rule="evenodd" d="M1.1 11C1.39174 11 1.67153 10.8841 1.87782 10.6778C2.08411 10.4715 2.2 10.1917 2.2 9.9V4.873C2.2 4.16408 2.48162 3.48419 2.9829 2.9829C3.48419 2.48162 4.16408 2.2 4.873 2.2H9.9C10.1917 2.2 10.4715 2.08411 10.6778 1.87782C10.8841 1.67153 11 1.39174 11 1.1C11 0.808262 10.8841 0.528472 10.6778 0.322183C10.4715 0.115892 10.1917 0 9.9 0H4.873C4.23307 0 3.5994 0.126044 3.00818 0.370935C2.41696 0.615826 1.87977 0.974769 1.42727 1.42727C0.513404 2.34113 0 3.5806 0 4.873V9.9C0 10.1917 0.115892 10.4715 0.322183 10.6778C0.528472 10.8841 0.808262 11 1.1 11ZM29.684 0H24.2C23.8817 0 23.5765 0.115892 23.3515 0.322183C23.1264 0.528472 23 0.808262 23 1.1C23 1.39174 23.1264 1.67153 23.3515 1.87782C23.5765 2.08411 23.8817 2.2 24.2 2.2H29.684C30.4574 2.2 31.1991 2.48162 31.7459 2.9829C32.2928 3.48419 32.6 4.16408 32.6 4.873V9.9C32.6 10.1917 32.7264 10.4715 32.9515 10.6778C33.1765 10.8841 33.4817 11 33.8 11C34.1183 11 34.4235 10.8841 34.6485 10.6778C34.8736 10.4715 35 10.1917 35 9.9V4.873C35 4.23307 34.8625 3.5994 34.5953 3.00818C34.3282 2.41696 33.9366 1.87977 33.443 1.42727C32.9493 0.974769 32.3633 0.615826 31.7183 0.370935C31.0734 0.126044 30.3821 0 29.684 0ZM32.9515 24.3222C33.1765 24.1159 33.4817 24 33.8 24C34.1183 24 34.4235 24.1159 34.6485 24.3222C34.8736 24.5285 35 24.8083 35 25.1V30.127C35 31.4194 34.4399 32.6589 33.443 33.5727C32.446 34.4866 31.0939 35 29.684 35H24.2C23.8817 35 23.5765 34.8841 23.3515 34.6778C23.1264 34.4715 23 34.1917 23 33.9C23 33.6083 23.1264 33.3285 23.3515 33.1222C23.5765 32.9159 23.8817 32.8 24.2 32.8H29.684C30.4574 32.8 31.1991 32.5184 31.7459 32.0171C32.2928 31.5158 32.6 30.8359 32.6 30.127V25.1C32.6 24.8083 32.7264 24.5285 32.9515 24.3222ZM4.873 35H9.9C10.1917 35 10.4715 34.8841 10.6778 34.6778C10.8841 34.4715 11 34.1917 11 33.9C11 33.6083 10.8841 33.3285 10.6778 33.1222C10.4715 32.9159 10.1917 32.8 9.9 32.8H4.873C4.16408 32.8 3.48419 32.5184 2.9829 32.0171C2.48162 31.5158 2.2 30.8359 2.2 30.127V25.1C2.2 24.8083 2.08411 24.5285 1.87782 24.3222C1.67153 24.1159 1.39174 24 1.1 24C0.808262 24 0.528472 24.1159 0.322183 24.3222C0.115892 24.5285 0 24.8083 0 25.1V30.127C0 31.4194 0.513404 32.6589 1.42727 33.5727C1.87977 34.0252 2.41696 34.3842 3.00818 34.6291C3.5994 34.874 4.23307 35 4.873 35ZM18.5923 13.8138C20.1342 13.4188 22.4645 12.8219 24.3668 15.528C25.2758 16.8212 25.5506 18.5714 25.1614 20.5896C24.7015 22.9732 23.3191 25.4447 21.9457 26.3385C21.1788 26.8375 20.4669 27 19.8395 27C19.0972 27 18.4731 26.7726 18.0158 26.6061L18.0155 26.606L18.0146 26.6056C17.8103 26.5312 17.5564 26.4388 17.4596 26.4388C17.3627 26.4388 17.1083 26.5315 16.9037 26.606C16.0599 26.9134 14.6475 27.4279 12.9736 26.3385C11.6002 25.4447 10.2177 22.9732 9.7579 20.5896C9.36855 18.5715 9.64327 16.8213 10.5523 15.5281C12.4545 12.8221 14.7848 13.4189 16.3268 13.8138L16.3269 13.8139C16.5161 13.8623 16.7007 13.9096 16.8725 13.9476C16.8924 13.7356 16.9211 13.5278 16.9592 13.3244C15.7824 13.2207 14.8525 12.8355 14.1897 12.1727C13.3845 11.3675 12.9873 10.1695 13.0091 8.61175L13.0175 8.00928L13.6199 8.00086C15.1776 7.97896 16.3758 8.37629 17.1809 9.18142C17.5991 9.5996 17.9063 10.1246 18.1028 10.75C18.6309 10.0614 19.3232 9.45569 20.1792 8.93694L20.8214 9.99671C19.2027 10.9778 18.3139 12.2697 18.12 13.931C18.2701 13.8963 18.4288 13.8557 18.5908 13.8142L18.5923 13.8138Z" fill="#484940"/>
</svg>
