<svg width="18" height="18" viewBox="0 0 18 18" fill="none" xmlns="http://www.w3.org/2000/svg">
<path d="M12.9587 15.0416H2.12533C0.958659 15.0416 0.0419922 14.125 0.0419922 12.9583V2.12496C0.0419922 0.958293 0.958659 0.041626 2.12533 0.041626H12.9587C14.1253 0.041626 15.042 0.958293 15.042 2.12496V12.9583C15.042 14.0416 14.042 15.0416 12.9587 15.0416ZM2.12533 1.70829C1.87533 1.70829 1.70866 1.87496 1.70866 2.12496V12.9583C1.70866 13.2083 1.87533 13.375 2.12533 13.375H12.9587C13.2087 13.375 13.3753 13.2083 13.3753 12.9583V2.12496C13.3753 1.87496 13.2087 1.70829 12.9587 1.70829H2.12533Z" fill="#0B0B07"/>
<path d="M16.2917 17.9583H4.20833C3.70833 17.9583 3.375 17.625 3.375 17.125C3.375 16.625 3.70833 16.2917 4.20833 16.2917H16.2917V4.20833C16.2917 3.70833 16.625 3.375 17.125 3.375C17.625 3.375 17.9583 3.70833 17.9583 4.20833V16.2917C17.9583 17.2083 17.2083 17.9583 16.2917 17.9583Z" fill="#0B0B07"/>
<path d="M6.70913 10.4583C6.54246 10.4583 6.29246 10.3749 6.12579 10.2083L3.62579 7.87492C3.29246 7.54159 3.29246 7.04159 3.54246 6.70825C3.87579 6.37492 4.37579 6.37492 4.70913 6.62492L6.62579 8.37492L10.2091 4.70825C10.5425 4.37492 11.0425 4.37492 11.3758 4.70825C11.7091 5.04159 11.7091 5.54159 11.3758 5.87492L7.20913 10.1249C7.12579 10.3749 6.87579 10.4583 6.70913 10.4583Z" fill="#0B0B07"/>
</svg>
