<svg width="35" height="35" viewBox="0 0 35 35" fill="none" xmlns="http://www.w3.org/2000/svg">
<path fill-rule="evenodd" clip-rule="evenodd" d="M2.7725 9.29358V3.98296C2.7725 3.25009 3.36728 2.65531 4.10015 2.65531H9.41077C10.1436 2.65531 10.7384 2.06052 10.7384 1.32765C10.7384 0.594786 10.1436 0 9.41077 0H4.10015C1.90023 0 0.117188 1.78304 0.117188 3.98296V9.29358C0.117188 10.0264 0.711974 10.6212 1.44484 10.6212C2.17771 10.6212 2.7725 10.0264 2.7725 9.29358ZM0.117188 25.7063V31.0169C0.117188 33.2169 1.90023 34.9999 4.10015 34.9999H9.41077C10.1436 34.9999 10.7384 34.4051 10.7384 33.6722C10.7384 32.9394 10.1436 32.3446 9.41077 32.3446H4.10015C3.36728 32.3446 2.7725 31.7498 2.7725 31.0169V25.7063C2.7725 24.9734 2.17771 24.3787 1.44484 24.3787C0.711974 24.3787 0.117188 24.9734 0.117188 25.7063ZM34.8829 3.98296V9.29358C34.8829 10.0264 34.2882 10.6212 33.5553 10.6212C32.8224 10.6212 32.2276 10.0264 32.2276 9.29358V3.98296C32.2276 3.25009 31.6329 2.65531 30.9 2.65531H25.5894C24.8565 2.65531 24.2617 2.06052 24.2617 1.32765C24.2617 0.594786 24.8565 0 25.5894 0H30.9C33.0999 0 34.8829 1.78304 34.8829 3.98296ZM32.2276 25.7063V31.0169C32.2276 31.7498 31.6329 32.3446 30.9 32.3446H25.5894C24.8565 32.3446 24.2617 32.9394 24.2617 33.6722C24.2617 34.4051 24.8565 34.9999 25.5894 34.9999H30.9C33.0999 34.9999 34.8829 33.2169 34.8829 31.0169V25.7063C34.8829 24.9734 34.2882 24.3787 33.5553 24.3787C32.8224 24.3787 32.2276 24.9734 32.2276 25.7063ZM20.7442 22.6923L20.7255 12.3077H26.5833C26.8925 12.3077 27.19 12.3683 27.4082 12.4767C27.6275 12.5846 27.75 12.7317 27.75 12.8846V22.1154C27.75 22.2683 27.6275 22.4154 27.4082 22.5233C27.19 22.6317 26.8925 22.6923 26.5833 22.6923H20.7442ZM16.0833 24.4237L16.0775 22.6923L7.91667 22.6923C7.6075 22.6923 7.31 22.6317 7.09183 22.5233C6.8725 22.4154 6.75 22.2683 6.75 22.1154L6.75 12.8846C6.75 12.7317 6.8725 12.5846 7.09183 12.4767C7.31 12.3683 7.6075 12.3077 7.91667 12.3077L16.0588 12.3077L16.053 10.5775C16.053 10.259 16.5745 10.0006 17.2185 10C17.8625 10 18.3863 10.2579 18.3863 10.5763L18.4167 24.4225C18.4178 24.741 17.8952 24.9994 17.2512 25C16.6072 25 16.0845 24.7421 16.0833 24.4237Z" fill="#484940"/>
</svg>
