<svg width="24" height="24" viewBox="0 0 24 24" fill="none" xmlns="http://www.w3.org/2000/svg">
<path d="M20.2175 8.10819L18.5785 6.46841L19.2898 5.75707C19.3616 5.68778 19.4188 5.60489 19.4582 5.51325C19.4975 5.4216 19.5182 5.32304 19.5191 5.2233C19.52 5.12356 19.501 5.02465 19.4632 4.93233C19.4254 4.84002 19.3697 4.75615 19.2991 4.68562C19.2286 4.61509 19.1447 4.55932 19.0524 4.52155C18.9601 4.48378 18.8612 4.46477 18.7615 4.46564C18.6617 4.46651 18.5631 4.48723 18.4715 4.5266C18.3799 4.56596 18.297 4.62319 18.2277 4.69493L17.5163 5.40628L15.8766 3.76725C15.3597 3.27474 14.6732 3 13.9592 3C13.2453 3 12.5587 3.27474 12.0419 3.76725C11.7899 4.01902 11.59 4.31796 11.4537 4.64701C11.3173 4.97607 11.2471 5.32877 11.2471 5.68496C11.2471 6.04115 11.3173 6.39385 11.4537 6.7229C11.59 7.05195 11.7899 7.3509 12.0419 7.60266L13.6809 9.24169L9.25361 13.669L7.61383 12.03C7.09699 11.5375 6.41044 11.2627 5.69651 11.2627C4.98257 11.2627 4.29602 11.5375 3.77918 12.03C3.52721 12.2817 3.32732 12.5807 3.19095 12.9097C3.05457 13.2388 2.98438 13.5915 2.98438 13.9477C2.98438 14.3039 3.05457 14.6566 3.19095 14.9856C3.32732 15.3147 3.52721 15.6136 3.77918 15.8654L5.4182 17.5044L4.70686 18.2158C4.63511 18.2851 4.57789 18.3679 4.53852 18.4596C4.49915 18.5512 4.47843 18.6498 4.47757 18.7495C4.4767 18.8493 4.4957 18.9482 4.53347 19.0405C4.57124 19.1328 4.62702 19.2167 4.69755 19.2872C4.76807 19.3577 4.85194 19.4135 4.94426 19.4513C5.03657 19.489 5.13548 19.5081 5.23522 19.5072C5.33496 19.5063 5.43353 19.4856 5.52517 19.4462C5.61681 19.4069 5.6997 19.3496 5.76899 19.2779L6.48034 18.5665L8.12011 20.2056C8.37186 20.4574 8.67076 20.6572 8.99974 20.7935C9.32873 20.9298 9.68134 21 10.0374 21C10.3935 21 10.7462 20.9298 11.0751 20.7935C11.4041 20.6572 11.703 20.4574 11.9548 20.2056C12.2067 19.9539 12.4066 19.655 12.543 19.326C12.6793 18.997 12.7495 18.6444 12.7495 18.2882C12.7495 17.9321 12.6793 17.5795 12.543 17.2505C12.4066 16.9215 12.2067 16.6226 11.9548 16.3709L10.3157 14.7319L14.7476 10.3038L16.3866 11.9428C16.6383 12.1947 16.9372 12.3945 17.2662 12.5308C17.5952 12.6671 17.9478 12.7373 18.3039 12.7373C18.66 12.7373 19.0126 12.6671 19.3416 12.5308C19.6706 12.3945 19.9695 12.1947 20.2213 11.9428C20.4732 11.6911 20.6731 11.3923 20.8094 11.0633C20.9458 10.7343 21.016 10.3816 21.016 10.0255C21.016 9.66939 20.9458 9.31675 20.8094 8.98776C20.6731 8.65877 20.4732 8.35989 20.2213 8.10819H20.2175ZM11.2472 18.2886C11.2475 18.4475 11.2163 18.6048 11.1555 18.7515C11.0946 18.8982 11.0053 19.0315 10.8926 19.1434C10.6624 19.3637 10.3561 19.4866 10.0374 19.4866C9.71882 19.4866 9.41249 19.3637 9.18225 19.1434L4.84131 14.8025C4.6145 14.5757 4.48708 14.2681 4.48708 13.9473C4.48708 13.6265 4.6145 13.3189 4.84131 13.0921C5.06812 12.8653 5.37575 12.7379 5.69651 12.7379C6.01726 12.7379 6.32489 12.8653 6.5517 13.0921L10.8926 17.4331C11.0054 17.5451 11.0948 17.6785 11.1556 17.8253C11.2165 17.9722 11.2476 18.1297 11.2472 18.2886ZM19.1554 10.8807C18.9251 11.101 18.6188 11.2239 18.3002 11.2239C17.9815 11.2239 17.6752 11.101 17.445 10.8807L13.104 6.53977C12.9917 6.42747 12.9026 6.29414 12.8419 6.14741C12.7811 6.00067 12.7498 5.84341 12.7498 5.68458C12.7498 5.36382 12.8772 5.0562 13.104 4.82939C13.3309 4.60258 13.6385 4.47516 13.9592 4.47516C14.28 4.47516 14.5876 4.60258 14.8144 4.82939L19.1554 9.17033C19.2678 9.28258 19.3569 9.41589 19.4178 9.56263C19.4786 9.70937 19.5099 9.86666 19.5099 10.0255C19.5099 10.1844 19.4786 10.3417 19.4178 10.4884C19.3569 10.6352 19.2678 10.7685 19.1554 10.8807Z" fill="black"/>
</svg>
