<svg width="24" height="24" viewBox="0 0 24 24" fill="none" xmlns="http://www.w3.org/2000/svg">
<path d="M5.73828 7.77051H17.2166C17.7083 7.77051 18.1072 7.3716 18.1072 6.87988C18.1072 6.38816 17.7083 5.98926 17.2166 5.98926H5.73828C5.24656 5.98926 4.84766 6.38816 4.84766 6.87988C4.84766 7.3716 5.24656 7.77051 5.73828 7.77051Z" fill="#0B0B07"/>
<path d="M13.4412 12.4326C13.4412 11.9409 13.0423 11.542 12.5506 11.542H5.73828C5.24656 11.542 4.84766 11.9409 4.84766 12.4326C4.84766 12.9243 5.24656 13.3232 5.73828 13.3232H12.5506C13.0423 13.3232 13.4412 12.9243 13.4412 12.4326Z" fill="#0B0B07"/>
<path d="M22.8108 15.1739C22.9064 14.1272 22.9706 12.9075 22.972 11.4858C22.9692 8.81063 22.7447 6.85172 22.5052 5.41219C22.0861 3.04031 19.9317 0.885937 17.5598 0.466875C16.1203 0.227344 14.1614 0.0028125 11.4858 0C8.81063 0.0028125 6.85125 0.227344 5.41172 0.466875C3.04031 0.885937 0.885937 3.04031 0.466875 5.41219C0.227344 6.85172 0.00328125 8.81063 0 11.4858C0.00328125 14.1609 0.227344 16.1203 0.466875 17.5598C0.885937 19.9317 3.04031 22.0861 5.41219 22.5052C6.85172 22.7447 8.81063 22.9688 11.4862 22.972C12.9075 22.9706 14.1272 22.9064 15.1734 22.8108C16.1034 23.5547 17.2828 24 18.5662 24C21.5672 24 24.0005 21.5672 24.0005 18.5662C24.0005 17.2828 23.5552 16.1034 22.8113 15.1739H22.8108ZM11.4862 21.1908C9.37594 21.1884 7.48781 21.0441 5.71453 20.7497C4.92656 20.6086 4.12828 20.1666 3.46688 19.5052C2.80547 18.8438 2.36391 18.0459 2.22234 17.2575C1.92797 15.4861 1.78406 13.598 1.78125 11.4858C1.78359 9.37453 1.92797 7.48641 2.22234 5.71406C2.36344 4.92609 2.80547 4.12828 3.46688 3.46688C4.12828 2.80547 4.92609 2.36391 5.71453 2.22234C7.48688 1.92797 9.375 1.78406 11.4862 1.78125C13.5966 1.78359 15.4847 1.92797 17.258 2.22234C18.0459 2.36344 18.8438 2.80547 19.5056 3.46688C20.167 4.12828 20.6086 4.92609 20.7502 5.71453C21.0445 7.48781 21.1884 9.37547 21.1912 11.4862C21.1903 12.2784 21.1688 13.0383 21.1275 13.7733C20.3644 13.3645 19.4925 13.133 18.5662 13.133C15.5653 13.133 13.132 15.5658 13.132 18.5667C13.132 19.493 13.3641 20.3644 13.7723 21.1275C13.0373 21.1688 12.2775 21.1903 11.4858 21.1908H11.4862ZM18.5662 22.2188C16.552 22.2188 14.9133 20.5805 14.9133 18.5662C14.9133 16.552 16.552 14.9137 18.5662 14.9137C20.5805 14.9137 22.2192 16.552 22.2192 18.5662C22.2192 20.5805 20.5805 22.2188 18.5662 22.2188Z" fill="#0B0B07"/>
<path d="M19.0425 19.6049C18.9291 19.5862 18.7748 19.5684 18.5644 19.5684C18.3539 19.5684 18.1997 19.5862 18.0862 19.6049C17.8997 19.6377 17.73 19.8074 17.6967 19.9945C17.678 20.1079 17.6602 20.2621 17.6602 20.4726C17.6602 20.683 17.678 20.8373 17.6967 20.9507C17.7295 21.1373 17.8992 21.307 18.0862 21.3402C18.1997 21.359 18.3539 21.3768 18.5644 21.3768C18.7748 21.3768 18.9291 21.359 19.0425 21.3402C19.2291 21.3074 19.3987 21.1377 19.432 20.9507C19.4508 20.8373 19.4686 20.683 19.4686 20.4726C19.4686 20.2621 19.4508 20.1079 19.432 19.9945C19.3992 19.8079 19.2295 19.6382 19.0425 19.6049Z" fill="#0B0B07"/>
<path d="M18.5664 19.0143C19.0581 19.0143 19.457 18.6154 19.457 18.1236V16.6377C19.457 16.146 19.0581 15.7471 18.5664 15.7471C18.0747 15.7471 17.6758 16.146 17.6758 16.6377V18.1236C17.6758 18.6154 18.0747 19.0143 18.5664 19.0143Z" fill="#0B0B07"/>
</svg>
