<svg width="14" height="16" viewBox="0 0 14 16" fill="none" xmlns="http://www.w3.org/2000/svg">
<path d="M13.1458 0.188841C13.0923 0.129561 13.0269 0.0821341 12.954 0.0496111C12.8811 0.0170881 12.8021 0.000188743 12.7223 0H1.27737C1.19752 0.000188743 1.11859 0.0170881 1.04566 0.0496111C0.972729 0.0821341 0.907412 0.129561 0.853911 0.188841C0.800394 0.24711 0.759541 0.315843 0.733932 0.390699C0.708324 0.465556 0.698515 0.544909 0.705127 0.623748L1.13431 5.15021L2.10713 15.4793C2.12002 15.6219 2.18596 15.7546 2.29191 15.851C2.39786 15.9474 2.53612 16.0006 2.67938 16H11.326C11.4693 16.0006 11.6075 15.9474 11.7135 15.851C11.8194 15.7546 11.8854 15.6219 11.8983 15.4793L13.2945 0.623748C13.3011 0.544909 13.2913 0.465556 13.2657 0.390699C13.2401 0.315843 13.1993 0.24711 13.1458 0.188841ZM12.0928 1.14449L11.7094 5.25894C10.5715 4.92034 9.45383 4.51721 8.36178 4.0515C5.62072 2.90701 3.78381 3.56509 2.20441 4.29184L1.90684 1.14449H12.0928ZM10.7995 14.8784H3.20012L2.31314 5.49928C3.97265 4.72103 5.42616 4.06867 7.92687 5.10443C9.1145 5.61906 10.334 6.05677 11.5778 6.41488L10.7995 14.8784ZM4.71085 6.86695L5.28309 13.1044C5.291 13.1796 5.28391 13.2557 5.26224 13.3281C5.24058 13.4006 5.20477 13.4681 5.15687 13.5266C5.10898 13.5851 5.04996 13.6336 4.98323 13.6692C4.91649 13.7048 4.84336 13.7268 4.76807 13.7339H4.71085C4.56849 13.7346 4.43098 13.6822 4.32517 13.587C4.21935 13.4918 4.15284 13.3605 4.1386 13.2189L3.56636 6.9814C3.55201 6.83041 3.5982 6.67989 3.69477 6.56293C3.79134 6.44598 3.9304 6.37214 4.08138 6.35765C4.15616 6.34972 4.23177 6.35661 4.30388 6.37792C4.376 6.39922 4.44321 6.43454 4.50167 6.48184C4.56013 6.52914 4.6087 6.5875 4.64459 6.65358C4.68048 6.71966 4.703 6.79216 4.71085 6.86695Z" fill="black"/>
</svg>
