<svg width="20" height="20" viewBox="0 0 20 20" fill="none" xmlns="http://www.w3.org/2000/svg">
<mask id="mask0_1294_16206" style="mask-type:luminance" maskUnits="userSpaceOnUse" x="0" y="0" width="20" height="20">
<path d="M0 0H20V20H0V0Z" fill="white"/>
</mask>
<g mask="url(#mask0_1294_16206)">
<path fill-rule="evenodd" clip-rule="evenodd" d="M10.0013 8.79876C8.04639 8.79893 6.13803 8.53635 4.8526 8.04272C4.53324 7.92008 4.17134 8.07051 4.04426 8.37872C3.91719 8.68693 4.07306 9.0362 4.39242 9.15884C5.88157 9.73071 7.96519 10.0002 10.0014 10C12.0376 9.99982 14.1203 9.72999 15.6076 9.15885C15.9269 9.03621 16.0828 8.68694 15.9557 8.37873C15.8287 8.07052 15.4668 7.92008 15.1474 8.04272C13.8637 8.53567 11.9562 8.79859 10.0013 8.79876Z" fill="#0B0B07"/>
<path fill-rule="evenodd" clip-rule="evenodd" d="M10.5 15.9998C10.7433 15.9998 10.9614 15.8363 11.0484 15.5889C11.4339 14.4928 12.4792 13.695 13.6808 13.1406C14.8574 12.5977 16.0455 12.352 16.5057 12.2715C16.826 12.2155 17.0439 11.8872 16.9925 11.5383C16.9411 11.1894 16.6398 10.9519 16.3195 11.0079C15.8188 11.0955 14.5249 11.3613 13.2227 11.9622C12.2552 12.4086 11.1998 13.078 10.5 14.0723C9.80016 13.078 8.74476 12.4086 7.77726 11.9622C6.47503 11.3613 5.18117 11.0955 4.6805 11.0079C4.36024 10.9519 4.05893 11.1894 4.00751 11.5383C3.95609 11.8872 4.17403 12.2155 4.49429 12.2715C4.95445 12.352 6.14253 12.5977 7.3192 13.1406C8.52076 13.695 9.56607 14.4928 9.95158 15.5889C10.0386 15.8364 10.2567 15.9998 10.5 15.9998Z" fill="#0B0B07"/>
<path fill-rule="evenodd" clip-rule="evenodd" d="M5.14439 19.688C5.24292 19.8799 5.43637 20 5.6471 20H15.3529C15.5636 20 15.7571 19.8799 15.8556 19.688L15.3529 19.4141C15.8556 19.688 15.8557 19.6878 15.8559 19.6875L15.8562 19.6868L15.857 19.6852C15.8577 19.684 15.8584 19.6825 15.8594 19.6806C15.8612 19.677 15.8636 19.6722 15.8665 19.6663C15.8724 19.6545 15.8804 19.6381 15.8903 19.6172C15.9102 19.5753 15.9378 19.5156 15.9713 19.4387C16.0383 19.2848 16.129 19.0622 16.229 18.7769C16.4289 18.2067 16.6664 17.3847 16.8244 16.3617C17.1409 14.3134 17.1387 11.4596 15.8809 8.21989C15.1071 6.22662 15.1061 4.37291 15.3005 3.01282C15.3976 2.33305 15.5431 1.77994 15.6631 1.39983C15.723 1.20997 15.7764 1.06386 15.8138 0.967365C15.8325 0.919138 15.8471 0.883362 15.8567 0.860773C15.8614 0.84948 15.8649 0.841492 15.8669 0.836895C15.8679 0.8346 15.8685 0.833151 15.8688 0.832563L15.8687 0.832699L15.8686 0.833006C15.8687 0.832819 15.8687 0.832638 15.8688 0.832451C15.9504 0.651196 15.9367 0.439566 15.8325 0.271034C15.7281 0.102209 15.5472 0 15.3529 0H5.6471C5.4528 0 5.27194 0.102209 5.16751 0.271034C5.06329 0.439537 5.0496 0.651121 5.13114 0.832355C5.13116 0.832409 5.13119 0.832462 5.13121 0.832516C5.13128 0.83268 5.13136 0.832844 5.13143 0.833006L5.13129 0.832699L5.13123 0.832563C5.13149 0.833151 5.13213 0.8346 5.13314 0.836895C5.13514 0.841492 5.1386 0.84948 5.14335 0.860773C5.15285 0.883362 5.16754 0.919138 5.18624 0.967365C5.22365 1.06386 5.277 1.20997 5.33691 1.39983C5.45687 1.77994 5.60238 2.33305 5.69951 3.01282C5.89385 4.37291 5.89292 6.22662 5.11908 8.21989C3.8613 11.4596 3.85905 14.3134 4.17556 16.3617C4.33363 17.3847 4.57112 18.2067 4.771 18.7769C4.87099 19.0622 4.96173 19.2848 5.02873 19.4387C5.06223 19.5156 5.08983 19.5753 5.1097 19.6172C5.11963 19.6381 5.12764 19.6545 5.1335 19.6663C5.13643 19.6722 5.13882 19.677 5.14064 19.6806C5.14155 19.6825 5.14233 19.684 5.14295 19.6852L5.14378 19.6868L5.14411 19.6875C5.14426 19.6878 5.14439 19.688 5.6471 19.4141L5.14439 19.688ZM6.01112 18.8281C5.96246 18.7098 5.90403 18.5593 5.84076 18.3788C5.66151 17.8675 5.44404 17.1173 5.29881 16.1774C5.0087 14.2999 5.00645 11.6654 6.17512 8.65511L5.64995 8.43868L6.17512 8.65511C7.04141 6.42373 7.04048 4.35166 6.82478 2.84213C6.72763 2.16222 6.58659 1.5937 6.45995 1.17188H14.5401C14.4134 1.5937 14.2724 2.16222 14.1752 2.84213C13.9595 4.35166 13.9586 6.42373 14.8249 8.65511L15.2337 8.48664L14.8249 8.65511C15.9936 11.6654 15.9913 14.2999 15.7012 16.1774C15.556 17.1173 15.3385 17.8675 15.1592 18.3788C15.096 18.5593 15.0375 18.7098 14.9889 18.8281H6.01112ZM6.15036 19.1412C6.15038 19.1412 6.15038 19.1412 6.15037 19.1412L6.15036 19.1412Z" fill="#0B0B07"/>
<path fill-rule="evenodd" clip-rule="evenodd" d="M10 20C10.5523 20 11 19.7182 11 19.3706V14.6294C11 14.2818 10.5523 14 10 14C9.44772 14 9 14.2818 9 14.6294V19.3706C9 19.7182 9.44772 20 10 20Z" fill="#0B0B07"/>
<path fill-rule="evenodd" clip-rule="evenodd" d="M17 5.49988C17 5.77602 17.2316 5.99988 17.5172 5.99988H19.4828C19.7684 5.99988 20 5.77602 20 5.49988C20 5.22374 19.7684 4.99988 19.4828 4.99988H17.5172C17.2316 4.99988 17 5.22374 17 5.49988Z" fill="#0B0B07"/>
<path fill-rule="evenodd" clip-rule="evenodd" d="M18.7095 6.90305C19.0092 6.72631 19.0902 6.36813 18.8904 6.10303L18.4359 5.5L18.8904 4.89697C19.0902 4.63187 19.0092 4.27369 18.7095 4.09695C18.4098 3.92022 18.0049 3.99185 17.8052 4.25695L17.1095 5.17999C16.9635 5.37377 16.9635 5.62623 17.1095 5.82001L17.8052 6.74305C18.0049 7.00815 18.4098 7.07978 18.7095 6.90305Z" fill="#0B0B07"/>
<path fill-rule="evenodd" clip-rule="evenodd" d="M0 5.49988C0 5.77602 0.308769 5.99988 0.689655 5.99988H3.31034C3.69123 5.99988 4 5.77602 4 5.49988C4 5.22374 3.69123 4.99988 3.31034 4.99988H0.689655C0.308769 4.99988 0 5.22374 0 5.49988Z" fill="#0B0B07"/>
<path fill-rule="evenodd" clip-rule="evenodd" d="M2.29047 6.90305C2.59015 7.07978 2.99506 7.00815 3.19484 6.74305L3.89047 5.82001C4.03651 5.62623 4.03651 5.37377 3.89047 5.17999L3.19484 4.25695C2.99506 3.99185 2.59015 3.92022 2.29047 4.09695C1.99079 4.27369 1.90981 4.63187 2.1096 4.89697L2.56406 5.5L2.1096 6.10303C1.90981 6.36813 1.99079 6.72631 2.29047 6.90305Z" fill="#0B0B07"/>
</g>
</svg>
