<svg width="10" height="20" viewBox="0 0 10 20" fill="none" xmlns="http://www.w3.org/2000/svg">
<path d="M9.51669 10.6311L7.51383 8.42172C7.38911 8.28418 7.27442 8.00077 7.26865 7.81496L7.19497 5.5225V5.45608C7.19497 5.10283 6.90751 4.81537 6.55426 4.81537H3.81458C3.49892 4.81537 3.14675 5.03898 3.01241 5.32452L0.373111 10.9307C0.30007 11.0862 0.292808 11.2599 0.352608 11.4202C0.412407 11.5804 0.532006 11.7069 0.688981 11.7761L1.07789 11.9475C1.16076 11.9841 1.24918 12.0026 1.3408 12.0026C1.59217 12.0026 1.82624 11.8598 1.93751 11.6387L3.17387 9.17904V11.6513C3.16874 11.6656 3.16127 11.6787 3.15657 11.6932L1.06721 18.2365C0.980291 18.5091 1.00677 18.7959 1.14196 19.0441C1.27715 19.2922 1.50354 19.4699 1.7799 19.5445L1.91957 19.5823C2.01098 19.607 2.10581 19.6196 2.20106 19.6196C2.6818 19.6196 3.11856 19.3033 3.26336 18.8501L5.2156 12.736L5.908 14.432C6.07693 14.8457 6.25932 15.5701 6.30631 16.0144L6.63755 19.137C6.69073 19.6369 7.08605 19.9998 7.57769 19.9998C7.65821 19.9998 7.74 19.99 7.82052 19.9705L7.96126 19.9364C8.52167 19.8007 8.91763 19.225 8.84395 18.6532L8.35338 14.8457C8.29101 14.362 8.08236 13.6044 7.88822 13.157L7.22573 11.6312C7.21718 11.6114 7.20501 11.5934 7.19519 11.5742V10.5403L8.38904 11.7867C8.50779 11.9108 8.66669 11.9792 8.83626 11.9792C9.00776 11.9792 9.16793 11.9095 9.28711 11.7831L9.50794 11.5486C9.74415 11.2977 9.7482 10.8863 9.51669 10.6311Z" fill="#0B0B07"/>
<path d="M5.36254 4.27247C6.54059 4.27247 7.49888 3.31418 7.49888 2.13613C7.49888 0.95829 6.54059 0 5.36254 0C4.1847 0 3.22662 0.95829 3.22662 2.13613C3.22641 3.31418 4.1847 4.27247 5.36254 4.27247Z" fill="#0B0B07"/>
</svg>
