<svg width="14" height="24" viewBox="0 0 14 24" fill="none" xmlns="http://www.w3.org/2000/svg">
<path d="M13.5 8H13C12.9985 7.48203 12.8625 6.97334 12.6053 6.52373C12.3481 6.07411 11.9786 5.699 11.5329 5.43512C11.0231 4.1495 10.6748 2.80555 10.4961 1.43412C10.3066 0.01074 8.24707 0 6.50293 0H6.42578C4.75293 0 2.69336 0.01074 2.50391 1.43408C2.3252 2.8055 1.97695 4.14945 1.46716 5.43508C1.02144 5.69896 0.651887 6.07408 0.3947 6.5237C0.137513 6.97332 0.00150717 7.48202 0 8V16C0.00150299 16.518 0.137502 17.0267 0.394678 17.4763C0.651854 17.9259 1.02139 18.301 1.4671 18.5649C1.9769 19.8505 2.32517 21.1945 2.50391 22.5659C2.69336 23.9893 4.75293 24 6.49707 24H6.57422C8.24707 24 10.3066 23.9893 10.4961 22.5659C10.6748 21.1945 11.0231 19.8506 11.5329 18.5649C11.9786 18.301 12.3482 17.9259 12.6053 17.4763C12.8625 17.0267 12.9985 16.518 13 16V11H13.5C13.5657 11 13.6307 10.9871 13.6914 10.962C13.7521 10.9369 13.8072 10.9001 13.8536 10.8536C13.9001 10.8072 13.9369 10.7521 13.962 10.6914C13.9871 10.6307 14 10.5657 14 10.5V8.5C14 8.43433 13.9871 8.36929 13.962 8.30861C13.9369 8.24793 13.9001 8.1928 13.8536 8.14636C13.8072 8.09992 13.7521 8.0631 13.6914 8.03798C13.6307 8.01287 13.5657 7.99996 13.5 8ZM3.49609 1.56592C3.57031 1.00537 5.417 1 6.50586 1H6.56543C7.58301 1 9.42969 1.00537 9.50391 1.56592C9.66039 2.74507 9.93241 3.90599 10.316 5.03192C10.2113 5.01558 10.1058 5.00493 10 5H3C2.89417 5.00493 2.78868 5.01558 2.684 5.03192C3.06762 3.90599 3.33962 2.74507 3.49609 1.56592ZM9.50391 22.4341C9.42969 23 7.59668 23.0166 6.46391 23C5.45219 22.9932 3.57035 23 3.49613 22.4341C3.33965 21.2549 3.06763 20.094 2.684 18.9681C2.78868 18.9844 2.89417 18.9951 3 19H10C10.1058 18.9951 10.2113 18.9844 10.316 18.9681C9.93238 20.094 9.66038 21.2549 9.50391 22.4341ZM12 16C11.9994 16.5302 11.7885 17.0386 11.4135 17.4135C11.0386 17.7885 10.5302 17.9994 10 18H3C2.46975 17.9994 1.9614 17.7885 1.58646 17.4135C1.21151 17.0386 1.00061 16.5302 1 16V8C1.00061 7.46975 1.21151 6.9614 1.58646 6.58646C1.9614 6.21151 2.46975 6.00061 3 6H10C10.5302 6.00061 11.0386 6.21151 11.4135 6.58646C11.7885 6.9614 11.9994 7.46975 12 8V16Z" fill="#0B0B07"/>
</svg>
