<svg width="20" height="20" viewBox="0 0 20 20" fill="none" xmlns="http://www.w3.org/2000/svg">
<path d="M16.0062 11.8433C15.9075 11.8434 15.8109 11.8146 15.7284 11.7606C15.6458 11.7066 15.5808 11.6297 15.5413 11.5392C15.5019 11.4488 15.4897 11.3488 15.5062 11.2515C15.5228 11.1542 15.5674 11.0639 15.6345 10.9916C15.695 10.9264 17.1383 9.39331 19.4913 9.39331C19.6257 9.39331 19.7546 9.4467 19.8496 9.54174C19.9447 9.63677 19.998 9.76567 19.998 9.90007C19.998 10.0345 19.9447 10.1634 19.8496 10.2584C19.7546 10.3534 19.6257 10.4068 19.4913 10.4068C17.5943 10.4068 16.3896 11.668 16.3778 11.6808C16.3305 11.7322 16.273 11.7731 16.209 11.8011C16.1451 11.8291 16.076 11.8434 16.0062 11.8433Z" fill="#0B0B07"/>
<path d="M7.14189 13.8554C7.05269 13.8553 6.9651 13.8317 6.88796 13.7869C6.81083 13.7421 6.74689 13.6777 6.70261 13.6003C6.65832 13.5228 6.63526 13.4351 6.63575 13.3459C6.63624 13.2567 6.66027 13.1692 6.7054 13.0923C8.01182 10.8646 9.59595 9.59801 11.4132 9.32706C14.1041 8.92639 16.2595 10.8794 16.35 10.9629C16.4488 11.054 16.5074 11.1806 16.5129 11.315C16.5183 11.4493 16.4702 11.5803 16.3791 11.6791C16.2879 11.7779 16.1613 11.8365 16.027 11.8419C15.8926 11.8474 15.7617 11.7993 15.6628 11.7081C15.6449 11.6916 13.7625 9.99767 11.5551 10.3308C10.0591 10.5565 8.72162 11.6581 7.57939 13.6051C7.53465 13.6814 7.47072 13.7446 7.39397 13.7885C7.31722 13.8324 7.23032 13.8555 7.14189 13.8554Z" fill="#0B0B07"/>
<path d="M13.1929 17.3271C12.5402 17.3271 11.801 17.2184 10.9841 16.9339C10.8572 16.8895 10.7531 16.7965 10.6948 16.6754C10.6364 16.5542 10.6286 16.4149 10.673 16.288C10.7174 16.161 10.8104 16.057 10.9315 15.9986C11.0526 15.9403 11.192 15.9324 11.3189 15.9768C14.5567 17.1038 16.3003 15.0396 16.3189 15.0187C16.3599 14.964 16.4116 14.9181 16.4708 14.8839C16.5301 14.8497 16.5956 14.8278 16.6635 14.8196C16.7314 14.8114 16.8003 14.817 16.8659 14.8361C16.9316 14.8552 16.9927 14.8874 17.0456 14.9308C17.0985 14.9741 17.1421 15.0277 17.1737 15.0884C17.2053 15.149 17.2244 15.2154 17.2296 15.2836C17.2349 15.3518 17.2263 15.4204 17.2044 15.4852C17.1824 15.5499 17.1476 15.6096 17.102 15.6606C17.079 15.6883 16.5301 16.3481 15.499 16.8271C14.7761 17.1606 13.9889 17.3312 13.1929 17.3271Z" fill="#0B0B07"/>
<path d="M8.67512 9.46323C8.63205 9.46315 8.58915 9.4577 8.54742 9.44701C8.483 9.43029 8.4225 9.40105 8.36938 9.36094C8.31626 9.32084 8.27157 9.27067 8.23784 9.21329C8.20412 9.15591 8.18203 9.09245 8.17283 9.02653C8.16363 8.96061 8.16751 8.89353 8.18424 8.82911L9.46803 3.89127C9.48203 3.82408 9.50954 3.76044 9.54888 3.7042C9.58822 3.64796 9.63857 3.6003 9.69689 3.5641C9.7552 3.52791 9.82026 3.50394 9.88812 3.49365C9.95598 3.48335 10.0252 3.48695 10.0916 3.50422C10.1581 3.52149 10.2203 3.55208 10.2745 3.59412C10.3288 3.63616 10.3739 3.68878 10.4072 3.74879C10.4405 3.80881 10.4613 3.87496 10.4683 3.94324C10.4752 4.01152 10.4683 4.0805 10.4478 4.146L9.16397 9.08384C9.13584 9.19219 9.07262 9.28818 8.98418 9.35681C8.89574 9.42545 8.78707 9.46287 8.67512 9.46323Z" fill="#0B0B07"/>
<path d="M11.7392 20.0004C9.16485 20.0004 7.01418 19.2322 5.63073 18.5643C4.68093 18.1095 3.67666 17.7787 2.64255 17.5798C1.46451 17.3498 0.637825 16.8291 0.252352 16.0741C-0.140216 15.3058 -0.072648 14.3342 0.45269 13.1862C1.66418 9.47813 4.48445 5.01563 6.63985 1.92171C6.93535 1.4982 7.31638 1.14138 7.75835 0.874277C8.20032 0.607176 8.69339 0.43574 9.20573 0.371038L12.0287 0.0152946C12.5358 -0.0489403 13.0481 0.0844093 13.4595 0.387701C13.8709 0.690993 14.1499 1.14097 14.2385 1.64435L14.4899 3.068C14.5406 3.3561 14.5191 3.65229 14.4273 3.93004C14.3355 4.20779 14.1762 4.45842 13.9637 4.65949C13.7512 4.86056 13.4922 5.00578 13.2098 5.08214C12.9274 5.15851 12.6305 5.16363 12.3456 5.09705L9.84154 4.51225C9.71064 4.4817 9.59723 4.4004 9.52627 4.28623C9.45531 4.17206 9.43261 4.03438 9.46316 3.90347C9.49372 3.77256 9.57502 3.65916 9.68919 3.5882C9.80336 3.51724 9.94104 3.49454 10.0719 3.52509L12.576 4.10989C12.6977 4.13868 12.8247 4.13678 12.9455 4.10434C13.0663 4.0719 13.1771 4.00995 13.2681 3.92405C13.359 3.83816 13.4271 3.73101 13.4664 3.61225C13.5056 3.49349 13.5147 3.36683 13.4929 3.24367L13.2415 1.82002C13.1979 1.57283 13.0609 1.35188 12.8588 1.20296C12.6567 1.05403 12.4051 0.988532 12.1561 1.02002L9.33208 1.37509C8.96046 1.4221 8.60284 1.54654 8.28231 1.74038C7.96179 1.93422 7.68549 2.19315 7.47127 2.50043C5.34965 5.54638 2.57533 9.93286 1.40708 13.5275C1.40097 13.5467 1.39363 13.5656 1.38512 13.5839C0.98546 14.4471 0.908095 15.1295 1.15505 15.6129C1.45674 16.2035 2.23614 16.4677 2.83715 16.5849C3.95648 16.8004 5.04351 17.1588 6.07161 17.6511C8.39256 18.7721 13.0459 20.1977 18.1324 17.1521C18.1895 17.1179 18.2528 17.0953 18.3186 17.0856C18.3845 17.0759 18.4516 17.0792 18.5161 17.0954C18.5807 17.1116 18.6414 17.1404 18.6948 17.18C18.7482 17.2197 18.7933 17.2695 18.8275 17.3266C18.8617 17.3837 18.8843 17.447 18.894 17.5128C18.9038 17.5786 18.9004 17.6458 18.8842 17.7103C18.868 17.7748 18.8393 17.8356 18.7996 17.889C18.7599 17.9424 18.7101 17.9875 18.653 18.0217C16.1932 19.4937 13.8267 20.0004 11.7392 20.0004Z" fill="#0B0B07"/>
</svg>
