<svg width="32" height="32" viewBox="0 0 32 32" fill="none" xmlns="http://www.w3.org/2000/svg">
<path fill-rule="evenodd" clip-rule="evenodd" d="M18.3875 2.38882C18.3875 1.07 17.3173 0 15.9987 0C14.6801 0 13.6099 1.07 13.6099 2.38882V29.6112C13.6099 30.93 14.6801 32 15.9987 32C17.3173 32 18.3875 30.93 18.3875 29.6112V2.38882ZM17.0128 2.38882V29.6112C17.0128 30.1701 16.5585 30.6257 15.9987 30.6257C15.4389 30.6257 14.9846 30.1701 14.9846 29.6112V2.38882C14.9846 1.82801 15.4389 1.37432 15.9987 1.37432C16.5585 1.37438 17.0128 1.82801 17.0128 2.38882Z" fill="#0B0B07"/>
<path fill-rule="evenodd" clip-rule="evenodd" d="M11.5826 7.49226C11.5826 6.17457 10.5124 5.10344 9.19376 5.10344C7.87513 5.10344 6.80494 6.17457 6.80494 7.49226V24.506C6.80494 25.8252 7.87513 26.8948 9.19376 26.8948C10.5124 26.8948 11.5826 25.8252 11.5826 24.506V7.49226ZM10.2078 7.49226V24.506C10.2078 25.0666 9.75357 25.5205 9.19376 25.5205C8.63401 25.5205 8.17969 25.0666 8.17969 24.506V7.49226C8.17969 6.93314 8.63395 6.47926 9.19376 6.47926C9.75357 6.47926 10.2078 6.93314 10.2078 7.49226Z" fill="#0B0B07"/>
<path fill-rule="evenodd" clip-rule="evenodd" d="M4.77758 12.597C4.77758 11.2778 3.70739 10.2082 2.38876 10.2082C1.07013 10.2082 0 11.2778 0 12.597V19.4028C0 20.7208 1.07019 21.7916 2.38882 21.7916C3.70745 21.7916 4.77764 20.7208 4.77764 19.4028L4.77758 12.597ZM3.40283 12.597V19.4028C3.40283 19.9619 2.94857 20.4168 2.38876 20.4168C1.82894 20.4168 1.37469 19.9619 1.37469 19.4028V12.597C1.37469 12.0367 1.82894 11.583 2.38876 11.583C2.94857 11.583 3.40283 12.0367 3.40283 12.597Z" fill="#0B0B07"/>
<path fill-rule="evenodd" clip-rule="evenodd" d="M25.1955 7.49284C25.1955 6.17421 24.1253 5.10401 22.8067 5.10401C21.4881 5.10401 20.4179 6.17421 20.4179 7.49284V24.5071C20.4179 25.8257 21.4881 26.8959 22.8067 26.8959C24.1253 26.8959 25.1955 25.8257 25.1955 24.5071V7.49284ZM23.8208 7.49284V24.5071C23.8208 25.0668 23.3665 25.5212 22.8067 25.5212C22.2469 25.5212 21.7926 25.0669 21.7926 24.5071V7.49284C21.7926 6.93308 22.2469 6.47877 22.8067 6.47877C23.3664 6.47883 23.8208 6.93308 23.8208 7.49284Z" fill="#0B0B07"/>
<path fill-rule="evenodd" clip-rule="evenodd" d="M32.0005 12.5965C32.0005 11.2784 30.9303 10.2078 29.6116 10.2078C28.293 10.2078 27.2228 11.2784 27.2228 12.5965V19.4029C27.2228 20.7211 28.293 21.7917 29.6116 21.7917C30.9303 21.7917 32.0005 20.7211 32.0005 19.4029V12.5965ZM30.6257 12.5965V19.4029C30.6257 19.9618 30.1714 20.4161 29.6116 20.4161C29.0518 20.4161 28.5976 19.9619 28.5976 19.4029V12.5965C28.5976 12.0376 29.0518 11.5833 29.6116 11.5833C30.1714 11.5833 30.6257 12.0376 30.6257 12.5965Z" fill="#0B0B07"/>
</svg>
