<svg width="18" height="22" viewBox="0 0 18 22" fill="none" xmlns="http://www.w3.org/2000/svg">
<path d="M9 3.02584C7.21997 3.02584 5.47991 3.55368 3.99987 4.54261C2.51983 5.53154 1.36628 6.93715 0.685088 8.58168C0.00389951 10.2262 -0.17433 12.0358 0.172937 13.7816C0.520203 15.5275 1.37737 17.1311 2.63604 18.3898C3.89472 19.6485 5.49836 20.5056 7.24419 20.8529C8.99002 21.2002 10.7996 21.0219 12.4442 20.3408C14.0887 19.6596 15.4943 18.506 16.4832 17.026C17.4722 15.5459 18 13.8059 18 12.0258C18 9.63889 17.0518 7.3497 15.364 5.66187C13.6761 3.97405 11.387 3.02584 9 3.02584ZM9 19.0258C7.61553 19.0258 6.26216 18.6153 5.11101 17.8461C3.95987 17.077 3.06266 15.9837 2.53285 14.7046C2.00303 13.4255 1.86441 12.0181 2.13451 10.6602C2.4046 9.30234 3.07129 8.05506 4.05026 7.07609C5.02922 6.09712 6.27651 5.43043 7.63437 5.16034C8.99224 4.89024 10.3997 5.02886 11.6788 5.55868C12.9579 6.08849 14.0511 6.9857 14.8203 8.13684C15.5895 9.28799 16 10.6414 16 12.0258C16 13.8824 15.2625 15.6628 13.9498 16.9756C12.637 18.2883 10.8565 19.0258 9 19.0258ZM12.45 2.85583C12.3274 2.79006 12.2199 2.69943 12.1343 2.58972C12.0487 2.48002 11.9869 2.35366 11.953 2.21873C11.919 2.0838 11.9136 1.94327 11.937 1.80612C11.9604 1.66896 12.0122 1.53822 12.0891 1.42223C12.166 1.30624 12.2662 1.20757 12.3834 1.13253C12.5005 1.05748 12.6321 1.00771 12.7696 0.986405C12.9071 0.965097 13.0475 0.972718 13.1819 1.00878C13.3163 1.04484 13.4416 1.10855 13.55 1.19584L16.55 3.19584C16.7273 3.31499 16.8619 3.48782 16.9338 3.68898C17.0058 3.89015 17.0115 4.10908 16.95 4.31369C16.8885 4.51831 16.7631 4.69784 16.5921 4.826C16.4212 4.95415 16.2137 5.02419 16 5.02584C15.8034 5.02808 15.611 4.96863 15.45 4.85583L12.45 2.85583ZM1.17 4.57584C1.02527 4.35537 0.973492 4.08666 1.02593 3.8282C1.07837 3.56974 1.23079 3.34246 1.45 3.19584L4.45 1.19584C4.55836 1.10855 4.68375 1.04484 4.81813 1.00878C4.95252 0.972718 5.09295 0.965097 5.23045 0.986405C5.36795 1.00771 5.49949 1.05748 5.61666 1.13253C5.73382 1.20757 5.83404 1.30624 5.9109 1.42223C5.98776 1.53822 6.03957 1.66896 6.06301 1.80612C6.08646 1.94327 6.08102 2.0838 6.04705 2.21873C6.01309 2.35366 5.95133 2.48002 5.86575 2.58972C5.78016 2.69943 5.67262 2.79006 5.55 2.85583L2.55 4.85583C2.38896 4.96863 2.1966 5.02808 2 5.02584C1.8353 5.02498 1.67335 4.98346 1.52855 4.90496C1.38376 4.82645 1.26059 4.7134 1.17 4.57584ZM11.71 13.3158C11.8037 13.4088 11.8781 13.5194 11.9289 13.6413C11.9797 13.7631 12.0058 13.8938 12.0058 14.0258C12.0058 14.1578 11.9797 14.2886 11.9289 14.4104C11.8781 14.5323 11.8037 14.6429 11.71 14.7358C11.617 14.8296 11.5064 14.904 11.3846 14.9547C11.2627 15.0055 11.132 15.0316 11 15.0316C10.868 15.0316 10.7373 15.0055 10.6154 14.9547C10.4936 14.904 10.383 14.8296 10.29 14.7358L8.29 12.7358C8.19732 12.6424 8.124 12.5316 8.07423 12.4097C8.02447 12.2879 7.99924 12.1574 8 12.0258V8.02584C8 7.76062 8.10536 7.50626 8.2929 7.31873C8.48043 7.13119 8.73479 7.02584 9 7.02584C9.26522 7.02584 9.51957 7.13119 9.70711 7.31873C9.89465 7.50626 10 7.76062 10 8.02584V11.6158L11.71 13.3158Z" fill="#0B0B07"/>
</svg>
