<svg width="18" height="18" viewBox="0 0 18 18" fill="none" xmlns="http://www.w3.org/2000/svg">
<mask id="mask0_1361_3721" style="mask-type:luminance" maskUnits="userSpaceOnUse" x="0" y="0" width="18" height="18">
<path d="M0 -1.98682e-07H18V18H0V-1.98682e-07Z" fill="white"/>
</mask>
<g mask="url(#mask0_1361_3721)">
<path fill-rule="evenodd" clip-rule="evenodd" d="M0 16.418C0 17.2917 0.708318 18 1.58203 18H16.418C17.2917 18 18 17.2917 18 16.418V11.4961C18 10.6224 17.2917 9.91406 16.418 9.91406H1.58203C0.708318 9.91406 0 10.6224 0 11.4961V16.418ZM1.58203 16.9453C1.29081 16.9453 1.05469 16.7092 1.05469 16.418V11.4961C1.05469 11.2049 1.29081 10.9688 1.58203 10.9688H16.418C16.7092 10.9688 16.9453 11.2049 16.9453 11.4961V16.418C16.9453 16.7092 16.7092 16.9453 16.418 16.9453H1.58203Z" fill="black"/>
<path fill-rule="evenodd" clip-rule="evenodd" d="M12.7668 16.1261C12.9939 16.0404 13.1085 15.7869 13.0228 15.5598L11.7147 12.0935C11.7132 12.0895 11.7116 12.0855 11.71 12.0815C11.5336 11.6527 10.9251 11.6522 10.7493 12.0827C10.748 12.0859 10.7467 12.0892 10.7455 12.0924L9.42538 15.5586C9.339 15.7854 9.45284 16.0393 9.67965 16.1256C9.90646 16.212 10.1604 16.0982 10.2467 15.8714L11.2283 13.294L12.2005 15.8701C12.2862 16.0972 12.5398 16.2118 12.7668 16.1261Z" fill="black"/>
<path fill-rule="evenodd" clip-rule="evenodd" d="M9.80811 14.8516C9.80811 15.0943 10.0049 15.291 10.2476 15.291H12.2065C12.4492 15.291 12.6459 15.0943 12.6459 14.8516C12.6459 14.6089 12.4492 14.4121 12.2065 14.4121H10.2476C10.0049 14.4121 9.80811 14.6089 9.80811 14.8516Z" fill="black"/>
<path fill-rule="evenodd" clip-rule="evenodd" d="M14.5366 15.2753V12.1992C14.5366 11.9565 14.3399 11.7598 14.0972 11.7598C13.8545 11.7598 13.6577 11.9565 13.6577 12.1992V15.7119C13.6577 15.926 13.812 16.1089 14.023 16.145C14.0527 16.1501 14.0796 16.1513 14.0805 16.1513C14.0891 16.1518 14.0976 16.152 14.1046 16.1523C14.1191 16.1527 14.1367 16.153 14.1557 16.1532C14.1942 16.1537 14.2457 16.154 14.3047 16.1541C14.4232 16.1545 14.5768 16.1542 14.7285 16.1538C14.8803 16.1534 15.0308 16.1528 15.1434 16.1523C15.1996 16.152 15.2465 16.1518 15.2792 16.1516L15.3307 16.1513C15.3307 16.1513 15.3307 16.1513 15.3282 15.7119C15.3258 15.2724 15.3258 15.2724 15.3258 15.2724L15.2747 15.2727C15.2421 15.2729 15.1954 15.2731 15.1393 15.2734C15.0271 15.2739 14.8771 15.2745 14.7261 15.2749C14.6621 15.2751 14.598 15.2752 14.5366 15.2753ZM14.1207 15.2733C14.1205 15.2733 14.1225 15.2735 14.1273 15.2736C14.1233 15.2734 14.1209 15.2733 14.1207 15.2733ZM15.7677 15.7094C15.7663 15.4667 15.5685 15.2711 15.3258 15.2724L15.3282 15.7119L15.3307 16.1513C15.5734 16.15 15.769 15.9521 15.7677 15.7094Z" fill="black"/>
<path fill-rule="evenodd" clip-rule="evenodd" d="M7.42428 15.2754C6.69619 15.2754 6.10596 14.6851 6.10596 13.957C6.10596 13.2289 6.69619 12.6387 7.42428 12.6387C7.69796 12.6387 7.95093 12.7216 8.16102 12.8635C8.36211 12.9994 8.63529 12.9466 8.77118 12.7455C8.90708 12.5444 8.85422 12.2712 8.65313 12.1353C8.30219 11.8982 7.87868 11.7598 7.42428 11.7598C6.21076 11.7598 5.22705 12.7435 5.22705 13.957C5.22705 15.1705 6.21076 16.1543 7.42428 16.1543C7.92111 16.1543 8.35073 15.9883 8.6811 15.6941M7.42428 15.2754C7.71598 15.2754 7.93485 15.1818 8.09671 15.0377ZM8.19492 14.9363C8.164 14.9731 8.13132 15.0069 8.09691 15.0375L8.09671 15.0377M8.68111 15.6941C8.74865 15.634 8.81103 15.5694 8.86842 15.501C9.02435 15.315 9 15.0378 8.81402 14.8819C8.62803 14.7259 8.35086 14.7503 8.19492 14.9363" fill="black"/>
<path fill-rule="evenodd" clip-rule="evenodd" d="M2.67188 16.1543C2.91458 16.1543 3.11133 15.9575 3.11133 15.7148V12.1992C3.11133 11.9565 2.91458 11.7598 2.67188 11.7598C2.42917 11.7598 2.23242 11.9565 2.23242 12.1992V15.7148C2.23242 15.9575 2.42917 16.1543 2.67188 16.1543Z" fill="black"/>
<path fill-rule="evenodd" clip-rule="evenodd" d="M5.00391 16.02C5.17242 15.8453 5.16743 15.5671 4.99276 15.3986L3.42514 13.8862L4.86023 12.5671C5.03892 12.4029 5.05062 12.1249 4.88638 11.9462C4.72214 11.7675 4.44414 11.7558 4.26545 11.92L2.48679 13.555C2.39761 13.6369 2.34622 13.7521 2.34476 13.8732C2.3433 13.9943 2.39189 14.1107 2.47906 14.1948L4.38253 16.0311C4.5572 16.1996 4.8354 16.1946 5.00391 16.02Z" fill="black"/>
<path fill-rule="evenodd" clip-rule="evenodd" d="M12.5156 4.57031C12.8069 4.57031 13.043 4.33421 13.043 4.04297V0.527344C13.043 0.2361 12.8069 1.3411e-07 12.5156 1.3411e-07C12.2244 1.3411e-07 11.9883 0.2361 11.9883 0.527344V4.04297C11.9883 4.33421 12.2244 4.57031 12.5156 4.57031Z" fill="black"/>
<path fill-rule="evenodd" clip-rule="evenodd" d="M14.625 4.57031C14.9162 4.57031 15.1523 4.33421 15.1523 4.04297V0.527344C15.1523 0.2361 14.9162 1.3411e-07 14.625 1.3411e-07C14.3338 1.3411e-07 14.0977 0.2361 14.0977 0.527344V4.04297C14.0977 4.33421 14.3338 4.57031 14.625 4.57031Z" fill="black"/>
<path fill-rule="evenodd" clip-rule="evenodd" d="M10.4062 4.57031C10.6975 4.57031 10.9336 4.33421 10.9336 4.04297V0.527344C10.9336 0.2361 10.6975 1.3411e-07 10.4062 1.3411e-07C10.115 1.3411e-07 9.87891 0.2361 9.87891 0.527344V4.04297C9.87891 4.33421 10.115 4.57031 10.4062 4.57031Z" fill="black"/>
<path fill-rule="evenodd" clip-rule="evenodd" d="M10.9336 10.4414C10.9336 10.7327 11.1697 10.9688 11.4609 10.9688H13.5703C13.8616 10.9688 14.0977 10.7327 14.0977 10.4414V7.9528C14.0977 7.61517 14.2318 7.29132 14.4705 7.05258C14.9071 6.61604 15.1523 6.02393 15.1523 5.40657V4.04297C15.1523 3.75172 14.9162 3.51562 14.625 3.51562H10.4062C10.115 3.51562 9.87891 3.75172 9.87891 4.04297V5.40657C9.87891 6.02393 10.1242 6.61604 10.5607 7.05258C10.7995 7.29132 10.9336 7.61517 10.9336 7.9528V10.4414ZM11.9883 9.91406V7.9528C11.9883 7.33545 11.743 6.74333 11.3065 6.3068C11.0677 6.06805 10.9336 5.7442 10.9336 5.40657V4.57031H14.0977V5.40657C14.0977 5.7442 13.9635 6.06805 13.7248 6.3068C13.2882 6.74333 13.043 7.33545 13.043 7.9528V9.91406H11.9883Z" fill="black"/>
<path fill-rule="evenodd" clip-rule="evenodd" d="M4.25391 10.4414C4.25391 10.7327 4.49001 10.9688 4.78125 10.9688H6.89063C7.18187 10.9688 7.41797 10.7327 7.41797 10.4414V6.82338C8.28766 6.15572 8.82422 4.97864 8.82422 3.69141C8.82422 1.7837 7.60198 -7.7486e-07 5.83594 -7.7486e-07C4.06994 -7.7486e-07 2.84766 1.78369 2.84766 3.69141C2.84766 4.97864 3.38422 6.15572 4.25391 6.82338V10.4414ZM5.30859 9.91406V6.5469C5.30859 6.36329 5.21309 6.1929 5.05646 6.09707C4.41207 5.70282 3.90234 4.80694 3.90234 3.69141C3.90234 2.10416 4.88373 1.05469 5.83594 1.05469C6.78818 1.05469 7.76953 2.10416 7.76953 3.69141C7.76953 4.80694 7.2598 5.70282 6.61541 6.09707C6.45879 6.1929 6.36328 6.36329 6.36328 6.5469V9.91406H5.30859Z" fill="black"/>
</g>
</svg>
