<svg width="15" height="15" viewBox="0 0 15 15" fill="none" xmlns="http://www.w3.org/2000/svg">
<path fill-rule="evenodd" clip-rule="evenodd" d="M1.12261 1.12718C1.58808 0.6638 2.34267 0.663893 2.80804 1.12739L7.47038 5.76796L12.1386 1.11895C12.6038 0.655307 13.3584 0.654967 13.8241 1.11819C14.2897 1.58142 14.29 2.3328 13.8248 2.79645L9.15561 7.44642L13.8828 12.2036C14.3482 12.6671 14.3481 13.4185 13.8826 13.8819C13.4171 14.3452 12.6625 14.3451 12.1972 13.8816L7.47094 9.12543L2.84771 13.8456C2.3825 14.3092 1.62791 14.3096 1.16228 13.8463C0.696648 13.3831 0.696307 12.6317 1.16152 12.1681L5.78571 7.44697L1.1224 2.80543C0.657036 2.34194 0.657129 1.59056 1.12261 1.12718Z" fill="#0B0B07"/>
</svg>
