<svg width="32" height="24" viewBox="0 0 32 24" fill="none" xmlns="http://www.w3.org/2000/svg">
<path d="M32 11.9976C32.0066 14.5377 31.1826 17.0103 29.6534 19.0385C29.5692 19.1506 29.4638 19.2449 29.3431 19.3162C29.2224 19.3875 29.0888 19.4344 28.9501 19.454C28.8113 19.4737 28.67 19.4659 28.5342 19.431C28.3985 19.396 28.2709 19.3347 28.1589 19.2505C28.0468 19.1663 27.9524 19.0608 27.8811 18.9401C27.8098 18.8194 27.763 18.6859 27.7433 18.5471C27.7237 18.4083 27.7315 18.267 27.7664 18.1313C27.8013 17.9955 27.8627 17.868 27.9469 17.7559C29.1986 16.0977 29.8729 14.0752 29.8668 11.9976C29.8668 9.45169 28.8554 7.01005 27.0552 5.20981C25.2549 3.40957 22.8133 2.39821 20.2674 2.39821C17.7214 2.39821 15.2798 3.40957 13.4796 5.20981C11.6793 7.01005 10.668 9.45169 10.668 11.9976C10.668 12.2805 10.5556 12.5518 10.3556 12.7518C10.1555 12.9518 9.88424 13.0642 9.60136 13.0642C9.31848 13.0642 9.04719 12.9518 8.84716 12.7518C8.64713 12.5518 8.53476 12.2805 8.53476 11.9976C8.53424 10.9212 8.68184 9.84993 8.9734 8.81381C8.82808 8.79781 8.68142 8.79781 8.53476 8.79781C6.83748 8.79781 5.20972 9.47205 4.00956 10.6722C2.8094 11.8724 2.13516 13.5001 2.13516 15.1974C2.13516 16.8947 2.8094 18.5225 4.00956 19.7226C5.20972 20.9228 6.83748 21.597 8.53476 21.597H11.7346C12.0174 21.597 12.2887 21.7094 12.4888 21.9094C12.6888 22.1094 12.8012 22.3807 12.8012 22.6636C12.8012 22.9465 12.6888 23.2178 12.4888 23.4178C12.2887 23.6178 12.0174 23.7302 11.7346 23.7302H8.53476C7.36173 23.7305 6.20125 23.4889 5.12579 23.0205C4.05033 22.5521 3.08299 21.8671 2.28418 21.008C1.48538 20.149 0.872273 19.1345 0.483154 18.0279C0.0940343 16.9213 -0.0627391 15.7464 0.0226247 14.5765C0.107989 13.4065 0.433656 12.2668 0.979287 11.2284C1.52492 10.19 2.27879 9.27525 3.19383 8.54128C4.10886 7.80732 5.16541 7.26991 6.29746 6.96261C7.42952 6.65531 8.61279 6.58473 9.77335 6.75527C10.9551 4.39163 12.9003 2.49617 15.2937 1.37592C17.6871 0.255665 20.3886 -0.0237736 22.9607 0.582866C25.5327 1.18951 27.8247 2.64669 29.4652 4.7184C31.1058 6.79011 31.9989 9.35499 32 11.9976ZM22.7125 17.6426L20.2674 20.0891V11.9976C20.2674 11.7147 20.155 11.4434 19.955 11.2434C19.7549 11.0434 19.4836 10.931 19.2008 10.931C18.9179 10.931 18.6466 11.0434 18.4466 11.2434C18.2465 11.4434 18.1342 11.7147 18.1342 11.9976V20.0891L15.689 17.6426C15.4888 17.4425 15.2174 17.33 14.9344 17.33C14.6513 17.33 14.3799 17.4425 14.1797 17.6426C13.9796 17.8427 13.8672 18.1142 13.8672 18.3972C13.8672 18.6803 13.9796 18.9517 14.1797 19.1518L18.4461 23.4182C18.5452 23.5174 18.6628 23.5961 18.7923 23.6497C18.9218 23.7034 19.0606 23.7311 19.2008 23.7311C19.3409 23.7311 19.4797 23.7034 19.6092 23.6497C19.7387 23.5961 19.8563 23.5174 19.9554 23.4182L24.2218 19.1518C24.4219 18.9517 24.5344 18.6803 24.5344 18.3972C24.5344 18.1142 24.4219 17.8427 24.2218 17.6426C24.0216 17.4425 23.7502 17.33 23.4672 17.33C23.1841 17.33 22.9127 17.4425 22.7125 17.6426Z" fill="#0B0B07"/>
</svg>
