<svg width="20" height="20" viewBox="0 0 20 20" fill="none" xmlns="http://www.w3.org/2000/svg">
<path d="M6 8.6C6.2691 8.6 6.51354 8.48762 6.69349 8.30542L7.67457 8.82048C7.66953 8.86296 7.66667 8.90607 7.66667 8.95C7.66667 9.52896 8.11528 10 8.66667 10C9.21806 10 9.66667 9.52896 9.66667 8.95C9.66667 8.78813 9.63151 8.63464 9.56892 8.49755L10.9024 7.09737C11.033 7.16309 11.1792 7.2 11.3333 7.2C11.8847 7.2 12.3333 6.72896 12.3333 6.15C12.3333 6.04063 12.3173 5.93517 12.2876 5.836L13.4461 4.92372C13.6048 5.03501 13.7952 5.1 14 5.1C14.5514 5.1 15 4.62896 15 4.05C15 3.47104 14.5514 3 14 3C13.4486 3 13 3.47104 13 4.05C13 4.15937 13.0161 4.26483 13.0457 4.364L11.8872 5.27628C11.7286 5.16499 11.5381 5.1 11.3333 5.1C10.7819 5.1 10.3333 5.57104 10.3333 6.15C10.3333 6.31188 10.3685 6.46536 10.4311 6.60245L9.09757 8.00263C8.96701 7.93691 8.82083 7.9 8.66667 7.9C8.39757 7.9 8.15313 8.01238 7.97318 8.19458L6.9921 7.67952C6.99714 7.63704 7 7.59393 7 7.55C7 6.97104 6.55139 6.5 6 6.5C5.44861 6.5 5 6.97104 5 7.55C5 8.12896 5.44861 8.6 6 8.6ZM14 3.7C14.1838 3.7 14.3333 3.85704 14.3333 4.05C14.3333 4.24296 14.1838 4.4 14 4.4C13.8162 4.4 13.6667 4.24296 13.6667 4.05C13.6667 3.85704 13.8162 3.7 14 3.7ZM11.3333 5.8C11.5171 5.8 11.6667 5.95704 11.6667 6.15C11.6667 6.34296 11.5171 6.5 11.3333 6.5C11.1496 6.5 11 6.34296 11 6.15C11 5.95704 11.1496 5.8 11.3333 5.8ZM8.66667 8.6C8.85043 8.6 9 8.75704 9 8.95C9 9.14296 8.85043 9.3 8.66667 9.3C8.4829 9.3 8.33333 9.14296 8.33333 8.95C8.33333 8.75704 8.4829 8.6 8.66667 8.6ZM6 7.2C6.18377 7.2 6.33333 7.35704 6.33333 7.55C6.33333 7.74296 6.18377 7.9 6 7.9C5.81623 7.9 5.66667 7.74296 5.66667 7.55C5.66667 7.35704 5.81623 7.2 6 7.2Z" fill="#0B0B07"/>
<path d="M14.707 16.4199H14.3945V10.2901C14.3945 10.1298 14.2634 10 14.1016 10H12.9297C12.7679 10 12.6367 10.1298 12.6367 10.2901V16.4199H12.0508V12.0304C12.0508 11.8702 11.9196 11.7403 11.7578 11.7403H10.5859C10.4241 11.7403 10.293 11.8702 10.293 12.0304V16.4199H9.70703V14.3508C9.70703 14.1906 9.57588 14.0608 9.41406 14.0608H8.24219C8.08037 14.0608 7.94922 14.1906 7.94922 14.3508V16.4199H7.36328V13.1906C7.36328 13.0304 7.23213 12.9006 7.07031 12.9006H5.89844C5.73662 12.9006 5.60547 13.0304 5.60547 13.1906V16.4199H5.29297C5.13115 16.4199 5 16.5497 5 16.7099C5 16.8702 5.13115 17 5.29297 17H14.707C14.8689 17 15 16.8702 15 16.7099C15 16.5497 14.8689 16.4199 14.707 16.4199ZM13.2227 10.5801H13.8086V16.4199H13.2227V10.5801ZM10.8789 12.3204H11.4648V16.4199H10.8789V12.3204ZM8.53516 14.6409H9.12109V16.4199H8.53516V14.6409ZM6.19141 13.4807H6.77734V16.4199H6.19141V13.4807Z" fill="#0B0B07"/>
</svg>
