<svg width="20" height="20" viewBox="0 0 20 20" fill="none" xmlns="http://www.w3.org/2000/svg">
<g clip-path="url(#clip0_1341_6825)">
<path fill-rule="evenodd" clip-rule="evenodd" d="M19.5505 2.92325L17.0619 2.9407L17.0785 0.451406C14.4157 0.901277 12.6295 2.02757 12.4293 5.01824C11.4649 4.47596 10.3519 4.16667 9.16667 4.16667C5.48477 4.16667 2.5 7.15144 2.5 10.8333C2.5 14.5152 5.48477 17.5 9.16667 17.5C12.8486 17.5 15.8333 14.5152 15.8333 10.8333C15.8333 9.84383 15.6178 8.90469 15.231 8.06029L13.9427 9.34898C14.0882 9.81795 14.1667 10.3165 14.1667 10.8333C14.1667 13.5948 11.9281 15.8333 9.16667 15.8333C6.40524 15.8333 4.16667 13.5948 4.16667 10.8333C4.16667 8.07191 6.40524 5.83333 9.16667 5.83333C10.2465 5.83333 11.2464 6.17565 12.0638 6.7577L10.2445 8.57697C9.91815 8.42079 9.55262 8.33333 9.16667 8.33333C7.78595 8.33333 6.66667 9.45262 6.66667 10.8333C6.66667 12.214 7.78595 13.3333 9.16667 13.3333C10.5474 13.3333 11.6667 12.214 11.6667 10.8333C11.6667 10.4474 11.5792 10.0818 11.423 9.75549L13.5948 7.58371C16.845 7.74651 18.9853 6.27318 19.5505 2.92325ZM14.1818 5.93213C15.3323 5.9347 17.0288 5.87528 17.485 4.60444L15.3841 4.61916L15.3981 2.51723C14.0622 2.99697 14.0678 4.61074 14.0707 5.82104L14.1818 5.93213Z" fill="#7EA703"/>
</g>
<defs>
<clipPath id="clip0_1341_6825">
<rect width="20" height="20" fill="white"/>
</clipPath>
</defs>
</svg>
