<svg width="19" height="20" viewBox="0 0 19 20" fill="none" xmlns="http://www.w3.org/2000/svg">
<path fill-rule="evenodd" clip-rule="evenodd" d="M1.55928 0C2.20903 0 2.73575 0.526724 2.73575 1.17647V7.35294C2.73575 7.67378 3.00315 7.94118 3.32399 7.94118H6.8534C7.00941 7.94118 7.15903 7.8792 7.26935 7.76889C7.37966 7.65857 7.44164 7.50895 7.44164 7.35294V1.17647C7.44164 0.526724 7.96836 0 8.61811 0C9.26785 0 9.79458 0.526724 9.79458 1.17647V7.35294C9.79458 8.13299 9.4847 8.88109 8.93313 9.43267C8.38155 9.98424 7.63345 10.2941 6.8534 10.2941H3.32399C1.70365 10.2941 0.382812 8.97328 0.382812 7.35294V1.17647C0.382812 0.526724 0.909536 0 1.55928 0Z" fill="black"/>
<path fill-rule="evenodd" clip-rule="evenodd" d="M5.0887 0C5.73844 0 6.26517 0.526724 6.26517 1.17647V18.8235C6.26517 19.4733 5.73844 20 5.0887 20C4.43895 20 3.91222 19.4733 3.91222 18.8235V1.17647C3.91222 0.526724 4.43895 0 5.0887 0Z" fill="black"/>
<path fill-rule="evenodd" clip-rule="evenodd" d="M13.4902 1.63676C14.5382 0.588759 15.9595 0 17.4416 0C17.7537 0 18.0529 0.123949 18.2735 0.34458C18.4942 0.565211 18.6181 0.864451 18.6181 1.17647V18.8235C18.6181 19.4733 18.0914 20 17.4416 20C16.7919 20 16.2652 19.4733 16.2652 18.8235V13.8235H14.7946C13.1742 13.8235 11.8534 12.5027 11.8534 10.8824V5.58824C11.8534 4.10614 12.4422 2.68475 13.4902 1.63676ZM16.2652 11.4706V2.57443C15.8525 2.73553 15.4733 2.98121 15.1539 3.30054C14.5472 3.90727 14.2063 4.73018 14.2063 5.58824V10.8824C14.2063 11.2032 14.4737 11.4706 14.7946 11.4706H16.2652Z" fill="black"/>
</svg>
