<svg width="32" height="32" viewBox="0 0 32 32" fill="none" xmlns="http://www.w3.org/2000/svg">
<g clip-path="url(#clip0_1341_6940)">
<path d="M30.1694 8.5919L31.5774 6.40257C32.256 5.3479 32.1067 3.96257 31.22 3.07457L28.9267 0.781238C28.04 -0.105429 26.6547 -0.254762 25.5987 0.423905L23.4094 1.8319C21.192 0.667904 18.6747 0.00123789 16.0014 0.00123789C7.17735 -9.54385e-05 1.72049e-05 7.17724 1.72049e-05 15.9999C1.72049e-05 18.6732 0.668017 21.1906 1.83068 23.4079L0.422684 25.5972C-0.255983 26.6519 -0.10665 28.0372 0.780017 28.9252L3.07335 31.2186C3.96002 32.1052 5.34535 32.2546 6.40135 31.5759L8.59068 30.1679C10.808 31.3319 13.3254 31.9986 15.9987 31.9986C24.8214 31.9986 31.9987 24.8212 31.9987 15.9986C31.9987 13.3252 31.3307 10.8079 30.168 8.59057L30.1694 8.5919ZM22 9.33324C23.104 9.33324 24 10.2292 24 11.3332C24 12.4372 23.104 13.3332 22 13.3332C20.896 13.3332 20 12.4372 20 11.3332C20 10.2292 20.896 9.33324 22 9.33324ZM12 6.66657H17.3334C17.3334 9.6119 14.9454 11.9999 12 11.9999V6.66657ZM6.66668 13.9999C6.66668 12.8959 7.56268 11.9999 8.66669 11.9999C9.77069 11.9999 10.6667 12.8959 10.6667 13.9999C10.6667 15.1039 9.77069 15.9999 8.66669 15.9999C7.56268 15.9999 6.66668 15.1039 6.66668 13.9999ZM13.3334 23.9999C10.388 23.9999 8.00002 21.6119 8.00002 18.6666H13.3334V23.9999ZM15.3334 17.3332C14.2294 17.3332 13.3334 16.4372 13.3334 15.3332C13.3334 14.2292 14.2294 13.3332 15.3334 13.3332C16.4374 13.3332 17.3334 14.2292 17.3334 15.3332C17.3334 16.4372 16.4374 17.3332 15.3334 17.3332ZM18 25.3332C16.896 25.3332 16 24.4372 16 23.3332C16 22.2292 16.896 21.3332 18 21.3332C19.104 21.3332 20 22.2292 20 23.3332C20 24.4372 19.104 25.3332 18 25.3332ZM23.7707 21.9999L20 18.2292L23.7707 14.4586C25.8534 16.5412 25.8534 19.9172 23.7707 21.9999Z" fill="black"/>
</g>
<defs>
<clipPath id="clip0_1341_6940">
<rect width="32" height="32" fill="white"/>
</clipPath>
</defs>
</svg>
