<svg width="36" height="36" viewBox="0 0 36 36" fill="none" xmlns="http://www.w3.org/2000/svg">
<path d="M16.3663 24.4111C16.2519 23.9695 15.9562 23.5916 15.555 23.3741C15.1533 23.1564 14.6745 23.1149 14.2412 23.2603L11.345 24.2323C10.912 24.3776 10.5552 24.6995 10.3662 25.1154C10.1773 25.5314 10.1695 26.0118 10.345 26.4336C10.5027 26.8128 10.652 27.1698 10.7895 27.4972C11.279 28.6628 12.426 29.3803 13.6345 29.3803C13.9784 29.3813 14.3323 29.3196 14.6694 29.1999C16.2373 28.6737 17.106 27.0189 16.647 25.4327C16.545 25.0801 16.4506 24.7364 16.3663 24.4111ZM14.2218 27.8666L14.1567 27.8884C13.3323 28.1651 12.4228 27.754 12.0863 26.9526C11.9494 26.6266 11.8007 26.271 11.6436 25.8934C11.6078 25.8075 11.6302 25.7335 11.6468 25.6971C11.6633 25.6607 11.7043 25.5952 11.7925 25.5656L14.6887 24.5936C14.7503 24.5685 14.8438 24.5843 14.8848 24.6106C14.9197 24.6295 14.9817 24.6746 15.0049 24.7638C15.0924 25.1018 15.1904 25.4583 15.296 25.8235C15.5448 26.6835 15.073 27.5809 14.2218 27.8666Z" fill="#0B0B07"/>
<path d="M15.2096 19.6586C15.1922 19.2103 15.193 18.7894 15.1938 18.3823C15.1958 17.3709 15.1978 16.325 14.92 14.8518C14.4834 12.5366 13.3843 10.7112 11.9046 9.84368C10.966 9.29333 9.95272 9.17599 8.97443 9.5043C7.66196 9.94476 6.69976 10.9563 6.26511 12.3526C5.82138 13.7781 5.93633 15.573 6.59751 17.5432C6.94242 18.5709 7.45512 19.9493 8.12146 21.6404C8.37682 22.2885 8.99745 22.6881 9.65872 22.6881C9.83326 22.6881 10.0107 22.6602 10.1849 22.6018L14.0842 21.2932C14.7754 21.0613 15.2382 20.3891 15.2096 19.6586ZM13.6368 19.9598L9.73743 21.2685C9.61301 21.31 9.47813 21.247 9.42998 21.1249C8.77251 19.4562 8.2681 18.1007 7.93088 17.0958C7.36436 15.4077 7.25268 13.9121 7.60796 12.7707C7.90908 11.8033 8.53631 11.1349 9.42182 10.8378C9.63692 10.7656 9.85276 10.7295 10.0687 10.7295C10.4448 10.7295 10.8211 10.8389 11.1932 11.057C12.3054 11.7091 13.1819 13.2252 13.5378 15.1125C13.7911 16.4552 13.7893 17.3899 13.7873 18.3795C13.7864 18.8008 13.7856 19.2364 13.8042 19.7134C13.8086 19.8257 13.7413 19.9247 13.6368 19.9598Z" fill="#0B0B07"/>
<path d="M24.6549 21.5292C24.6549 21.5292 24.6549 21.5292 24.6549 21.5292L21.7587 20.5572C21.3253 20.4117 20.8465 20.4533 20.4449 20.671C20.0437 20.8884 19.748 21.2664 19.6336 21.708C19.5493 22.0331 19.4549 22.3768 19.353 22.7295C18.8939 24.3158 19.7626 25.9706 21.3304 26.4967C21.6677 26.6166 22.0214 26.6782 22.3655 26.6772C23.5738 26.6772 24.721 25.9597 25.2104 24.7941C25.348 24.4668 25.4972 24.1097 25.655 23.7305C25.8304 23.3087 25.8226 22.8283 25.6337 22.4124C25.4448 21.9964 25.088 21.6745 24.6549 21.5292ZM24.3564 23.1902C24.1993 23.5679 24.0506 23.9235 23.9136 24.2495C23.5771 25.0509 22.6678 25.462 21.8433 25.1854L21.778 25.1634C20.9269 24.8778 20.4551 23.9804 20.7041 23.1203C20.8097 22.755 20.9076 22.3985 20.9951 22.0608C21.0182 21.9715 21.0802 21.9264 21.1152 21.9075C21.1562 21.8812 21.2495 21.8655 21.3112 21.8906L24.2075 22.8625C24.2957 22.8922 24.3367 22.9577 24.3532 22.9941C24.3697 23.0305 24.3921 23.1044 24.3564 23.1902Z" fill="#0B0B07"/>
<path d="M29.7348 9.6495C29.3002 8.25321 28.338 7.24168 27.0256 6.80118C26.0472 6.47286 25.034 6.59021 24.0953 7.14056C22.6157 8.00806 21.5166 9.83346 21.0799 12.1487C20.8021 13.6219 20.8041 14.6676 20.8061 15.679C20.8069 16.0862 20.8077 16.5072 20.7903 16.9555C20.7619 17.686 21.2247 18.3581 21.9157 18.59L25.815 19.8987C25.9893 19.9572 26.1666 19.985 26.3412 19.985C27.0025 19.985 27.6232 19.5854 27.8785 18.9373C28.5446 17.2468 29.0574 15.8684 29.4024 14.8401C30.0636 12.8699 30.1786 11.075 29.7348 9.6495ZM28.069 14.3926C27.7317 15.3979 27.2273 16.7535 26.5699 18.4217C26.5218 18.5439 26.3869 18.607 26.2625 18.5652L22.3631 17.2566C22.2586 17.2215 22.1913 17.1224 22.1956 17.0102C22.2142 16.5331 22.2134 16.0975 22.2126 15.6761C22.2106 14.6866 22.2088 13.7519 22.462 12.4093C22.8179 10.5219 23.6945 9.00581 24.8066 8.35377C25.3923 8.01036 25.9883 7.93661 26.578 8.1345C27.4635 8.43169 28.0908 9.10009 28.3919 10.0675C28.7472 11.2089 28.6356 12.7045 28.069 14.3926Z" fill="#0B0B07"/>
</svg>
