<svg width="15" height="16" viewBox="0 0 15 16" fill="none" xmlns="http://www.w3.org/2000/svg">
<path fill-rule="evenodd" clip-rule="evenodd" d="M7.46986 0.164873L7.20727 0L6.94285 0.16193C3.03338 2.55613 0.789939 6.32007 0.669173 9.56334C0.608457 11.1939 1.08703 12.7154 2.19578 13.829C3.30453 14.9426 4.98291 15.5878 7.2039 15.5878C9.6344 15.5878 11.4164 14.9505 12.5591 13.8338C13.7078 12.7111 14.137 11.1757 14.0034 9.54123C13.7387 6.3019 11.2699 2.55084 7.46986 0.164873ZM4.88806 14.2738C4.04966 14.0169 3.39504 13.6162 2.90443 13.1234C2.02981 12.245 1.61587 11.0135 1.66848 9.60055C1.77181 6.82546 3.68508 3.43909 7.20083 1.1805C10.6527 3.44734 12.7797 6.84468 13.0067 9.62267C13.1219 11.0318 12.7496 12.2493 11.8601 13.1186C11.4141 13.5545 10.8199 13.9207 10.0556 14.1784C10.653 13.4563 10.8796 12.4893 10.8797 11.5884C10.8798 10.4332 10.3021 9.08269 9.67504 7.91292C9.18502 6.99882 8.62795 6.13123 8.21345 5.48568L8.21343 5.48564C8.09057 5.29429 7.98023 5.12245 7.88788 4.97469L6.96388 3.49629V5.23969C6.96388 5.45858 6.86673 6.85901 6.58356 7.8383C6.51374 8.07976 6.43868 8.27339 6.36285 8.40976C6.33392 8.46176 6.30946 8.49719 6.29082 8.52088C6.20693 8.4521 6.07309 8.29804 5.89799 7.99162L5.39899 7.11836L5.00404 8.04335C4.56309 9.07605 4.11422 10.5739 4.12529 11.9262C4.13084 12.6046 4.25231 13.2868 4.58671 13.8581C4.67383 14.0069 4.77415 14.146 4.88806 14.2738ZM7.5442 8.11608C7.66856 7.68602 7.75995 7.19374 7.82509 6.73734C8.13936 7.23741 8.47907 7.7985 8.79369 8.38539C9.41623 9.5467 9.87977 10.7038 9.87967 11.5883C9.87957 12.4385 9.63749 13.2173 9.13928 13.6986C8.66638 14.1555 7.86099 14.4402 6.50001 14.103C5.9778 13.9736 5.65507 13.7037 5.44973 13.3529C5.23488 12.9859 5.12998 12.4962 5.12525 11.918C5.11822 11.0583 5.33303 10.0927 5.61273 9.25659C5.64499 9.28513 5.67764 9.31173 5.71072 9.33634C5.97713 9.53457 6.31038 9.62491 6.64601 9.48306C6.93197 9.36221 7.11688 9.11139 7.23678 8.8958C7.36407 8.66693 7.46402 8.39338 7.5442 8.11608Z" fill="white"/>
</svg>
