<svg width="20" height="20" viewBox="0 0 20 20" fill="none" xmlns="http://www.w3.org/2000/svg">
<g clip-path="url(#clip0_1125_3823)">
<path d="M5.83351 4.58333C5.83351 3.89333 6.39351 3.33333 7.08351 3.33333C7.77351 3.33333 8.33351 3.89333 8.33351 4.58333C8.33351 5.27333 7.77351 5.83333 7.08351 5.83333C6.39351 5.83333 5.83351 5.27333 5.83351 4.58333ZM20.0002 10.0442V15.1875C20.0002 16.4225 19.3268 17.5483 18.2452 18.1258C16.6377 18.9808 13.9035 20.0008 10.0002 20.0008C5.56601 20.0008 2.62518 17.8242 1.26685 16.5267C0.45518 15.7525 -0.00898641 14.6617 -0.00731975 13.5333C-0.00565308 12.2533 0.253513 8.91083 2.56685 5.3325C2.52601 5.08833 2.50018 4.83917 2.50018 4.58333C2.50018 2.05583 4.55601 0 7.08351 0C9.61101 0 11.6668 2.05583 11.6668 4.58333C11.6668 6.96833 9.83601 8.93083 7.50601 9.145C7.47601 9.685 7.41435 10.1925 7.31851 10.67C8.14768 10.3242 9.20685 10.0267 10.4168 10C10.9743 10 11.556 10.1033 11.9968 10.2517C12.3618 9.79333 14.3043 7.5 16.6668 7.5C17.0643 7.5 17.446 7.52 17.8018 7.56C19.0552 7.70083 20.0002 8.76833 20.0002 10.0433V10.0442ZM4.16685 4.58333C4.16685 6.19167 5.47518 7.5 7.08351 7.5C8.69185 7.5 10.0002 6.19167 10.0002 4.58333C10.0002 2.975 8.69185 1.66667 7.08351 1.66667C5.47518 1.66667 4.16685 2.975 4.16685 4.58333ZM18.3335 10.0442C18.3335 9.61833 18.0252 9.2625 17.6168 9.21667C17.3218 9.18333 17.0027 9.16667 16.6668 9.16667C15.4127 9.16667 14.111 10.3542 13.4927 11.0592C14.0893 11.5325 14.4152 11.9958 14.4418 12.0358C14.6985 12.4175 14.5968 12.9358 14.2152 13.1917C14.0727 13.2875 13.911 13.3333 13.751 13.3333C13.4843 13.3333 13.2218 13.2058 13.061 12.9683C13.0152 12.9033 12.091 11.6425 10.436 11.6667C8.05351 11.72 6.39101 13.1017 6.37351 13.115C6.36185 13.1242 6.14601 13.3033 5.74601 13.3033C5.38518 13.3033 4.91268 12.8925 5.00935 12.3933C5.04018 12.2975 5.09185 12.1 5.09268 12.0983C5.54935 11.2108 5.78601 10.2108 5.84851 8.9925C4.83601 8.70833 3.96601 8.08583 3.36601 7.25333C1.84851 10.0542 1.66018 12.525 1.65935 13.5358C1.65935 14.22 1.92768 14.8533 2.41768 15.3208C3.59601 16.4467 6.14851 18.3342 10.001 18.3342C13.5602 18.3342 16.0235 17.4208 17.4618 16.655C18.0002 16.3683 18.3343 15.8058 18.3343 15.1875L18.3335 10.0442Z" fill="#0B0B07"/>
</g>
<defs>
<clipPath id="clip0_1125_3823">
<rect width="20" height="20" fill="white"/>
</clipPath>
</defs>
</svg>
