<svg width="20" height="20" viewBox="0 0 20 20" fill="none" xmlns="http://www.w3.org/2000/svg">
<path d="M12.0835 11.25C12.0835 12.4008 11.151 13.3333 10.0002 13.3333C8.84937 13.3333 7.91687 12.4008 7.91687 11.25C7.91687 10.0992 8.84937 9.16667 10.0002 9.16667C11.151 9.16667 12.0835 10.0992 12.0835 11.25ZM18.5285 9.435C18.2177 9.0975 17.6894 9.07583 17.351 9.3875L12.6535 13.7242C12.3444 14.0092 11.9419 14.1667 11.5227 14.1667H8.47771C8.05771 14.1667 7.65604 14.01 7.34771 13.725L2.64937 9.3875C2.31187 9.07583 1.78354 9.09667 1.47187 9.435C1.15937 9.77333 1.18021 10.3008 1.51854 10.6125L6.21771 14.95C6.35771 15.0792 6.51021 15.1908 6.66771 15.2933V19.1667C6.66771 19.6267 7.04021 20 7.50104 20C7.96187 20 8.33437 19.6267 8.33437 19.1667V15.82C8.38271 15.8225 8.42937 15.8333 8.47854 15.8333H11.5235C11.5719 15.8333 11.6194 15.8217 11.6677 15.82V19.1667C11.6677 19.6267 12.0402 20 12.501 20C12.9619 20 13.3344 19.6267 13.3344 19.1667V15.2933C13.4919 15.1908 13.6444 15.0792 13.7852 14.95L18.4835 10.6125C18.821 10.3 18.8427 9.77333 18.5302 9.435H18.5285ZM5.83354 2.5C5.83354 1.12167 6.95521 0 8.33354 0C8.97354 0 9.55771 0.241667 10.0002 0.638333C10.4427 0.241667 11.0269 0 11.6669 0C13.0452 0 14.1669 1.12167 14.1669 2.5C14.1669 4.72833 11.1485 7.0575 11.0202 7.15583C10.7202 7.38417 10.3602 7.49917 10.0002 7.49917C9.64021 7.49917 9.28104 7.385 8.98104 7.15667C8.85187 7.05833 5.83354 4.7275 5.83354 2.5ZM7.50021 2.5C7.50021 3.38333 8.79354 4.91667 9.99104 5.83083C11.2069 4.91667 12.5002 3.3825 12.5002 2.5C12.5002 2.04083 12.1269 1.66667 11.6669 1.66667C11.2069 1.66667 10.8335 2.04083 10.8335 2.5C10.8335 2.95917 10.461 3.33333 10.0002 3.33333C9.53937 3.33333 9.16687 2.96 9.16687 2.5C9.16687 2.04 8.79354 1.66667 8.33354 1.66667C7.87354 1.66667 7.50021 2.04083 7.50021 2.5Z" fill="#0B0B07"/>
</svg>
