<svg width="16" height="16" viewBox="0 0 16 16" fill="none" xmlns="http://www.w3.org/2000/svg">
<g clip-path="url(#clip0_1341_6816)">
<path d="M13.5941 3.76881C13.4947 3.62445 13.3231 3.54767 13.1492 3.56958C12.9753 3.59158 12.8282 3.70875 12.7679 3.8733C12.6017 4.32695 12.384 4.7355 12.121 5.08769C12.0605 5.16859 11.9414 5.17184 11.8765 5.09503C10.8649 3.89817 10.2446 2.24464 10.1299 0.43899C10.1135 0.18067 9.89052 -0.0156247 9.63239 0.000967563C8.22233 0.0905843 6.87289 0.820705 5.83267 2.05681C4.82548 3.25364 4.14989 4.8758 3.93038 6.62445C3.918 6.72304 3.81867 6.78472 3.7254 6.75316C2.87654 6.46622 2.15098 5.67379 1.91997 4.78125C1.86726 4.57767 1.68543 4.43409 1.47517 4.43009C1.26531 4.42628 1.0777 4.56258 1.01727 4.764C0.527316 6.39691 0.365643 7.96402 0.536784 9.42182C0.703237 10.8398 1.17426 12.0887 1.93672 13.1338C3.31718 15.0258 5.64835 16 7.96241 16C10.6532 16 13.4637 14.6901 14.7774 12.2467C16.093 9.79954 15.6728 6.78869 13.5941 3.76881ZM5.47524 12.3167C5.3839 12.407 5.26482 12.452 5.14583 12.452C5.02493 12.452 4.9041 12.4055 4.81242 12.3127L4.24157 11.735V11.9739C4.24157 12.2328 4.03171 12.4426 3.77286 12.4426C3.51401 12.4426 3.30415 12.2328 3.30415 11.9739V8.76416C3.30415 8.50531 3.51401 8.29546 3.77286 8.29546C4.03171 8.29546 4.24157 8.50531 4.24157 8.76416V9.83816L4.72949 9.43938C4.92991 9.27555 5.22523 9.30527 5.38899 9.50569C5.55282 9.70614 5.52311 10.0014 5.32269 10.1652L4.59551 10.7595L5.47924 11.6539C5.66113 11.838 5.65934 12.1348 5.47524 12.3167ZM8.30338 11.9607C8.26136 12.0107 8.21564 12.0579 8.16746 12.1008C7.92095 12.3203 7.60589 12.4364 7.25632 12.4364C6.39571 12.4364 5.69553 11.7362 5.69553 10.8756C5.69553 10.015 6.39568 9.31483 7.25632 9.31483C7.56904 9.31483 7.87089 9.4071 8.12931 9.58168C8.34379 9.72661 8.40022 10.018 8.25529 10.2324C8.11037 10.4469 7.81899 10.5033 7.60454 10.3584C7.50171 10.289 7.38131 10.2522 7.25632 10.2522C6.9126 10.2522 6.63294 10.5319 6.63294 10.8756C6.63294 11.2193 6.91257 11.4989 7.25632 11.4989C7.37572 11.4989 7.4698 11.4669 7.54395 11.4008C7.55836 11.388 7.57226 11.3736 7.58526 11.3581C7.75162 11.1598 8.04725 11.1339 8.24561 11.3003C8.44387 11.4667 8.46974 11.7624 8.30338 11.9607ZM11.446 11.9713C11.446 12.2302 11.2361 12.44 10.9773 12.44C10.8398 12.44 10.7165 12.3805 10.6308 12.2862C10.44 12.3791 10.2259 12.4314 9.99976 12.4314C9.2023 12.4314 8.55358 11.7826 8.55358 10.9852C8.55358 10.1878 9.20233 9.53903 9.99976 9.53903C10.2259 9.53903 10.44 9.59128 10.6308 9.6842C10.7165 9.58993 10.8397 9.53037 10.9772 9.53037C11.2361 9.53037 11.4459 9.74023 11.4459 9.99908V11.9713H11.446ZM12.6939 11.9748C12.6939 12.2337 12.484 12.4435 12.2252 12.4435C11.9663 12.4435 11.7565 12.2337 11.7565 11.9748V8.71798C11.7565 8.45913 11.9663 8.24927 12.2252 8.24927C12.484 8.24927 12.6939 8.45913 12.6939 8.71798V11.9748Z" fill="#7EA703"/>
<path d="M9.99998 10.4764C9.71941 10.4764 9.49121 10.7047 9.49121 10.9852C9.49121 11.2657 9.71944 11.494 9.99998 11.494C10.2805 11.494 10.5087 11.2657 10.5087 10.9852C10.5087 10.7047 10.2805 10.4764 9.99998 10.4764Z" fill="#7EA703"/>
</g>
<defs>
<clipPath id="clip0_1341_6816">
<rect width="16" height="16" fill="white"/>
</clipPath>
</defs>
</svg>
