<svg width="20" height="20" viewBox="0 0 20 20" fill="none" xmlns="http://www.w3.org/2000/svg">
<mask id="mask0_1487_11972" style="mask-type:luminance" maskUnits="userSpaceOnUse" x="2" y="2" width="16" height="16">
<path d="M2 2H18V18H2V2Z" fill="white"/>
</mask>
<g mask="url(#mask0_1487_11972)">
<path fill-rule="evenodd" clip-rule="evenodd" d="M2 16.5938C2 17.3704 2.62962 18 3.40625 18H16.5938C17.3704 18 18 17.3704 18 16.5938V12.2188C18 11.4421 17.3704 10.8125 16.5938 10.8125H3.40625C2.62962 10.8125 2 11.4421 2 12.2188V16.5938ZM3.40625 17.0625C3.14738 17.0625 2.9375 16.8526 2.9375 16.5938V12.2188C2.9375 11.9599 3.14738 11.75 3.40625 11.75H16.5938C16.8526 11.75 17.0625 11.9599 17.0625 12.2188V16.5938C17.0625 16.8526 16.8526 17.0625 16.5938 17.0625H3.40625Z" fill="black"/>
<path fill-rule="evenodd" clip-rule="evenodd" d="M13.3474 16.3341C13.5493 16.2579 13.6511 16.0326 13.575 15.8307L12.4122 12.7496C12.4109 12.746 12.4095 12.7424 12.408 12.7389C12.2512 12.3578 11.7103 12.3573 11.5541 12.74C11.5529 12.7428 11.5518 12.7457 11.5507 12.7486L10.3772 15.8296C10.3005 16.0312 10.4017 16.2569 10.6033 16.3337C10.8049 16.4105 11.0306 16.3093 11.1073 16.1077L11.9799 13.8167L12.844 16.1066C12.9202 16.3084 13.1456 16.4103 13.3474 16.3341Z" fill="black"/>
<path fill-rule="evenodd" clip-rule="evenodd" d="M10.7188 15.2012C10.7188 15.4169 10.8936 15.5918 11.1094 15.5918H12.8506C13.0664 15.5918 13.2413 15.4169 13.2413 15.2012C13.2413 14.9854 13.0664 14.8105 12.8506 14.8105H11.1094C10.8936 14.8105 10.7188 14.9854 10.7188 15.2012Z" fill="black"/>
<path fill-rule="evenodd" clip-rule="evenodd" d="M14.9219 15.5781V12.8437C14.9219 12.628 14.747 12.4531 14.5312 12.4531C14.3155 12.4531 14.1406 12.628 14.1406 12.8437V15.9661C14.1406 16.1564 14.2778 16.319 14.4653 16.3511C14.4918 16.3557 14.5156 16.3567 14.5165 16.3567C14.524 16.3571 14.5316 16.3574 14.5379 16.3576C14.5507 16.3579 14.5664 16.3582 14.5833 16.3584C14.6175 16.3588 14.6633 16.3591 14.7157 16.3592C14.821 16.3595 14.9576 16.3593 15.0924 16.359C15.2274 16.3586 15.3612 16.358 15.4612 16.3576C15.5112 16.3573 15.5528 16.3571 15.5819 16.357L15.6277 16.3567C15.6277 16.3567 15.6277 16.3567 15.6255 15.9661C15.6234 15.5755 15.6234 15.5755 15.6233 15.5755L15.5779 15.5757C15.5489 15.5759 15.5075 15.5761 15.4576 15.5763C15.3578 15.5768 15.2246 15.5773 15.0903 15.5777C15.0334 15.5779 14.9765 15.578 14.9219 15.5781ZM14.5522 15.5763C14.552 15.5763 14.5538 15.5764 14.558 15.5766C14.5545 15.5763 14.5524 15.5763 14.5522 15.5763ZM16.0162 15.9639C16.0149 15.7482 15.8391 15.5743 15.6233 15.5755L15.6255 15.9661L15.6277 16.3567C15.8434 16.3555 16.0174 16.1797 16.0162 15.9639Z" fill="black"/>
<path fill-rule="evenodd" clip-rule="evenodd" d="M8.59763 15.5781C7.95043 15.5781 7.42578 15.0535 7.42578 14.4062C7.42578 13.759 7.95043 13.2344 8.59763 13.2344C8.8409 13.2344 9.06576 13.3081 9.2525 13.4342C9.43125 13.555 9.67408 13.5081 9.79487 13.3293C9.91567 13.1506 9.86868 12.9077 9.68993 12.7869C9.37799 12.5761 9.00154 12.4531 8.59763 12.4531C7.51894 12.4531 6.64453 13.3276 6.64453 14.4062C6.64453 15.4849 7.51894 16.3594 8.59763 16.3594C9.03925 16.3594 9.42114 16.2118 9.7148 15.9503M8.59763 15.5781C8.85691 15.5781 9.05146 15.495 9.19534 15.3668L8.59763 15.5781ZM9.28264 15.2767C9.25515 15.3095 9.2261 15.3394 9.19551 15.3667L9.19534 15.3668M9.71481 15.9503C9.77484 15.8969 9.83029 15.8395 9.8813 15.7786C10.0199 15.6133 9.99826 15.3669 9.83294 15.2283C9.66763 15.0897 9.42125 15.1114 9.28264 15.2767" fill="black"/>
<path fill-rule="evenodd" clip-rule="evenodd" d="M4.375 16.3594C4.59074 16.3594 4.76562 16.1845 4.76562 15.9687V12.8437C4.76562 12.628 4.59074 12.4531 4.375 12.4531C4.15926 12.4531 3.98438 12.628 3.98438 12.8437V15.9687C3.98438 16.1845 4.15926 16.3594 4.375 16.3594Z" fill="black"/>
<path fill-rule="evenodd" clip-rule="evenodd" d="M6.44966 16.24C6.59944 16.0847 6.59501 15.8374 6.43974 15.6876L5.0463 14.3433L6.32194 13.1708C6.48077 13.0248 6.49118 12.7777 6.34518 12.6188C6.19919 12.46 5.95208 12.4496 5.79325 12.5956L4.21222 14.0488C4.13295 14.1217 4.08727 14.2241 4.08597 14.3317C4.08467 14.4394 4.12786 14.5428 4.20535 14.6176L5.89732 16.2499C6.05258 16.3997 6.29987 16.3952 6.44966 16.24Z" fill="black"/>
<path fill-rule="evenodd" clip-rule="evenodd" d="M13.125 6.0625C13.3839 6.0625 13.5938 5.85263 13.5938 5.59375V2.46875C13.5938 2.20987 13.3839 2 13.125 2C12.8661 2 12.6562 2.20987 12.6562 2.46875V5.59375C12.6562 5.85263 12.8661 6.0625 13.125 6.0625Z" fill="black"/>
<path fill-rule="evenodd" clip-rule="evenodd" d="M15 6.0625C15.2589 6.0625 15.4688 5.85263 15.4688 5.59375V2.46875C15.4688 2.20987 15.2589 2 15 2C14.7411 2 14.5312 2.20987 14.5312 2.46875V5.59375C14.5312 5.85263 14.7411 6.0625 15 6.0625Z" fill="black"/>
<path fill-rule="evenodd" clip-rule="evenodd" d="M11.25 6.0625C11.5089 6.0625 11.7188 5.85263 11.7188 5.59375V2.46875C11.7188 2.20987 11.5089 2 11.25 2C10.9911 2 10.7812 2.20987 10.7812 2.46875V5.59375C10.7812 5.85263 10.9911 6.0625 11.25 6.0625Z" fill="black"/>
<path fill-rule="evenodd" clip-rule="evenodd" d="M11.7188 11.2813C11.7188 11.5401 11.9286 11.75 12.1875 11.75H14.0625C14.3214 11.75 14.5313 11.5401 14.5313 11.2813V9.06916C14.5313 8.76904 14.6505 8.48117 14.8627 8.26896C15.2507 7.88092 15.4688 7.3546 15.4688 6.80584V5.59375C15.4688 5.33487 15.2589 5.125 15 5.125H11.25C10.9911 5.125 10.7812 5.33487 10.7812 5.59375V6.80584C10.7812 7.3546 10.9993 7.88092 11.3873 8.26896C11.5995 8.48117 11.7188 8.76904 11.7188 9.06916V11.2813ZM12.6563 10.8125V9.06916C12.6563 8.5204 12.4382 7.99408 12.0502 7.60604C11.838 7.39383 11.7188 7.10596 11.7188 6.80584V6.0625H14.5313V6.80584C14.5313 7.10596 14.412 7.39383 14.1998 7.60604C13.8118 7.99408 13.5938 8.5204 13.5938 9.06916V10.8125H12.6563Z" fill="black"/>
<path fill-rule="evenodd" clip-rule="evenodd" d="M5.78125 11.2812C5.78125 11.5401 5.99112 11.75 6.25 11.75H8.125C8.38388 11.75 8.59375 11.5401 8.59375 11.2812V8.06523C9.36681 7.47175 9.84375 6.42546 9.84375 5.28125C9.84375 3.58551 8.75731 2 7.1875 2C5.61772 2 4.53125 3.58551 4.53125 5.28125C4.53125 6.42546 5.00819 7.47175 5.78125 8.06523V11.2812ZM6.71875 10.8125V7.81947C6.71875 7.65626 6.63386 7.5048 6.49463 7.41962C5.92184 7.06918 5.46875 6.27284 5.46875 5.28125C5.46875 3.87037 6.34109 2.9375 7.1875 2.9375C8.03394 2.9375 8.90625 3.87036 8.90625 5.28125C8.90625 6.27284 8.45316 7.06918 7.88036 7.41962C7.74114 7.5048 7.65625 7.65626 7.65625 7.81947V10.8125H6.71875Z" fill="black"/>
</g>
</svg>
