<svg width="16" height="20" viewBox="0 0 16 20" fill="none" xmlns="http://www.w3.org/2000/svg">
<path d="M9.67442 2.16495C9.67442 3.08447 8.92476 3.8299 8 3.8299C7.07524 3.8299 6.32558 3.08447 6.32558 2.16495C6.32558 1.24542 7.07524 0.5 8 0.5C8.92476 0.5 9.67442 1.24542 9.67442 2.16495Z" fill="#B1EB04"/>
<path fill-rule="evenodd" clip-rule="evenodd" d="M2.11684 3.60638C1.87001 3.38199 1.56068 3.24227 1.23491 3.24227H0.172861C0.0773926 3.24227 0 3.32395 0 3.42471C0 3.48745 0.0303108 3.54549 0.0803425 3.57938C1.84598 4.77539 3.65358 6.8218 5.0808 9.43079C6.89189 12.7415 7.65339 16.1591 7.31418 18.6007C7.25109 19.0548 7.56539 19.5 8.00022 19.5C8.43505 19.5 8.74934 19.0548 8.68626 18.6007C8.34705 16.1591 9.10854 12.7415 10.9196 9.43078C12.3467 6.82204 14.1541 4.77577 15.9196 3.57972C15.9697 3.5458 16 3.4877 16 3.42489C16 3.32403 15.9225 3.24227 15.827 3.24227H14.6445C14.2869 3.24227 13.9476 3.39612 13.6751 3.6405C12.22 4.94549 10.1771 5.75727 7.91487 5.75727C5.633 5.75727 3.57427 4.93133 2.11684 3.60638Z" fill="#B1EB04"/>
</svg>
