<svg width="28" height="28" viewBox="0 0 28 28" fill="none" xmlns="http://www.w3.org/2000/svg">
<path d="M27.333 4.61834C27.333 4.88027 27.229 5.13147 27.0437 5.31668C26.8585 5.50189 26.6073 5.60594 26.3454 5.60594H24.3702V7.58112C24.3702 7.84305 24.2662 8.09425 24.081 8.27946C23.8958 8.46467 23.6446 8.56872 23.3826 8.56872C23.1207 8.56872 22.8695 8.46467 22.6843 8.27946C22.4991 8.09425 22.395 7.84305 22.395 7.58112V5.60594H20.4198C20.1579 5.60594 19.9067 5.50189 19.7215 5.31668C19.5363 5.13147 19.4323 4.88027 19.4323 4.61834C19.4323 4.35642 19.5363 4.10522 19.7215 3.92001C19.9067 3.7348 20.1579 3.63075 20.4198 3.63075H22.395V1.65556C22.395 1.39364 22.4991 1.14244 22.6843 0.957228C22.8695 0.772018 23.1207 0.667969 23.3826 0.667969C23.6446 0.667969 23.8958 0.772018 24.081 0.957228C24.2662 1.14244 24.3702 1.39364 24.3702 1.65556V3.63075H26.3454C26.6073 3.63075 26.8585 3.7348 27.0437 3.92001C27.229 4.10522 27.333 4.35642 27.333 4.61834ZM25.3578 12.5191V18.9384C25.3582 19.9293 25.0274 20.8918 24.4181 21.6731C23.8087 22.4545 22.9558 23.0097 21.9947 23.2508C21.0336 23.4918 20.0196 23.4047 19.1136 23.0034C18.2077 22.6021 17.4619 21.9096 16.9946 21.0358C16.5274 20.1621 16.3655 19.1572 16.5348 18.181C16.704 17.2047 17.1947 16.313 17.9288 15.6475C18.6629 14.982 19.5983 14.5809 20.5864 14.508C21.5746 14.435 22.5588 14.6944 23.3826 15.2448V12.5191C23.3826 12.2572 23.4867 12.006 23.6719 11.8208C23.8571 11.6355 24.1083 11.5315 24.3702 11.5315C24.6321 11.5315 24.8833 11.6355 25.0686 11.8208C25.2538 12.006 25.3578 12.2572 25.3578 12.5191ZM23.3826 18.9384C23.3826 18.4501 23.2378 17.9728 22.9665 17.5668C22.6952 17.1607 22.3096 16.8443 21.8585 16.6574C21.4073 16.4705 20.9109 16.4216 20.432 16.5169C19.953 16.6122 19.5131 16.8473 19.1678 17.1926C18.8225 17.5379 18.5874 17.9778 18.4921 18.4568C18.3968 18.9357 18.4457 19.4321 18.6326 19.8833C18.8195 20.3344 19.1359 20.72 19.5419 20.9913C19.948 21.2626 20.4253 21.4074 20.9136 21.4074C21.5685 21.4074 22.1965 21.1473 22.6595 20.6843C23.1225 20.2213 23.3826 19.5933 23.3826 18.9384ZM9.55632 12.3031V22.8888C9.55668 23.8797 9.22592 24.8422 8.61658 25.6235C8.00724 26.4048 7.15427 26.9601 6.1932 27.2011C5.23213 27.4422 4.21807 27.3551 3.31215 26.9538C2.40622 26.5525 1.66039 25.8599 1.19314 24.9862C0.725897 24.1124 0.564041 23.1076 0.73329 22.1313C0.90254 21.1551 1.39319 20.2633 2.12728 19.5979C2.86137 18.9324 3.79679 18.5313 4.78494 18.4584C5.77309 18.3854 6.75727 18.6448 7.58113 19.1952V5.60594C7.58116 5.38571 7.65481 5.17181 7.79035 4.99824C7.9259 4.82466 8.11558 4.70138 8.32923 4.64797L15.2424 2.91968C15.4947 2.86118 15.7599 2.90413 15.9808 3.03928C16.2017 3.17443 16.3607 3.39096 16.4236 3.64223C16.4864 3.89349 16.448 4.15937 16.3166 4.38259C16.1853 4.60581 15.9715 4.7685 15.7214 4.83561L9.55632 6.37749V10.2661L18.2052 8.10455C18.4575 8.04605 18.7227 8.089 18.9436 8.22415C19.1645 8.3593 19.3235 8.57583 19.3863 8.82709C19.4492 9.07835 19.4108 9.34424 19.2794 9.56746C19.1481 9.79068 18.9343 9.95337 18.6841 10.0205L9.55632 12.3031ZM7.58113 22.8888C7.58113 22.4005 7.43633 21.9232 7.16503 21.5171C6.89374 21.1111 6.50813 20.7947 6.05698 20.6078C5.60584 20.4209 5.10941 20.372 4.63047 20.4673C4.15154 20.5625 3.7116 20.7977 3.36631 21.143C3.02102 21.4883 2.78587 21.9282 2.6906 22.4071C2.59534 22.8861 2.64423 23.3825 2.8311 23.8337C3.01797 24.2848 3.33443 24.6704 3.74045 24.9417C4.14647 25.213 4.62383 25.3578 5.11215 25.3578C5.76696 25.3578 6.39496 25.0977 6.85798 24.6347C7.32101 24.1716 7.58113 23.5436 7.58113 22.8888Z" fill="#0B0B07"/>
</svg>
