<svg width="24" height="24" viewBox="0 0 24 24" fill="none" xmlns="http://www.w3.org/2000/svg">
<path d="M19.9702 7.83291L20.7622 6.60139C21.144 6.00812 21.06 5.22886 20.5612 4.72935L19.2712 3.43932C18.7724 2.94056 17.9931 2.85656 17.3991 3.23831L16.1676 4.03033C14.9203 3.37557 13.5043 3.00056 12.0005 3.00056C7.03692 2.99981 2.99958 7.03714 2.99958 12C2.99958 13.5038 3.37534 14.9198 4.02935 16.1671L3.23734 17.3986C2.85558 17.9919 2.93958 18.7711 3.43834 19.2707L4.72837 20.5607C5.22713 21.0594 6.0064 21.1434 6.60041 20.7617L7.83193 19.9697C9.07921 20.6244 10.4952 20.9994 11.999 20.9994C16.9619 20.9994 20.9992 16.9621 20.9992 11.9992C20.9992 10.4955 20.6235 9.07944 19.9694 7.83216L19.9702 7.83291ZM11.9998 19.5002C7.86419 19.5002 4.49961 16.1356 4.49961 12C4.49961 7.86441 7.86419 4.49984 11.9998 4.49984C16.1354 4.49984 19.4999 7.86441 19.4999 12C19.4999 16.1356 16.1354 19.5002 11.9998 19.5002ZM14.2498 16.1251C14.2498 16.7461 13.7458 17.2501 13.1248 17.2501C12.5038 17.2501 11.9998 16.7461 11.9998 16.1251C11.9998 15.5041 12.5038 15.0001 13.1248 15.0001C13.7458 15.0001 14.2498 15.5041 14.2498 16.1251ZM7.87469 12C7.25367 12 6.74966 11.496 6.74966 10.875C6.74966 10.254 7.25367 9.74995 7.87469 9.74995C8.4957 9.74995 8.99971 10.254 8.99971 10.875C8.99971 11.496 8.4957 12 7.87469 12ZM11.6248 12.75C11.0038 12.75 10.4997 12.246 10.4997 11.625C10.4997 11.004 11.0038 10.5 11.6248 10.5C12.2458 10.5 12.7498 11.004 12.7498 11.625C12.7498 12.246 12.2458 12.75 11.6248 12.75ZM14.2498 9.37494C14.2498 8.75393 14.7538 8.24992 15.3748 8.24992C15.9959 8.24992 16.4999 8.75393 16.4999 9.37494C16.4999 9.99596 15.9959 10.5 15.3748 10.5C14.7538 10.5 14.2498 9.99596 14.2498 9.37494ZM7.49968 13.5H10.4997V16.5001C8.84296 16.5001 7.49968 15.1568 7.49968 13.5ZM16.3709 11.1322C17.5424 12.3038 17.5424 14.2035 16.3709 15.3751L14.2498 13.254L16.3709 11.1322ZM9.74973 9.74995V6.74989H12.7498C12.7498 8.40667 11.4065 9.74995 9.74973 9.74995Z" fill="black"/>
</svg>
