<svg width="18" height="20" viewBox="0 0 18 20" fill="none" xmlns="http://www.w3.org/2000/svg">
<path d="M12.7695 8.59375C12.7695 8.16227 12.4198 7.8125 11.9883 7.8125H3.94141C3.50992 7.8125 3.16016 8.16227 3.16016 8.59375C3.16016 9.02523 3.50992 9.375 3.94141 9.375H11.9883C12.4198 9.375 12.7695 9.02523 12.7695 8.59375Z" fill="#0B0B07"/>
<path d="M3.94141 10.9375C3.50992 10.9375 3.16016 11.2873 3.16016 11.7188C3.16016 12.1502 3.50992 12.5 3.94141 12.5H8.82856C9.26004 12.5 9.60981 12.1502 9.60981 11.7188C9.60981 11.2873 9.26004 10.9375 8.82856 10.9375H3.94141Z" fill="#0B0B07"/>
<path d="M5.77691 18.4375H3.16406C2.3025 18.4375 1.60156 17.7366 1.60156 16.875V3.125C1.60156 2.26344 2.3025 1.5625 3.16406 1.5625H12.7691C13.6307 1.5625 14.3316 2.26344 14.3316 3.125V7.92969C14.3316 8.36117 14.6814 8.71094 15.1129 8.71094C15.5443 8.71094 15.8941 8.36117 15.8941 7.92969V3.125C15.8941 1.40188 14.4922 0 12.7691 0H3.16406C1.44094 0 0.0390625 1.40188 0.0390625 3.125V16.875C0.0390625 18.5981 1.44094 20 3.16406 20H5.77691C6.2084 20 6.55816 19.6502 6.55816 19.2188C6.55816 18.7873 6.2084 18.4375 5.77691 18.4375Z" fill="#0B0B07"/>
<path d="M17.2784 11.3114C16.3646 10.3976 14.8777 10.3976 13.9645 11.3108L9.67527 15.5905C9.58418 15.6814 9.51699 15.7934 9.47957 15.9165L8.54547 18.9917C8.46266 19.2643 8.5348 19.5604 8.73379 19.7643C8.88285 19.9171 9.08535 20 9.29305 20C9.36254 20 9.43269 19.9907 9.50156 19.9716L12.6549 19.0982C12.7846 19.0622 12.9029 18.9934 12.9982 18.8982L17.2784 14.626C18.1923 13.7122 18.1923 12.2253 17.2784 11.3114ZM12.0398 17.6472L10.4534 18.0867L10.9177 16.5582L13.8118 13.6705L14.9168 14.7756L12.0398 17.6472ZM16.1741 13.5207L16.0228 13.6718L14.9179 12.5669L15.0687 12.4164C15.3734 12.1118 15.869 12.1118 16.1736 12.4164C16.4782 12.721 16.4782 13.2166 16.1741 13.5207Z" fill="#0B0B07"/>
<path d="M11.9883 4.6875H3.94141C3.50992 4.6875 3.16016 5.03727 3.16016 5.46875C3.16016 5.90023 3.50992 6.25 3.94141 6.25H11.9883C12.4198 6.25 12.7695 5.90023 12.7695 5.46875C12.7695 5.03727 12.4198 4.6875 11.9883 4.6875Z" fill="#0B0B07"/>
</svg>
