<svg width="26" height="24" viewBox="0 0 26 24" fill="none" xmlns="http://www.w3.org/2000/svg">
<path d="M25.4454 2.7113L22.9189 0.184971C22.6726 -0.061451 22.2729 -0.0617599 22.0264 0.184662C22.0264 0.184817 22.0262 0.184971 22.0259 0.184971L14.4471 7.76411C14.3286 7.88245 14.2621 8.04298 14.2621 8.21045V10.7369C14.2621 11.0856 14.5449 11.3684 14.8936 11.3684H17.4201C17.5875 11.3684 17.7481 11.3019 17.8664 11.1834L25.4454 3.60444C25.692 3.35802 25.6921 2.95834 25.4458 2.71176C25.4457 2.71176 25.4457 2.71145 25.4454 2.7113ZM17.1585 10.1054H15.5252V8.47217L22.4726 1.52477L24.1057 3.15795L17.1585 10.1054Z" fill="#0B0B07"/>
<path d="M23.7356 7.57902C23.3869 7.57902 23.1041 7.86175 23.1041 8.21045V17.0526C23.1031 18.0985 22.2553 18.9463 21.2094 18.9475H14.8936C14.7568 18.9472 14.6238 18.9915 14.5146 19.0737L10.4725 22.1054V19.5791C10.4725 19.2302 10.1898 18.9475 9.84092 18.9475H3.5251C2.47916 18.9463 1.63143 18.0985 1.63051 17.0528V5.68412C1.63159 4.63833 2.47916 3.79061 3.5251 3.78953H14.8936C15.2424 3.78953 15.5252 3.5068 15.5252 3.15795C15.5252 2.80925 15.2424 2.52652 14.8936 2.52652H3.5251C1.78176 2.52822 0.368887 3.94109 0.367188 5.68412V17.0528C0.368887 18.7959 1.78176 20.2088 3.5251 20.2107H9.20934V23.3686C9.20934 23.7173 9.49206 24 9.84092 24C9.97765 24 10.1105 23.9557 10.2199 23.8738L15.1048 20.2105H21.2094C22.9527 20.2088 24.3654 18.7959 24.3673 17.0526V8.2106C24.3673 7.86175 24.0844 7.57902 23.7356 7.57902Z" fill="#0B0B07"/>
<path d="M11.1039 6.31586H4.78842C4.43941 6.31586 4.15668 6.59859 4.15668 6.94744C4.15668 7.29614 4.43941 7.57887 4.78842 7.57887H11.1039C11.4528 7.57887 11.7357 7.29614 11.7357 6.94744C11.7357 6.59859 11.4528 6.31586 11.1039 6.31586Z" fill="#0B0B07"/>
<path d="M4.78842 11.3685H11.1039C11.4528 11.3685 11.7357 11.0856 11.7357 10.7369C11.7357 10.3881 11.4528 10.1054 11.1039 10.1054H4.78842C4.43941 10.1054 4.15668 10.3881 4.15668 10.7369C4.15668 11.0856 4.43941 11.3685 4.78842 11.3685Z" fill="#0B0B07"/>
<path d="M4.78842 15.1579H19.9462C20.2951 15.1579 20.5777 14.8751 20.5777 14.5263C20.5777 14.1776 20.2949 13.8948 19.9462 13.8948H4.78842C4.43941 13.8948 4.15668 14.1776 4.15668 14.5263C4.15668 14.8751 4.43941 15.1579 4.78842 15.1579Z" fill="#0B0B07"/>
</svg>
