<svg width="22" height="22" viewBox="0 0 22 22" fill="none" xmlns="http://www.w3.org/2000/svg">
<path d="M3.28749 12.8236C4.05446 9.09555 7.26065 6.44663 10.8672 6.44663C14.4726 6.44663 17.6788 9.09555 18.4469 12.8236C18.4773 12.9716 18.5646 13.1012 18.6894 13.184C18.8143 13.2669 18.9665 13.2961 19.1127 13.2653C19.2588 13.2345 19.3869 13.1462 19.4687 13.0198C19.5505 12.8934 19.5794 12.7393 19.549 12.5914C18.6752 8.35108 15.0203 5.30829 10.8672 5.30829C6.71411 5.30829 3.0592 8.35108 2.1854 12.5914C2.15498 12.7393 2.18386 12.8934 2.26569 13.0198C2.34752 13.1462 2.47559 13.2345 2.62174 13.2653C2.76788 13.2961 2.92013 13.2669 3.04498 13.184C3.16984 13.1012 3.25707 12.9716 3.28749 12.8236ZM10.856 8.72331C11.8999 8.72331 12.901 9.14308 13.6392 9.89026C14.3773 10.6374 14.792 11.6508 14.792 12.7075C14.792 13.7642 14.3773 14.7776 13.6392 15.5248C12.901 16.2719 11.8999 16.6917 10.856 16.6917C9.81205 16.6917 8.8109 16.2719 8.07275 15.5248C7.33459 14.7776 6.9199 13.7642 6.9199 12.7075C6.9199 11.6508 7.33459 10.6374 8.07275 9.89026C8.8109 9.14308 9.81205 8.72331 10.856 8.72331Z" fill="#6A707C"/>
<path d="M3.54077 20L19.5408 4" stroke="#6A707C" stroke-linecap="round"/>
</svg>
