<svg width="20" height="20" viewBox="0 0 20 20" fill="none" xmlns="http://www.w3.org/2000/svg">
<g clip-path="url(#clip0_2409_28094)">
<path d="M1.66797 4.16696V15.8336C1.66797 16.5503 2.5113 16.932 3.05047 16.4611L9.71714 10.6278C9.80664 10.5496 9.87838 10.4531 9.92754 10.3449C9.97669 10.2367 10.0021 10.1192 10.0021 10.0003C10.0021 9.88142 9.97669 9.76393 9.92754 9.6557C9.87838 9.54747 9.80664 9.45101 9.71714 9.37279L3.05047 3.53946C2.5113 3.06862 1.66797 3.45112 1.66797 4.16696Z" fill="#0B0B07"/>
<path d="M10.832 4.16696V15.8336C10.832 16.5503 11.6754 16.932 12.2145 16.4611L18.8812 10.6278C18.9707 10.5496 19.0424 10.4531 19.0916 10.3449C19.1408 10.2367 19.1662 10.1192 19.1662 10.0003C19.1662 9.88142 19.1408 9.76393 19.0916 9.6557C19.0424 9.54747 18.9707 9.45101 18.8812 9.37279L12.2145 3.53946C11.6754 3.06862 10.832 3.45112 10.832 4.16696Z" fill="#0B0B07"/>
</g>
<defs>
<clipPath id="clip0_2409_28094">
<rect width="20" height="20" fill="white"/>
</clipPath>
</defs>
</svg>
