<svg width="20" height="20" viewBox="0 0 20 20" fill="none" xmlns="http://www.w3.org/2000/svg">
<g clip-path="url(#clip0_2409_28087)">
<path d="M18.332 4.16696V15.8336C18.332 16.5503 17.4887 16.932 16.9495 16.4611L10.2829 10.6278C10.1934 10.5496 10.1216 10.4531 10.0725 10.3449C10.0233 10.2367 9.99788 10.1192 9.99788 10.0003C9.99788 9.88142 10.0233 9.76393 10.0725 9.6557C10.1216 9.54747 10.1934 9.45101 10.2829 9.37279L16.9495 3.53946C17.4887 3.06862 18.332 3.45112 18.332 4.16696Z" fill="#0B0B07"/>
<path d="M9.16797 4.16696V15.8336C9.16797 16.5503 8.32464 16.932 7.78547 16.4611L1.1188 10.6278C1.02929 10.5496 0.957556 10.4531 0.908402 10.3449C0.859249 10.2367 0.833818 10.1192 0.833818 10.0003C0.833818 9.88142 0.859249 9.76393 0.908402 9.6557C0.957556 9.54747 1.02929 9.45101 1.1188 9.37279L7.78547 3.53946C8.32464 3.06862 9.16797 3.45112 9.16797 4.16696Z" fill="#0B0B07"/>
</g>
<defs>
<clipPath id="clip0_2409_28087">
<rect width="20" height="20" fill="white" transform="matrix(-1 0 0 1 20 0)"/>
</clipPath>
</defs>
</svg>
