<svg width="36" height="36" viewBox="0 0 36 36" fill="none" xmlns="http://www.w3.org/2000/svg">
<g clip-path="url(#clip0_2409_28091)">
<path d="M9 6.00042V30.0004C8.99992 30.2673 9.07106 30.5294 9.20607 30.7596C9.34108 30.9899 9.53508 31.1799 9.76804 31.3101C10.001 31.4404 10.2645 31.5061 10.5313 31.5005C10.7982 31.4949 11.0587 31.4183 11.286 31.2784L30.786 19.2784C31.0044 19.1442 31.1848 18.9563 31.3099 18.7326C31.435 18.5088 31.5007 18.2568 31.5007 18.0004C31.5007 17.7441 31.435 17.492 31.3099 17.2683C31.1848 17.0446 31.0044 16.8566 30.786 16.7224L11.286 4.72242C11.0587 4.58257 10.7982 4.5059 10.5313 4.50033C10.2645 4.49475 10.001 4.56048 9.76804 4.69071C9.53508 4.82095 9.34108 5.01099 9.20607 5.24122C9.07106 5.47145 8.99992 5.73353 9 6.00042Z" fill="#0B0B07"/>
</g>
<defs>
<clipPath id="clip0_2409_28091">
<rect width="36" height="36" fill="white"/>
</clipPath>
</defs>
</svg>
