<svg width="20" height="20" viewBox="0 0 20 20" fill="none" xmlns="http://www.w3.org/2000/svg">
<path d="M11.6834 5.33848C9.20394 4.83023 7.26599 2.93527 6.7463 0.51082C6.68246 0.213203 6.414 0 6.10292 0C5.79184 0 5.52339 0.213203 5.45959 0.510859C4.93986 2.93527 3.00191 4.8302 0.522489 5.33836C0.21808 5.40074 0 5.66328 0 5.96742C0 6.27156 0.21804 6.5341 0.522489 6.59648C3.00187 7.10473 4.93974 8.99965 5.45947 11.4241C5.52327 11.7217 5.79172 11.935 6.1028 11.935C6.41385 11.935 6.68234 11.7218 6.74614 11.4241C7.26591 8.99965 9.2039 7.10473 11.6833 6.5966C11.9877 6.53422 12.2058 6.27172 12.2058 5.96754C12.2058 5.6634 11.9877 5.40086 11.6834 5.33848Z" fill="#0B0B07"/>
<path d="M10.5968 15.9564C9.42857 15.717 8.51551 14.8242 8.27058 13.6818C8.20678 13.3842 7.93833 13.1709 7.62725 13.1709C7.31621 13.1709 7.04771 13.3841 6.98391 13.6818C6.73899 14.8241 5.82588 15.7169 4.6577 15.9564C4.35329 16.0188 4.13521 16.2813 4.13521 16.5854C4.13521 16.8896 4.35325 17.1521 4.6577 17.2145C5.82584 17.4539 6.73895 18.3468 6.98383 19.4891C7.04763 19.7868 7.31609 20 7.62717 20C7.93821 20 8.2067 19.7868 8.2705 19.4891C8.51543 18.3468 9.42853 17.454 10.5968 17.2145C10.9012 17.1521 11.1192 16.8896 11.1192 16.5855C11.1192 16.2813 10.9012 16.0188 10.5968 15.9564Z" fill="#0B0B07"/>
<path d="M19.4776 10.0053C17.8985 9.6816 16.6644 8.4748 16.3334 6.93086C16.2696 6.6332 16.0012 6.41996 15.6901 6.41996C15.3791 6.41996 15.1106 6.63313 15.0468 6.93082C14.7157 8.4748 13.4816 9.68156 11.9026 10.0052C11.5982 10.0676 11.3801 10.3301 11.3801 10.6343C11.3801 10.9384 11.5981 11.2009 11.9026 11.2633C13.4816 11.587 14.7157 12.7937 15.0467 14.3377C15.1105 14.6354 15.3789 14.8486 15.69 14.8486C16.0011 14.8486 16.2695 14.6355 16.3333 14.3377C16.6644 12.7937 17.8985 11.587 19.4775 11.2634C19.7819 11.201 20 10.9385 20 10.6343C20 10.3302 19.782 10.0677 19.4776 10.0053Z" fill="#0B0B07"/>
</svg>
