<svg width="32" height="32" viewBox="0 0 32 32" fill="none" xmlns="http://www.w3.org/2000/svg">
<path d="M15.9977 8.65938C14.5463 8.65938 13.1275 9.08977 11.9208 9.89612C10.714 10.7025 9.7734 11.8485 9.21798 13.1895C8.66256 14.5304 8.51724 16.0058 8.80039 17.4293C9.08354 18.8528 9.78245 20.1604 10.8087 21.1867C11.835 22.213 13.1426 22.9119 14.5661 23.195C15.9896 23.4782 17.4651 23.3329 18.806 22.7774C20.1469 22.222 21.293 21.2814 22.0993 20.0747C22.9056 18.8679 23.336 17.4491 23.336 15.9977C23.334 14.0521 22.5602 12.1867 21.1845 10.811C19.8087 9.4352 17.9433 8.66141 15.9977 8.65938ZM15.9977 20.8899C15.0301 20.8899 14.0843 20.603 13.2797 20.0654C12.4752 19.5279 11.8482 18.7638 11.4779 17.8699C11.1076 16.9759 11.0107 15.9923 11.1995 15.0433C11.3883 14.0943 11.8542 13.2226 12.5384 12.5384C13.2226 11.8542 14.0943 11.3883 15.0433 11.1995C15.9923 11.0107 16.9759 11.1076 17.8699 11.4779C18.7638 11.8482 19.5279 12.4752 20.0654 13.2797C20.603 14.0843 20.8899 15.0301 20.8899 15.9977C20.8899 17.2952 20.3745 18.5396 19.457 19.457C18.5396 20.3745 17.2952 20.8899 15.9977 20.8899ZM29.4513 16.3279C29.4574 16.1078 29.4574 15.8876 29.4513 15.6675L31.7323 12.8178C31.8519 12.6681 31.9347 12.4925 31.974 12.305C32.0133 12.1176 32.008 11.9235 31.9586 11.7384C31.5846 10.3328 31.0253 8.98326 30.2952 7.72528C30.1996 7.56065 30.0669 7.42061 29.9077 7.3163C29.7484 7.212 29.567 7.1463 29.3779 7.12445L25.7516 6.72084C25.6007 6.56185 25.4478 6.40897 25.2929 6.2622L24.8648 2.62667C24.8428 2.43742 24.7769 2.25594 24.6723 2.09668C24.5677 1.93742 24.4274 1.8048 24.2625 1.70938C23.004 0.980667 21.6546 0.421866 20.2493 0.0475587C20.0642 -0.00167395 19.87 -0.00670943 19.6825 0.032858C19.4951 0.0724255 19.3195 0.155489 19.17 0.275352L16.3279 2.54412C16.1078 2.54412 15.8876 2.54412 15.6675 2.54412L12.8178 0.267708C12.6681 0.148106 12.4925 0.0653203 12.305 0.0260194C12.1176 -0.0132814 11.9235 -0.00799844 11.7384 0.0414433C10.3331 0.416045 8.98358 0.975372 7.72528 1.7048C7.56065 1.80039 7.42061 1.93309 7.3163 2.09233C7.212 2.25158 7.1463 2.43298 7.12445 2.62209L6.72084 6.25456C6.56185 6.40642 6.40897 6.5593 6.2622 6.7132L2.62667 7.13057C2.43742 7.15259 2.25594 7.21851 2.09668 7.32309C1.93742 7.42767 1.8048 7.56801 1.70938 7.73292C0.980667 8.99139 0.421866 10.3408 0.0475587 11.7461C-0.00167395 11.9312 -0.00670943 12.1254 0.032858 12.3129C0.0724255 12.5004 0.155489 12.6759 0.275352 12.8254L2.54412 15.6675C2.54412 15.8876 2.54412 16.1078 2.54412 16.3279L0.267708 19.1776C0.148106 19.3273 0.0653203 19.5029 0.0260194 19.6904C-0.0132814 19.8778 -0.00799844 20.0719 0.0414433 20.257C0.415376 21.6626 0.974739 23.0121 1.7048 24.2701C1.80039 24.4348 1.93309 24.5748 2.09233 24.6791C2.25158 24.7834 2.43298 24.8491 2.62209 24.871L6.24844 25.2746C6.4003 25.4336 6.55318 25.5864 6.70709 25.7332L7.13057 29.3687C7.15259 29.558 7.21851 29.7395 7.32309 29.8987C7.42767 30.058 7.56801 30.1906 7.73292 30.286C8.99139 31.0147 10.3408 31.5735 11.7461 31.9479C11.9312 31.9971 12.1254 32.0021 12.3129 31.9626C12.5004 31.923 12.6759 31.8399 12.8254 31.7201L15.6675 29.4513C15.8876 29.4574 16.1078 29.4574 16.3279 29.4513L19.1776 31.7323C19.3273 31.8519 19.5029 31.9347 19.6904 31.974C19.8778 32.0133 20.0719 32.008 20.257 31.9586C21.6626 31.5846 23.0121 31.0253 24.2701 30.2952C24.4348 30.1996 24.5748 30.0669 24.6791 29.9077C24.7834 29.7484 24.8491 29.567 24.871 29.3779L25.2746 25.7516C25.4336 25.6007 25.5864 25.4478 25.7332 25.2929L29.3687 24.8648C29.558 24.8428 29.7395 24.7769 29.8987 24.6723C30.058 24.5677 30.1906 24.4274 30.286 24.2625C31.0147 23.004 31.5735 21.6546 31.9479 20.2493C31.9971 20.0642 32.0021 19.87 31.9626 19.6825C31.923 19.4951 31.8399 19.3195 31.7201 19.17L29.4513 16.3279ZM26.9899 15.3342C27.0159 15.7762 27.0159 16.2193 26.9899 16.6612C26.9717 16.9638 27.0665 17.2624 27.2559 17.499L29.4253 20.2096C29.1764 21.0007 28.8576 21.7681 28.4729 22.5028L25.0177 22.8942C24.7168 22.9276 24.439 23.0714 24.238 23.2978C23.9437 23.6288 23.6303 23.9422 23.2993 24.2365C23.0729 24.4375 22.9291 24.7153 22.8957 25.0162L22.512 28.4683C21.7774 28.8532 21.01 29.172 20.2188 29.4207L17.5066 27.2513C17.2896 27.0779 17.02 26.9836 16.7422 26.9838H16.6689C16.2269 27.0098 15.7838 27.0098 15.3418 26.9838C15.0393 26.9656 14.7407 27.0604 14.5041 27.2498L11.7858 29.4207C10.9947 29.1718 10.2273 28.8531 9.49259 28.4683L9.10121 25.0177C9.06781 24.7168 8.924 24.439 8.69761 24.238C8.36663 23.9437 8.05319 23.6303 7.75891 23.2993C7.55792 23.0729 7.28011 22.9291 6.97922 22.8957L3.52715 22.5105C3.14218 21.7759 2.82343 21.0084 2.57469 20.2172L4.74408 17.5051C4.93351 17.2685 5.02831 16.9699 5.0101 16.6673C4.98411 16.2254 4.98411 15.7823 5.0101 15.3403C5.02831 15.0377 4.93351 14.7392 4.74408 14.5025L2.57469 11.7858C2.82362 10.9947 3.14236 10.2273 3.52715 9.49259L6.97769 9.10121C7.27858 9.06781 7.55639 8.924 7.75738 8.69761C8.05167 8.36663 8.3651 8.05319 8.69608 7.75891C8.92338 7.55779 9.06778 7.27934 9.10121 6.97769L9.48495 3.52715C10.2195 3.14218 10.987 2.82343 11.7782 2.57469L14.4903 4.74408C14.7269 4.93351 15.0255 5.02831 15.3281 5.0101C15.77 4.98411 16.2131 4.98411 16.6551 5.0101C16.9577 5.02831 17.2562 4.93351 17.4929 4.74408L20.2096 2.57469C21.0007 2.82362 21.7681 3.14236 22.5028 3.52715L22.8942 6.97769C22.9276 7.27858 23.0714 7.55639 23.2978 7.75738C23.6288 8.05167 23.9422 8.3651 24.2365 8.69608C24.4375 8.92247 24.7153 9.06628 25.0162 9.09968L28.4683 9.48342C28.8532 10.218 29.172 10.9855 29.4207 11.7766L27.2513 14.4888C27.0601 14.7274 26.9652 15.029 26.9853 15.3342H26.9899Z" fill="#0B0B07"/>
</svg>
