<svg width="25" height="24" viewBox="0 0 25 24" fill="none" xmlns="http://www.w3.org/2000/svg">
<path d="M12.9286 4.79603C11.6768 4.79603 10.662 3.78121 10.662 2.52936C10.662 1.27752 11.6768 0.262695 12.9286 0.262695C14.1805 0.262695 15.1953 1.27752 15.1953 2.52936C15.1953 3.78121 14.1805 4.79603 12.9286 4.79603Z" fill="#0B0B07"/>
<path d="M12.9676 12.8093L15.0556 11.1479L13.4476 7.96127C13.215 7.50101 13.3996 6.93941 13.8598 6.70687C14.3206 6.47434 14.8817 6.65941 15.1142 7.11967L17.0641 10.9837C17.263 11.3789 17.158 11.8599 16.8118 12.1346L14.6902 13.8226L12.9676 12.8093Z" fill="#0B0B07"/>
<path d="M7.886 22.2067L9.094 18.011C9.10253 17.9822 9.1116 17.9534 9.12227 17.9251L10.7004 13.6729C10.886 14.2249 11.2503 14.6979 11.75 14.9987L11.0913 18.3737C11.03 18.6894 11.0759 19.0201 11.2183 19.307L10.1927 22.8702C10.0412 23.3961 9.5612 23.7385 9.04013 23.7385C8.93027 23.7385 8.81827 23.7241 8.70787 23.6915C8.07 23.5081 7.70253 22.8435 7.886 22.2067Z" fill="#0B0B07"/>
<path d="M12.0452 14.8577C11.4217 14.5505 10.9694 13.9585 10.8553 13.2566C10.8553 13.2566 10.8196 12.9574 10.8265 12.8038L11.1918 7.5697C11.2473 6.36277 12.2713 5.42783 13.4793 5.4849C14.5534 5.5345 15.4062 6.3521 15.5438 7.3825L15.3502 6.99903C15.1454 6.5921 14.7348 6.33983 14.2788 6.33983C14.09 6.33983 13.9086 6.38303 13.7385 6.4689C13.1481 6.76703 12.9092 7.4897 13.2073 8.0801L14.7177 11.0726L12.6388 12.727C12.5934 12.7633 12.5561 12.8049 12.5172 12.846L14.7748 14.1814C14.7145 14.2646 14.6473 14.342 14.5769 14.4156L13.7833 18.4785L15.5689 21.9942C15.8692 22.5852 15.6329 23.3073 15.042 23.607C14.8681 23.6956 14.6825 23.7372 14.5001 23.7372C14.0628 23.7372 13.6409 23.4977 13.4286 23.0806L11.4569 19.1969C11.3353 18.9585 11.298 18.6865 11.3492 18.4241L12.0452 14.8577Z" fill="#0B0B07"/>
</svg>
