<svg width="25" height="24" viewBox="0 0 25 24" fill="none" xmlns="http://www.w3.org/2000/svg">
<path d="M12.0714 4.79603C13.3232 4.79603 14.338 3.78121 14.338 2.52936C14.338 1.27752 13.3232 0.262695 12.0714 0.262695C10.8195 0.262695 9.80469 1.27752 9.80469 2.52936C9.80469 3.78121 10.8195 4.79603 12.0714 4.79603Z" fill="#0B0B07"/>
<path d="M12.0324 12.8093L9.94443 11.1479L11.5524 7.96127C11.785 7.50101 11.6004 6.93941 11.1402 6.70687C10.6794 6.47434 10.1183 6.65941 9.88576 7.11967L7.9359 10.9837C7.73696 11.3789 7.84203 11.8599 8.18816 12.1346L10.3098 13.8226L12.0324 12.8093Z" fill="#0B0B07"/>
<path d="M17.114 22.2067L15.906 18.011C15.8975 17.9822 15.8884 17.9534 15.8777 17.9251L14.2996 13.6729C14.114 14.2249 13.7497 14.6979 13.25 14.9987L13.9087 18.3737C13.97 18.6894 13.9241 19.0201 13.7817 19.307L14.8073 22.8702C14.9588 23.3961 15.4388 23.7385 15.9599 23.7385C16.0697 23.7385 16.1817 23.7241 16.2921 23.6915C16.93 23.5081 17.2975 22.8435 17.114 22.2067Z" fill="#0B0B07"/>
<path d="M12.9548 14.8577C13.5783 14.5505 14.0306 13.9585 14.1447 13.2566C14.1447 13.2566 14.1804 12.9574 14.1735 12.8038L13.8082 7.5697C13.7527 6.36277 12.7287 5.42783 11.5207 5.4849C10.4466 5.5345 9.59378 6.3521 9.45618 7.3825L9.64978 6.99903C9.85458 6.5921 10.2652 6.33983 10.7212 6.33983C10.91 6.33983 11.0914 6.38303 11.2615 6.4689C11.8519 6.76703 12.0908 7.4897 11.7927 8.0801L10.2823 11.0726L12.3612 12.727C12.4066 12.7633 12.4439 12.8049 12.4828 12.846L10.2252 14.1814C10.2855 14.2646 10.3527 14.342 10.4231 14.4156L11.2167 18.4785L9.43111 21.9942C9.13084 22.5852 9.36711 23.3073 9.95804 23.607C10.1319 23.6956 10.3175 23.7372 10.4999 23.7372C10.9372 23.7372 11.3591 23.4977 11.5714 23.0806L13.5431 19.1969C13.6647 18.9585 13.702 18.6865 13.6508 18.4241L12.9548 14.8577Z" fill="#0B0B07"/>
</svg>
