<svg width="86" height="98" viewBox="0 0 86 98" fill="none" xmlns="http://www.w3.org/2000/svg">
<path d="M52 9C52 13.6944 47.9706 17.5 43 17.5C38.0294 17.5 34 13.6944 34 9C34 4.30558 38.0294 0.5 43 0.5C47.9706 0.5 52 4.30558 52 9Z" fill="white"/>
<path fill-rule="evenodd" clip-rule="evenodd" d="M11.378 16.3589C10.0513 15.2133 8.38866 14.5 6.63763 14.5H0.929129C0.415985 14.5 0 14.917 0 15.4314C0 15.7517 0.162921 16.048 0.431841 16.2211C9.92213 22.327 19.638 32.7744 27.3093 46.094C37.0439 62.996 41.137 80.4437 39.3137 92.9088C38.9746 95.2269 40.664 97.5 43.0012 97.5C45.3384 97.5 47.0277 95.2269 46.6886 92.9088C44.8654 80.4436 48.9584 62.996 58.693 46.094C66.3636 32.7757 76.0783 22.3289 85.5678 16.2228C85.8369 16.0496 86 15.753 86 15.4323C86 14.9174 85.5836 14.5 85.0699 14.5H78.7142C76.7922 14.5 74.9685 15.2855 73.5038 16.5331C65.6825 23.1954 54.7019 27.3398 42.5424 27.3398C30.2774 27.3398 19.2117 23.1231 11.378 16.3589Z" fill="white"/>
</svg>
