<svg width="22" height="24" viewBox="0 0 22 24" fill="none" xmlns="http://www.w3.org/2000/svg">
<path d="M13.3023 2.10309C13.3023 3.2646 12.2715 4.20619 11 4.20619C9.72846 4.20619 8.69767 3.2646 8.69767 2.10309C8.69767 0.941587 9.72846 0 11 0C12.2715 0 13.3023 0.941587 13.3023 2.10309Z" fill="#0B0B07"/>
<path fill-rule="evenodd" clip-rule="evenodd" d="M2.91065 3.92385C2.57126 3.64041 2.14594 3.46392 1.698 3.46392H0.237684C0.106415 3.46392 0 3.56709 0 3.69437C0 3.77362 0.0416774 3.84694 0.110471 3.88975C2.53822 5.40049 5.02367 7.98543 6.98611 11.281C9.47635 15.4629 10.5234 19.7799 10.057 22.864C9.97025 23.4376 10.4024 24 11.0003 24C11.5982 24 12.0303 23.4376 11.9436 22.864C11.4772 19.7799 12.5242 15.4629 15.0145 11.281C16.9767 7.98574 19.4619 5.40098 21.8894 3.89018C21.9583 3.84732 22 3.77393 22 3.6946C22 3.5672 21.8935 3.46392 21.7621 3.46392H20.1362C19.6445 3.46392 19.178 3.65826 18.8033 3.96695C16.8025 5.61536 13.9935 6.64077 10.883 6.64077C7.74538 6.64077 4.91462 5.59747 2.91065 3.92385Z" fill="#0B0B07"/>
</svg>
